<svg id="Group_20173" data-name="Group 20173" xmlns="http://www.w3.org/2000/svg" width="16.839" height="16.839" viewBox="0 0 16.839 16.839">
  <g id="Group_20169" data-name="Group 20169" transform="translate(7.767 3.906)">
    <g id="Group_20168" data-name="Group 20168">
      <path id="Path_99917" data-name="Path 99917" d="M239.821,124.779l-2.348-1.761v-3.587a.652.652,0,0,0-1.3,0v3.913a.651.651,0,0,0,.261.522l2.609,1.956a.652.652,0,0,0,.783-1.043Z" transform="translate(-236.169 -118.779)" fill="#e1003e"/>
    </g>
  </g>
  <g id="Group_20171" data-name="Group 20171">
    <g id="Group_20170" data-name="Group 20170">
      <path id="Path_99918" data-name="Path 99918" d="M8.419,0a8.419,8.419,0,1,0,8.419,8.419A8.428,8.428,0,0,0,8.419,0Zm0,15.534a7.115,7.115,0,1,1,7.115-7.115A7.124,7.124,0,0,1,8.419,15.534Z" fill="#6e1588"/>
    </g>
  </g>
</svg>
