<svg xmlns="http://www.w3.org/2000/svg" width="11.769" height="14.594" viewBox="0 0 11.769 14.594">
  <g id="Group_20145" data-name="Group 20145" transform="translate(-37.226)">
    <g id="Group_20144" data-name="Group 20144" transform="translate(37.226)">
      <path id="Path_99904" data-name="Path 99904" d="M47.018,4.71a1.648,1.648,0,0,0,.565-1.245V.942h.942a.471.471,0,0,0,0-.942H37.7a.471.471,0,0,0,0,.942h.942V3.7a1.645,1.645,0,0,0,.572,1.25L41.3,6.758a.707.707,0,0,1,.247.539.7.7,0,0,1-.247.539l-2.09,1.81a1.653,1.653,0,0,0-.572,1.252v2.754H37.7a.471.471,0,0,0,0,.942H48.524a.471.471,0,0,0,0-.942h-.942V11.129a1.656,1.656,0,0,0-.565-1.245l-2.344-2.05a.7.7,0,0,1-.242-.537.706.706,0,0,1,.242-.537ZM44.054,8.542l2.344,2.05a.713.713,0,0,1,.242.537v2.523H39.58V10.9a.717.717,0,0,1,.245-.539l2.09-1.81a1.652,1.652,0,0,0,0-2.5l-2.09-1.812A.722.722,0,0,1,39.58,3.7V.942h7.061V3.465A.715.715,0,0,1,46.4,4l-2.344,2.05a1.653,1.653,0,0,0,0,2.49Z" transform="translate(-37.226)" fill="#707070"/>
      <path id="Path_99905" data-name="Path 99905" d="M117.8,75.092v-.377a.263.263,0,0,0-.261-.264h-5.6a.262.262,0,0,0-.261.261v.61a.477.477,0,0,0,.165.36l2.057,1.784a1.946,1.946,0,0,1,.574.814,1.893,1.893,0,0,1-.541,2.069l-2.09,1.812a.481.481,0,0,0-.165.36V84.6a.21.21,0,0,0,.21.212h5.7a.21.21,0,0,0,.209-.209V82.756a.479.479,0,0,0-.162-.36l-2.3-2.017a1.984,1.984,0,0,1-.572-.81,1.9,1.9,0,0,1,.532-2.069l2.344-2.05A.474.474,0,0,0,117.8,75.092Z" transform="translate(-108.853 -71.627)" fill="#707070"/>
    </g>
  </g>
</svg>
