<svg xmlns="http://www.w3.org/2000/svg" width="12.526" height="12.526" viewBox="0 0 12.526 12.526">
  <path id="Path_99923" data-name="Path 99923" d="M11.058,12.526H4.4a1.469,1.469,0,0,1-1.468-1.468V4.4A1.469,1.469,0,0,1,4.4,2.936h6.655A1.469,1.469,0,0,1,12.526,4.4v6.655A1.469,1.469,0,0,1,11.058,12.526ZM4.4,3.914a.49.49,0,0,0-.489.489v6.655a.49.49,0,0,0,.489.489h6.655a.49.49,0,0,0,.489-.489V4.4a.49.49,0,0,0-.489-.489Zm-2.447,4.7H1.468a.49.49,0,0,1-.489-.489V1.468A.49.49,0,0,1,1.468.979H8.123a.49.49,0,0,1,.489.489v.465H9.59V1.468A1.469,1.469,0,0,0,8.123,0H1.468A1.469,1.469,0,0,0,0,1.468V8.123A1.469,1.469,0,0,0,1.468,9.59h.489Zm0,0" fill="#e1003e"/>
</svg>
