<svg id="Group_21997" data-name="Group 21997" xmlns="http://www.w3.org/2000/svg" width="12.023" height="12.023" viewBox="0 0 12.023 12.023">
  <g id="Group_21997-2" data-name="Group 21997">
    <path id="Path_103244" data-name="Path 103244" d="M6.012,0A6.012,6.012,0,1,1,0,6.012,6.019,6.019,0,0,1,6.012,0Zm0,10.521a4.514,4.514,0,0,0,4.509-4.509A4.451,4.451,0,0,0,9.686,3.4L3.4,9.686A4.451,4.451,0,0,0,6.012,10.521Zm-3.674-1.9L8.623,2.338A4.451,4.451,0,0,0,6.012,1.5,4.514,4.514,0,0,0,1.5,6.012,4.451,4.451,0,0,0,2.338,8.623Z" fill="#6f706f"/>
  </g>
</svg>
