<svg id="Group_20158" data-name="Group 20158" xmlns="http://www.w3.org/2000/svg" width="11.07" height="12.595" viewBox="0 0 11.07 12.595">
  <g id="Group_20159" data-name="Group 20159">
    <g id="Group_20158-2" data-name="Group 20158">
      <path id="Path_99912" data-name="Path 99912" d="M40.963,1.476H39.118V1.107A1.108,1.108,0,0,0,38.011,0H35.059a1.108,1.108,0,0,0-1.107,1.107v.369H32.107a1.107,1.107,0,0,0-.344,2.159l.658,7.945a1.113,1.113,0,0,0,1.1,1.015h6.022a1.114,1.114,0,0,0,1.1-1.015l.658-7.945a1.107,1.107,0,0,0-.344-2.159ZM34.69,1.107a.369.369,0,0,1,.369-.369h2.952a.369.369,0,0,1,.369.369v.369H34.69Zm5.224,10.412a.371.371,0,0,1-.368.338H33.524a.371.371,0,0,1-.368-.338L32.508,3.69h8.054Zm1.049-8.567H32.107a.369.369,0,1,1,0-.738h8.856a.369.369,0,0,1,0,.738Z" transform="translate(-31)"/>
    </g>
  </g>
  <g id="Group_20161" data-name="Group 20161" transform="translate(2.952 4.428)">
    <g id="Group_20160" data-name="Group 20160">
      <path id="Path_99913" data-name="Path 99913" d="M152.105,186.3l-.369-5.953a.369.369,0,0,0-.737.046l.369,5.953a.369.369,0,1,0,.737-.046Z" transform="translate(-150.999 -179.999)"/>
    </g>
  </g>
  <g id="Group_20163" data-name="Group 20163" transform="translate(5.166 4.428)">
    <g id="Group_20162" data-name="Group 20162">
      <path id="Path_99914" data-name="Path 99914" d="M241.369,180a.369.369,0,0,0-.369.369v5.953a.369.369,0,1,0,.738,0v-5.953A.369.369,0,0,0,241.369,180Z" transform="translate(-241 -180)"/>
    </g>
  </g>
  <g id="Group_20165" data-name="Group 20165" transform="translate(7.011 4.428)">
    <g id="Group_20164" data-name="Group 20164">
      <path id="Path_99915" data-name="Path 99915" d="M316.76,180a.369.369,0,0,0-.391.345L316,186.3a.369.369,0,0,0,.737.046l.369-5.953A.369.369,0,0,0,316.76,180Z" transform="translate(-315.999 -180)"/>
    </g>
  </g>
</svg>
