<svg id="Group_20157" data-name="Group 20157" xmlns="http://www.w3.org/2000/svg" width="12.659" height="12.595" viewBox="0 0 12.659 12.595">
  <path id="Path_99910" data-name="Path 99910" d="M11.684,45.849a.315.315,0,0,0-.315.315v2.8a.947.947,0,0,1-.946.946H1.576a.947.947,0,0,1-.946-.946V40.748a.947.947,0,0,1,.946-.946h2.8a.315.315,0,0,0,0-.631h-2.8A1.578,1.578,0,0,0,0,40.748v8.216A1.578,1.578,0,0,0,1.576,50.54h8.846A1.578,1.578,0,0,0,12,48.964v-2.8A.315.315,0,0,0,11.684,45.849Zm0,0" transform="translate(0 -37.945)"/>
  <path id="Path_99911" data-name="Path 99911" d="M116.653.676a1.419,1.419,0,0,0-2.006,0L109.022,6.3a.315.315,0,0,0-.081.139l-.74,2.67a.315.315,0,0,0,.388.388l2.67-.74a.315.315,0,0,0,.139-.081l5.624-5.625a1.42,1.42,0,0,0,0-2.006Zm-6.944,5.83,4.6-4.6L115.8,3.387l-4.6,4.6Zm-.3.6L110.6,8.287l-1.641.455Zm7.165-4.494-.334.334-1.485-1.485.334-.334a.788.788,0,0,1,1.115,0l.37.37A.789.789,0,0,1,116.577,2.607Zm0,0" transform="translate(-104.779 -0.261)"/>
</svg>
