<svg id="Group_20146" data-name="Group 20146" xmlns="http://www.w3.org/2000/svg" width="20.526" height="20.526" viewBox="0 0 20.526 20.526">
  <path id="Path_99906" data-name="Path 99906" d="M17.519,5.172h-.561V3.007A3.01,3.01,0,0,0,13.951,0H6.575A3.01,3.01,0,0,0,3.568,3.007V5.172H3.007A3.01,3.01,0,0,0,0,8.178v4.811A3.01,3.01,0,0,0,3.007,16h.561v2.726a1.806,1.806,0,0,0,1.8,1.8h9.782a1.806,1.806,0,0,0,1.8-1.8V16h.561a3.01,3.01,0,0,0,3.007-3.007V8.178A3.01,3.01,0,0,0,17.519,5.172ZM4.771,3.007a1.806,1.806,0,0,1,1.8-1.8h7.377a1.806,1.806,0,0,1,1.8,1.8V5.172H4.771ZM15.755,18.722a.6.6,0,0,1-.6.6H5.372a.6.6,0,0,1-.6-.6V12.789H15.755Zm3.568-5.733a1.806,1.806,0,0,1-1.8,1.8h-.561v-2h.361a.6.6,0,0,0,0-1.2H3.207a.6.6,0,1,0,0,1.2h.361v2H3.007a1.806,1.806,0,0,1-1.8-1.8V8.178a1.806,1.806,0,0,1,1.8-1.8H17.519a1.806,1.806,0,0,1,1.8,1.8Z"/>
  <path id="Path_99907" data-name="Path 99907" d="M204.809,353H201.6a.6.6,0,0,0,0,1.2h3.207a.6.6,0,0,0,0-1.2Z" transform="translate(-192.942 -338.848)"/>
  <path id="Path_99908" data-name="Path 99908" d="M204.809,417H201.6a.6.6,0,0,0,0,1.2h3.207a.6.6,0,0,0,0-1.2Z" transform="translate(-192.942 -400.283)"/>
  <path id="Path_99909" data-name="Path 99909" d="M67.526,193H65.6a.6.6,0,1,0,0,1.2h1.924a.6.6,0,0,0,0-1.2Z" transform="translate(-62.394 -185.263)"/>
</svg>
