<svg xmlns="http://www.w3.org/2000/svg" width="21.002" height="21" viewBox="0 0 21.002 21">
  <g id="Group_20510" data-name="Group 20510" transform="translate(0.037)">
    <g id="BULINE" transform="translate(-0.036 0)">
      <circle id="Ellipse_2009" data-name="Ellipse 2009" cx="10.5" cy="10.5" r="10.5" fill="#27273d"/>
    </g>
    <g id="Icons" transform="translate(-0.037 0)">
      <path id="Path_100218" data-name="Path 100218" d="M35.549,6.855H15.85a10.5,10.5,0,0,1,19.7,0Z" transform="translate(-15.198 0)" fill="#e88032"/>
      <path id="Path_100219" data-name="Path 100219" d="M20.314,174.41H.614a10.522,10.522,0,0,1,0-7.291h19.7a10.378,10.378,0,0,1,.365,1.206A10.554,10.554,0,0,1,20.314,174.41Z" transform="translate(0.037 -160.265)" fill="#fff"/>
      <path id="Path_100220" data-name="Path 100220" d="M25.7,351.718a10.5,10.5,0,0,1-9.85-6.855h19.7a10.346,10.346,0,0,1-.535,1.206A10.5,10.5,0,0,1,25.7,351.718Z" transform="translate(-15.196 -330.718)" fill="#00b564"/>
      <path id="Path_100221" data-name="Path 100221" d="M27.074.089A10.511,10.511,0,0,0,18.6,6.857H15.85A10.5,10.5,0,0,1,25.7,0a10.631,10.631,0,0,1,1.376.089Z" transform="translate(-15.198 0)" fill="#d8712b"/>
      <path id="Path_100222" data-name="Path 100222" d="M2.712,170.765a10.476,10.476,0,0,0,.65,3.645H.614a10.522,10.522,0,0,1,0-7.291H3.362A10.373,10.373,0,0,0,3,168.326a10.507,10.507,0,0,0-.287,2.439Z" transform="translate(0.037 -160.265)" fill="#e2e2e2"/>
      <path id="Path_100223" data-name="Path 100223" d="M27.071,351.629a10.614,10.614,0,0,1-1.374.089,10.5,10.5,0,0,1-9.85-6.855H18.6a10.506,10.506,0,0,0,8.476,6.768Z" transform="translate(-15.196 -330.718)" fill="#049b53"/>
      <circle id="Ellipse_2010" data-name="Ellipse 2010" cx="0.668" cy="0.668" r="0.668" transform="translate(16.071 3.288)" fill="#ef9050"/>
      <circle id="Ellipse_2011" data-name="Ellipse 2011" cx="0.473" cy="0.473" r="0.473" transform="translate(15.282 2.499)" fill="#ef9050"/>
      <circle id="Ellipse_2012" data-name="Ellipse 2012" cx="3.276" cy="3.276" r="3.276" transform="translate(7.226 7.224)" fill="#3e436d"/>
      <path id="Path_100224" data-name="Path 100224" d="M196.168,193.342l-.153-.034a.27.27,0,0,0,0-.037l.139-.073a.116.116,0,0,0,.059-.133l-.079-.3a.116.116,0,0,0-.117-.086l-.156.007-.014-.034.115-.105a.116.116,0,0,0,.022-.144l-.153-.266a.116.116,0,0,0-.135-.053l-.149.047-.023-.029.084-.132a.116.116,0,0,0-.016-.145l-.217-.217a.116.116,0,0,0-.145-.016l-.132.085-.029-.023.047-.149a.116.116,0,0,0-.052-.135l-.266-.153a.116.116,0,0,0-.144.022l-.105.115-.034-.014.007-.156a.117.117,0,0,0-.086-.117l-.3-.079a.116.116,0,0,0-.132.059l-.073.139-.036,0-.034-.153a.116.116,0,0,0-.113-.091h-.307a.116.116,0,0,0-.113.091l-.034.153-.037,0-.073-.139a.116.116,0,0,0-.133-.059l-.3.079a.116.116,0,0,0-.086.117l.007.156-.034.014-.105-.115a.116.116,0,0,0-.144-.022l-.266.153a.116.116,0,0,0-.052.135l.047.149-.029.023-.132-.082a.116.116,0,0,0-.145.016l-.217.217a.116.116,0,0,0-.016.145l.084.132-.023.029-.149-.047a.116.116,0,0,0-.135.052l-.153.266a.116.116,0,0,0,.022.144l.115.105-.014.034-.156-.007a.116.116,0,0,0-.117.086l-.079.3a.116.116,0,0,0,.059.13l.139.073a.285.285,0,0,1,0,.037l-.153.034a.116.116,0,0,0-.091.113v.307a.116.116,0,0,0,.091.113l.153.034a.27.27,0,0,0,0,.036l-.139.073a.116.116,0,0,0-.059.133l.079.3a.116.116,0,0,0,.117.086l.156-.007.014.034-.115.105a.116.116,0,0,0-.022.144l.153.266a.116.116,0,0,0,.135.053l.149-.047.023.029-.082.132a.116.116,0,0,0,.016.145l.217.217a.116.116,0,0,0,.145.016l.132-.084.029.023-.047.149a.116.116,0,0,0,.053.135l.266.153a.116.116,0,0,0,.144-.022l.105-.115.034.014-.007.156a.116.116,0,0,0,.086.117l.3.079a.116.116,0,0,0,.13-.059l.073-.139.036,0,.034.153a.116.116,0,0,0,.113.091h.307a.116.116,0,0,0,.113-.091l.034-.153.036,0,.073.139a.116.116,0,0,0,.133.059l.3-.079a.116.116,0,0,0,.086-.117l-.007-.156.034-.014.105.115a.116.116,0,0,0,.144.022l.266-.153a.116.116,0,0,0,.053-.135l-.047-.149.029-.023.132.084a.116.116,0,0,0,.145-.016l.217-.217a.116.116,0,0,0,.016-.145l-.084-.132.023-.029.149.047a.116.116,0,0,0,.135-.053l.153-.266a.116.116,0,0,0-.022-.144l-.115-.105.014-.034.156.007a.116.116,0,0,0,.117-.086l.079-.3a.116.116,0,0,0-.059-.132l-.139-.073a.284.284,0,0,1,0-.036l.153-.034a.116.116,0,0,0,.091-.113v-.307A.116.116,0,0,0,196.168,193.342Z" transform="translate(-183.088 -183.108)" fill="#fff"/>
      <g id="Group_20509" data-name="Group 20509" transform="translate(8.341 8.34)">
        <path id="Path_100225" data-name="Path 100225" d="M244.79,244.233a.167.167,0,0,1,0,.029.409.409,0,0,1-.01.078.486.486,0,0,1-.037.108.5.5,0,0,1-.048.082.486.486,0,0,1-.077.082.414.414,0,0,1-.059.044.474.474,0,0,1-.1.05.443.443,0,0,1-.111.026.437.437,0,0,1-.113,0,.461.461,0,0,1-.088-.018.451.451,0,0,1-.1-.045.475.475,0,0,1-.07-.048.455.455,0,0,1-.079-.082.441.441,0,0,1-.053-.082.459.459,0,0,1-.038-.107.416.416,0,0,1-.013-.088.17.17,0,0,1,0-.029.529.529,0,0,1,.007-.085.4.4,0,0,1,.019-.075.438.438,0,0,1,.048-.1.4.4,0,0,1,.048-.066.487.487,0,0,1,.084-.077.515.515,0,0,1,.2-.087l.041-.006a.532.532,0,0,1,.057,0,.323.323,0,0,1,.057,0,.368.368,0,0,1,.067.012.441.441,0,0,1,.107.041.435.435,0,0,1,.078.05.424.424,0,0,1,.082.079.38.38,0,0,1,.045.064.474.474,0,0,1,.046.1.432.432,0,0,1,.016.066.53.53,0,0,1,0,.084Z" transform="translate(-242.125 -242.073)" fill="#3e436d"/>
        <path id="Path_100226" data-name="Path 100226" d="M244.79,244.233a.167.167,0,0,1,0,.029.409.409,0,0,1-.01.078.486.486,0,0,1-.037.108.5.5,0,0,1-.048.082.486.486,0,0,1-.077.082.414.414,0,0,1-.059.044.474.474,0,0,1-.1.05.443.443,0,0,1-.111.026.437.437,0,0,1-.113,0,.461.461,0,0,1-.088-.018.451.451,0,0,1-.1-.045.475.475,0,0,1-.07-.048.455.455,0,0,1-.079-.082.441.441,0,0,1-.053-.082.459.459,0,0,1-.038-.107.416.416,0,0,1-.013-.088.17.17,0,0,1,0-.029.529.529,0,0,1,.007-.085.4.4,0,0,1,.019-.075.438.438,0,0,1,.048-.1.4.4,0,0,1,.048-.066.487.487,0,0,1,.084-.077.515.515,0,0,1,.2-.087l.041-.006a.532.532,0,0,1,.057,0,.323.323,0,0,1,.057,0,.368.368,0,0,1,.067.012.441.441,0,0,1,.107.041.435.435,0,0,1,.078.05.424.424,0,0,1,.082.079.38.38,0,0,1,.045.064.474.474,0,0,1,.046.1.432.432,0,0,1,.016.066.53.53,0,0,1,0,.084Z" transform="translate(-242.125 -242.073)" fill="#3e436d"/>
        <path id="Path_100227" data-name="Path 100227" d="M204.783,254.034h-1.406a.057.057,0,1,1,0-.114h1.41a.734.734,0,0,0,0,.085Z" transform="translate(-203.32 -251.845)" fill="#3e436d"/>
        <path id="Path_100228" data-name="Path 100228" d="M208.4,260.766l-1.3.523a.059.059,0,0,1-.021,0,.057.057,0,0,1-.021-.11l1.3-.523A.713.713,0,0,0,208.4,260.766Z" transform="translate(-206.875 -258.309)" fill="#3e436d"/>
        <path id="Path_100229" data-name="Path 100229" d="M207.677,235.01a.058.058,0,0,1,.074-.032l1.292.52a.659.659,0,0,0-.047.1l-1.287-.518A.057.057,0,0,1,207.677,235.01Z" transform="translate(-207.494 -233.676)" fill="#3e436d"/>
        <path id="Path_100230" data-name="Path 100230" d="M219.158,266.982l-1,1a.057.057,0,1,1-.082-.08l1-1A.685.685,0,0,0,219.158,266.982Z" transform="translate(-217.455 -264.293)" fill="#3e436d"/>
        <path id="Path_100231" data-name="Path 100231" d="M218.584,217.909a.056.056,0,0,1,0-.082.057.057,0,0,1,.08,0l1,1a.712.712,0,0,0-.082.078Z" transform="translate(-217.941 -217.217)" fill="#3e436d"/>
        <path id="Path_100232" data-name="Path 100232" d="M235.96,271.12a.6.6,0,0,0,.1.044l-.515,1.279a.058.058,0,0,1-.053.036.067.067,0,0,1-.021,0,.058.058,0,0,1-.031-.075Z" transform="translate(-234.122 -268.34)" fill="#3e436d"/>
        <path id="Path_100233" data-name="Path 100233" d="M236.05,206.3a.057.057,0,1,1,.1-.041l.533,1.324a.64.64,0,0,0-.107.037Z" transform="translate(-234.702 -206.104)" fill="#3e436d"/>
        <path id="Path_100234" data-name="Path 100234" d="M254.677,204.793a.516.516,0,0,0-.057,0v-1.408a.057.057,0,0,1,.113,0v1.406Z" transform="translate(-252.516 -203.33)" fill="#3e436d"/>
        <path id="Path_100235" data-name="Path 100235" d="M254.677,273a.516.516,0,0,0,.057,0v1.406a.057.057,0,0,1-.113,0V273Z" transform="translate(-252.516 -270.142)" fill="#3e436d"/>
        <path id="Path_100236" data-name="Path 100236" d="M260.916,207.588a.721.721,0,0,0-.106-.041l.536-1.331a.057.057,0,1,1,.106.041Z" transform="translate(-258.452 -206.058)" fill="#3e436d"/>
        <path id="Path_100237" data-name="Path 100237" d="M262.514,272.132a.057.057,0,0,1-.032.075.062.062,0,0,1-.021,0,.057.057,0,0,1-.053-.036l-.518-1.287a.652.652,0,0,0,.1-.048Z" transform="translate(-259.488 -268.071)" fill="#3e436d"/>
        <path id="Path_100238" data-name="Path 100238" d="M266.91,219.36l.99-.99a.057.057,0,1,1,.08.082l-.989.99A.676.676,0,0,0,266.91,219.36Z" transform="translate(-264.302 -217.737)" fill="#3e436d"/>
        <path id="Path_100239" data-name="Path 100239" d="M268.461,267.679a.058.058,0,0,1-.082.082l-.989-.989a.712.712,0,0,0,.078-.082Z" transform="translate(-264.762 -264.091)" fill="#3e436d"/>
        <path id="Path_100240" data-name="Path 100240" d="M271,235.57l1.313-.53a.057.057,0,0,1,.041.106l-1.312.528A.607.607,0,0,0,271,235.57Z" transform="translate(-268.224 -233.738)" fill="#3e436d"/>
        <path id="Path_100241" data-name="Path 100241" d="M272.933,261a.058.058,0,0,1-.053.036.069.069,0,0,1-.022,0l-1.319-.533a.74.74,0,0,0,.038-.107l1.324.533a.057.057,0,0,1,.031.075Z" transform="translate(-268.742 -258.05)" fill="#3e436d"/>
        <path id="Path_100242" data-name="Path 100242" d="M274.339,253.975a.057.057,0,0,1-.057.057h-1.406V254a.732.732,0,0,0-.005-.085h1.41a.057.057,0,0,1,.059.057Z" transform="translate(-270.017 -251.844)" fill="#3e436d"/>
      </g>
    </g>
  </g>
</svg>
