<svg xmlns="http://www.w3.org/2000/svg" xmlns:xlink="http://www.w3.org/1999/xlink" width="24" height="22.588" viewBox="0 0 24 22.588">
  <defs>
    <clipPath id="clip-path">
      <rect id="Rectangle_9241" data-name="Rectangle 9241" width="24" height="22.588" fill="#707070"/>
    </clipPath>
  </defs>
  <g id="Group_21154" data-name="Group 21154" transform="translate(0 -0.201)">
    <g id="Group_21153" data-name="Group 21153" transform="translate(0 0.201)" clip-path="url(#clip-path)">
      <path id="Path_102316" data-name="Path 102316" d="M18.9,0h.141c.136.024.275.041.409.075A2.112,2.112,0,0,1,21.1,2.206q0,1.654,0,3.307c0,.134.021.2.178.235a3.388,3.388,0,0,1,2.363,1.794,8.907,8.907,0,0,1,.423,1.2v.893a.455.455,0,0,0-.044.1,3.512,3.512,0,0,1-2.678,2.877c-.192.045-.246.11-.244.3.01,1.119.013,2.239,0,3.358a2.114,2.114,0,0,1-3.673,1.391,1.923,1.923,0,0,0-.223-.207,15.885,15.885,0,0,0-5.916-2.7,2.192,2.192,0,0,1-.761,1.685,2.555,2.555,0,0,1-1.772.522c-.1,1.242-.195,2.457-.293,3.673A2.1,2.1,0,0,1,6.869,22.56c-.156.042-.318.065-.477.1H6.251c-.068-.016-.135-.037-.2-.048a2.124,2.124,0,0,1-1.818-1.95q-.1-1.252-.2-2.5c-.1-1.326-.214-2.652-.311-3.978a.243.243,0,0,0-.2-.258A4.863,4.863,0,0,1,.2,10.569c-.091-.287-.133-.59-.2-.886V8.7A.5.5,0,0,0,.04,8.59,4.874,4.874,0,0,1,2.949,4.743a6.241,6.241,0,0,1,2.742-.5c.946-.009,1.9-.016,2.836-.116a19.877,19.877,0,0,0,5.589-1.417A10.641,10.641,0,0,0,17.587.567,1.9,1.9,0,0,1,18.177.2,5.2,5.2,0,0,1,18.9,0M16.862,2.917c-.356.2-.679.387-1.013.555A20.971,20.971,0,0,1,9.426,5.436c-.232.035-.267.117-.266.323.007,2.239,0,4.479,0,6.718,0,.434,0,.431.417.5A20.89,20.89,0,0,1,15.65,14.83c.4.2.8.42,1.213.641ZM2.219,7.035a.445.445,0,0,0,.083.027l1.127,0a.743.743,0,0,1,.71.371A.71.71,0,0,1,3.47,8.493c-.595.013-1.19.008-1.785,0-.163,0-.229.056-.229.212,0,.319,0,.638-.005.957-.005.193.087.23.259.228q.869-.013,1.738,0a.716.716,0,1,1,0,1.427c-.344.007-.689,0-1.033,0H2.13A3.4,3.4,0,0,0,4.684,12.69c.907.044,1.815.037,2.723.051.108,0,.215,0,.333,0V5.68c-.891,0-1.767,0-2.642,0a3.548,3.548,0,0,0-.606.054,3.832,3.832,0,0,0-2.273,1.3M19.7,9.19q0-3.431,0-6.863a1.785,1.785,0,0,0-.009-.258.694.694,0,0,0-.821-.612.86.86,0,0,0-.58.788q0,6.957,0,13.914c0,.031,0,.063,0,.094a.7.7,0,0,0,1.408-.012c0-.07,0-.141,0-.211q0-3.42,0-6.839M7.539,14.162H5.148c0,.051,0,.1.007.141q.123,1.591.246,3.181c.079,1.021.154,2.043.24,3.064a.707.707,0,0,0,1.413-.025c.012-.164.03-.327.043-.491q.185-2.374.369-4.748c.028-.365.049-.731.075-1.122m13.576-2.981a2.058,2.058,0,0,0,0-3.983ZM8.869,15.509c.72.1,1.053-.293,1-.922,0-.053-.056-.139-.1-.147-.258-.05-.519-.082-.81-.124l-.091,1.193" transform="translate(0.001 -0.33)" fill="#707070"/>
    </g>
  </g>
</svg>
