<svg id="Group_20687" data-name="Group 20687" xmlns="http://www.w3.org/2000/svg" width="12.379" height="12.379" viewBox="0 0 12.379 12.379">
  <g id="Group_20689" data-name="Group 20689" transform="translate(0.683)">
    <g id="Group_20688" data-name="Group 20688">
      <path id="Path_101381" data-name="Path 101381" d="M39.494,1.708a.484.484,0,0,0-.525.438l-.064.7a6.1,6.1,0,0,0-10.614.509.484.484,0,1,0,.861.44,5.14,5.14,0,0,1,8.943-.426l-.689-.492a.484.484,0,1,0-.562.787l2.091,1.493a.484.484,0,0,0,.763-.35l.235-2.576A.484.484,0,0,0,39.494,1.708Z" transform="translate(-28.237)" fill="#e1003e"/>
    </g>
  </g>
  <g id="Group_20691" data-name="Group 20691" transform="translate(0 7.13)">
    <g id="Group_20690" data-name="Group 20690">
      <path id="Path_101382" data-name="Path 101382" d="M11.433,296.154a.484.484,0,0,0-.651.211,5.14,5.14,0,0,1-8.943.426l.689.492a.484.484,0,1,0,.562-.787L1,295a.484.484,0,0,0-.763.35L0,297.928a.484.484,0,1,0,.963.088l.064-.7a6.1,6.1,0,0,0,10.614-.509A.484.484,0,0,0,11.433,296.154Z" transform="translate(-0.001 -294.913)" fill="#e1003e"/>
    </g>
  </g>
</svg>
