<svg xmlns="http://www.w3.org/2000/svg" width="11.668" height="11.668" viewBox="0 0 11.668 11.668">
  <g id="Icon_feather-copy" data-name="Icon feather-copy" transform="translate(-2.4 -2.4)">
    <path id="Path_83082" data-name="Path 83082" d="M14.547,13.5h4.711A1.047,1.047,0,0,1,20.3,14.547v4.711A1.047,1.047,0,0,1,19.257,20.3H14.547A1.047,1.047,0,0,1,13.5,19.257V14.547A1.047,1.047,0,0,1,14.547,13.5Z" transform="translate(-6.836 -6.836)" fill="none" stroke="#6e0d88" stroke-linecap="round" stroke-linejoin="round" stroke-width="1.2"/>
    <path id="Path_83083" data-name="Path 83083" d="M4.57,9.8H4.047A1.047,1.047,0,0,1,3,8.757V4.047A1.047,1.047,0,0,1,4.047,3H8.757A1.047,1.047,0,0,1,9.8,4.047V4.57" fill="none" stroke="#6e0d88" stroke-linecap="round" stroke-linejoin="round" stroke-width="1.2"/>
  </g>
</svg>
