<svg id="Icon_ionic-ios-information-circle-outline" data-name="Icon ionic-ios-information-circle-outline" xmlns="http://www.w3.org/2000/svg" width="12.8" height="12.8" viewBox="0 0 12.8 12.8">
  <path id="Path_78985" data-name="Path 78985" d="M16.552,11.313c0-.346.376-.6.828-.6s.836.258.836.6-.376.607-.836.607S16.552,11.659,16.552,11.313Zm.057,1.084h1.543v4.376H16.608Z" transform="translate(-10.983 -7.461)" fill="#6b6b6b"/>
  <path id="Path_78986" data-name="Path 78986" d="M9.775,4.237A5.536,5.536,0,1,1,5.858,5.858,5.5,5.5,0,0,1,9.775,4.237m0-.862a6.4,6.4,0,1,0,6.4,6.4,6.4,6.4,0,0,0-6.4-6.4Z" transform="translate(-3.375 -3.375)" fill="#6b6b6b"/>
</svg>
