<svg id="Group_21848" data-name="Group 21848" xmlns="http://www.w3.org/2000/svg" width="19" height="19" viewBox="0 0 19 19">
  <g id="Group_21834" data-name="Group 21834">
    <path id="Path_103187" data-name="Path 103187" d="M9.5,0A9.5,9.5,0,1,0,19,9.5,9.495,9.495,0,0,0,9.5,0ZM9.219,13.946a.963.963,0,0,1,0-1.926.963.963,0,0,1,0,1.926Zm1.426-4.864a1.571,1.571,0,0,0-.7,1.563c0,.238-.125.513-.738.513-.513,0-.688-.188-.688-.838a2.289,2.289,0,0,1,.838-1.9c.413-.35,1.113-.738,1.113-1.413,0-.575-.5-.85-1.125-.85-1.275,0-1,.963-1.676.963a.717.717,0,0,1-.75-.713c0-.675.775-1.676,2.463-1.676,1.6,0,2.664.888,2.664,2.063A3.2,3.2,0,0,1,10.644,9.082Z"/>
  </g>
</svg>
