<svg xmlns="http://www.w3.org/2000/svg" xmlns:xlink="http://www.w3.org/1999/xlink" width="19.559" height="19.534" viewBox="0 0 19.559 19.534">
  <defs>
    <clipPath id="clip-path">
      <rect id="Rectangle_8250" data-name="Rectangle 8250" width="19.559" height="19.534" fill="#6e0d88"/>
    </clipPath>
  </defs>
  <g id="Group_19854" data-name="Group 19854" clip-path="url(#clip-path)">
    <path id="Path_99846" data-name="Path 99846" d="M10.467,19.535H9.092c-.055-.013-.109-.029-.164-.037-.4-.06-.807-.1-1.2-.182a9.549,9.549,0,0,1-4.835-2.623,9.568,9.568,0,0,1-2.736-5.2C.091,11.149.05,10.8,0,10.459V9.087c.012-.055.028-.11.037-.166.071-.451.106-.91.215-1.351A9.644,9.644,0,0,1,5.545.978a9.439,9.439,0,0,1,5.85-.837A9.492,9.492,0,0,1,16.2,2.42a9.608,9.608,0,0,1,3.2,5.634c.062.342.1.688.153,1.032v1.373c-.029.219-.054.438-.086.657A9.814,9.814,0,0,1,11.5,19.382c-.342.062-.688.1-1.032.152M3.276,9.769A6.5,6.5,0,1,0,9.783,3.281,6.492,6.492,0,0,0,3.276,9.769" transform="translate(0 0)" fill="#6e0d88"/>
    <path id="Path_99847" data-name="Path 99847" d="M206.231,222.936a12.713,12.713,0,0,1,0-2.717h3.66a12.757,12.757,0,0,1,0,2.717Z" transform="translate(-198.284 -211.806)" fill="#6e0d88"/>
    <path id="Path_99848" data-name="Path 99848" d="M214.483,115.255H211.07c.118-.441.218-.866.347-1.281a4.379,4.379,0,0,1,.645-1.329c.49-.66.955-.666,1.441-.008a5.563,5.563,0,0,1,.845,2c.049.2.087.394.135.615" transform="translate(-203.007 -107.863)" fill="#6e0d88"/>
    <path id="Path_99849" data-name="Path 99849" d="M211.611,318.035H215c-.06.263-.109.514-.173.761a5.5,5.5,0,0,1-.709,1.714,2.471,2.471,0,0,1-.383.446.573.573,0,0,1-.866,0,2.435,2.435,0,0,1-.4-.478,6.9,6.9,0,0,1-.859-2.443" transform="translate(-203.527 -305.886)" fill="#6e0d88"/>
    <path id="Path_99850" data-name="Path 99850" d="M114.574,222.97h-2.451a5.479,5.479,0,0,1,0-2.718h2.453Z" transform="translate(-107.674 -211.838)" fill="#6e0d88"/>
    <path id="Path_99851" data-name="Path 99851" d="M331.371,223.105V220.4h2.473c.047.331.115.672.14,1.015a4.835,4.835,0,0,1-.135,1.568c-.014.054-.085.133-.131.134-.77.007-1.541,0-2.311,0a.079.079,0,0,1-.036-.013" transform="translate(-318.712 -211.979)" fill="#6e0d88"/>
    <path id="Path_99852" data-name="Path 99852" d="M303.9,318.042h2.243a5.609,5.609,0,0,1-3.168,2.821,9.054,9.054,0,0,0,.925-2.821" transform="translate(-291.401 -305.892)" fill="#6e0d88"/>
    <path id="Path_99853" data-name="Path 99853" d="M128.311,123.135h-2.22a5.554,5.554,0,0,1,3.112-2.8c-.178.46-.373.9-.52,1.363s-.246.942-.372,1.435" transform="translate(-121.274 -115.74)" fill="#6e0d88"/>
    <path id="Path_99854" data-name="Path 99854" d="M304.046,120.719a5.465,5.465,0,0,1,3.127,2.783h-2.242a9.587,9.587,0,0,0-.885-2.783" transform="translate(-292.431 -116.107)" fill="#6e0d88"/>
    <path id="Path_99855" data-name="Path 99855" d="M126.676,318.043h2.22a8.917,8.917,0,0,0,.9,2.772,5.328,5.328,0,0,1-3.123-2.772" transform="translate(-121.837 -305.893)" fill="#6e0d88"/>
  </g>
</svg>
