<svg xmlns="http://www.w3.org/2000/svg" width="20.991" height="24.834" viewBox="0 0 20.991 24.834">
  <path id="Path_102317" data-name="Path 102317" d="M18.57,7.633l.974-.974a.969.969,0,1,0-1.37-1.37l-.974.974a10.4,10.4,0,0,0-5.736-2.376V1.938H12.4A.969.969,0,0,0,12.4,0H8.59a.969.969,0,0,0,0,1.938h.937v1.95A10.495,10.495,0,1,0,18.57,7.633ZM10.5,22.9a8.558,8.558,0,1,1,8.558-8.558A8.567,8.567,0,0,1,10.5,22.9Zm4.49-13.047a.969.969,0,0,1,0,1.37l-3.8,3.8a.969.969,0,0,1-1.37-1.37l3.8-3.8A.969.969,0,0,1,14.985,9.849Zm0,0" fill="#fdec07"/>
</svg>
