<svg id="Group_21170" data-name="Group 21170" xmlns="http://www.w3.org/2000/svg" width="41.828" height="41.828" viewBox="0 0 41.828 41.828">
  <path id="Path_101390" data-name="Path 101390" d="M38.152,3.431H36.844V1.225a1.225,1.225,0,1,0-2.451,0V3.431H27.041V1.225a1.225,1.225,0,1,0-2.451,0V3.431H17.238V1.225a1.225,1.225,0,0,0-2.451,0V3.431H7.434V1.225a1.225,1.225,0,1,0-2.451,0V3.431H3.676A3.68,3.68,0,0,0,0,7.107V38.152a3.68,3.68,0,0,0,3.676,3.676H38.152a3.68,3.68,0,0,0,3.676-3.676V7.107A3.68,3.68,0,0,0,38.152,3.431Zm1.225,34.72a1.227,1.227,0,0,1-1.225,1.225H3.676a1.227,1.227,0,0,1-1.225-1.225V15.685H39.377Zm0-24.917H2.451V7.107A1.227,1.227,0,0,1,3.676,5.882H4.983V8.088a1.225,1.225,0,1,0,2.451,0V5.882h7.353V8.088a1.225,1.225,0,0,0,2.451,0V5.882H24.59V8.088a1.225,1.225,0,1,0,2.451,0V5.882h7.353V8.088a1.225,1.225,0,1,0,2.451,0V5.882h1.307a1.227,1.227,0,0,1,1.225,1.225Z" transform="translate(0 0)" fill="#6e1588"/>
  <g id="Group_20698" data-name="Group 20698" transform="translate(11.936 18.055)">
    <path id="Path_101391" data-name="Path 101391" d="M102.994,183.46a.613.613,0,0,0-.613.613v1.742a.613.613,0,1,0,1.225,0v-1.742A.613.613,0,0,0,102.994,183.46Z" transform="translate(-94.017 -168.473)" fill="#e1003e"/>
    <path id="Path_101392" data-name="Path 101392" d="M102.994,2.971a.613.613,0,0,0,.613-.613V.616a.613.613,0,0,0-1.225,0V2.358A.613.613,0,0,0,102.994,2.971Z" transform="translate(-94.017 -0.003)" fill="#e1003e"/>
    <path id="Path_101393" data-name="Path 101393" d="M31.4,159.893l-1.232,1.232a.613.613,0,0,0,.866.867l1.232-1.232a.613.613,0,1,0-.866-.867Z" transform="translate(-27.537 -146.667)" fill="#e1003e"/>
    <path id="Path_101394" data-name="Path 101394" d="M160.321,32.447a.611.611,0,0,0,.433-.179l1.232-1.232a.613.613,0,1,0-.866-.867L159.888,31.4a.613.613,0,0,0,.433,1.046Z" transform="translate(-146.661 -27.54)" fill="#e1003e"/>
    <path id="Path_101395" data-name="Path 101395" d="M2.967,103.008a.613.613,0,0,0-.613-.613H.613a.613.613,0,1,0,0,1.225H2.355A.613.613,0,0,0,2.967,103.008Z" transform="translate(0 -94.03)" fill="#e1003e"/>
    <path id="Path_101396" data-name="Path 101396" d="M185.808,102.4h-1.743a.613.613,0,1,0,0,1.225h1.743a.613.613,0,0,0,0-1.225Z" transform="translate(-168.465 -94.03)" fill="#e1003e"/>
    <path id="Path_101397" data-name="Path 101397" d="M31.405,32.269a.613.613,0,1,0,.866-.867L31.04,30.171a.613.613,0,0,0-.866.866Z" transform="translate(-27.544 -27.541)" fill="#e1003e"/>
    <path id="Path_101398" data-name="Path 101398" d="M160.761,159.893a.613.613,0,0,0-.867.866l1.231,1.232a.613.613,0,0,0,.867-.866Z" transform="translate(-146.667 -146.666)" fill="#e1003e"/>
    <path id="Path_101399" data-name="Path 101399" d="M56.285,51.518a4.769,4.769,0,1,0,4.769,4.769A4.774,4.774,0,0,0,56.285,51.518Zm0,8.313a3.544,3.544,0,1,1,3.544-3.544A3.547,3.547,0,0,1,56.285,59.831Z" transform="translate(-47.307 -47.309)" fill="#e1003e"/>
  </g>
</svg>
