<svg id="Group_21305" data-name="Group 21305" xmlns="http://www.w3.org/2000/svg" width="26.897" height="37.656" viewBox="0 0 26.897 37.656">
  <path id="Path_102431" data-name="Path 102431" d="M6,6.707V34.949c0,3.712,8.459,4.707,13.449,4.707s13.449-1,13.449-4.707V6.707C32.9,3,24.438,2,19.449,2S6,3,6,6.707Zm24.1,0c-.713.672-4.236,2.017-10.651,2.017S9.51,7.379,8.8,6.707c.726-.672,4.25-2.017,10.651-2.017S29.374,6.035,30.1,6.707ZM19.449,36.967c-6.724,0-10.275-1.452-10.759-2.111V9.72a30.421,30.421,0,0,0,10.759,1.695A30.421,30.421,0,0,0,30.208,9.72V34.855C29.723,35.514,26.173,36.967,19.449,36.967Z" transform="translate(-6 -2)" fill="#6e0d88"/>
  <path id="Path_102432" data-name="Path 102432" d="M22.919,9.76a40.642,40.642,0,0,1-10.382,0,1.358,1.358,0,0,0-.377,2.69,40.763,40.763,0,0,0,5.568.336,40.763,40.763,0,0,0,5.568-.363,1.358,1.358,0,0,0-.377-2.69Z" transform="translate(-4.279 0.662)" fill="#e1003e"/>
</svg>
