<svg id="Group_15681" data-name="Group 15681" xmlns="http://www.w3.org/2000/svg" xmlns:xlink="http://www.w3.org/1999/xlink" width="11.207" height="11.207" viewBox="0 0 11.207 11.207">
  <defs>
    <clipPath id="clip-path">
      <rect id="Rectangle_6136" data-name="Rectangle 6136" width="11.207" height="11.207" fill="#e1003e"/>
    </clipPath>
  </defs>
  <g id="Group_15680" data-name="Group 15680" transform="translate(0 0)" clip-path="url(#clip-path)">
    <path id="Path_79211" data-name="Path 79211" d="M136.6,3.69a2.653,2.653,0,0,1-.194.256q-1.487,1.55-2.979,3.1a.372.372,0,0,1-.441.131.383.383,0,0,1-.231-.4c0-.491,0-.982,0-1.468-.011-.009-.017-.018-.022-.018a4.545,4.545,0,0,0-2.185.345,3.921,3.921,0,0,0-1.863,1.77.4.4,0,0,1-.4.267.346.346,0,0,1-.322-.32,7.131,7.131,0,0,1,.13-1.866,4.7,4.7,0,0,1,4.564-3.571c.029,0,.058,0,.1,0V1.672c0-.4.007-.8,0-1.192a.45.45,0,0,1,.27-.479h.2a1.61,1.61,0,0,1,.191.148q1.5,1.555,3,3.114a2.416,2.416,0,0,1,.185.248Z" transform="translate(-125.392 -0.313)" fill="#e1003e"/>
    <path id="Path_79212" data-name="Path 79212" d="M0,86.288c.019-.067.038-.134.059-.2a1.447,1.447,0,0,1,1.365-1.032c.48-.006.96,0,1.44,0a.481.481,0,0,1,.5.486.476.476,0,0,1-.5.477H1.5a.482.482,0,0,0-.533.527q0,3.313,0,6.625a.474.474,0,0,0,.52.524h8.549a.474.474,0,0,0,.522-.522q0-1.873,0-3.746a.492.492,0,0,1,.272-.48.479.479,0,0,1,.648.225c.014.029.03.058.045.086V93.42a.435.435,0,0,0-.023.061A1.434,1.434,0,0,1,10.485,94.6c-.066.022-.135.038-.2.056H1.238a.241.241,0,0,0-.05-.021,1.372,1.372,0,0,1-.978-.68A3.7,3.7,0,0,1,0,93.42V86.288" transform="translate(-0.313 -83.451)" fill="#e1003e"/>
  </g>
</svg>
