<svg id="Group_21161" data-name="Group 21161" xmlns="http://www.w3.org/2000/svg" xmlns:xlink="http://www.w3.org/1999/xlink" width="14" height="14.51" viewBox="0 0 14 14.51">
  <defs>
    <clipPath id="clip-path">
      <rect id="Rectangle_5990" data-name="Rectangle 5990" width="14" height="14.51" fill="#e1003e"/>
    </clipPath>
  </defs>
  <g id="Group_15427" data-name="Group 15427" clip-path="url(#clip-path)">
    <path id="Path_79059" data-name="Path 79059" d="M0,12.7V2.862a.394.394,0,0,0,.025-.078A1.852,1.852,0,0,1,.56,1.656a1.915,1.915,0,0,1,1.509-.582c.206.008.412,0,.626,0,.015-.414-.1-.863.4-1.076h.283a.609.609,0,0,1,.4.681c-.011.125,0,.252,0,.386h6.449c0-.134.009-.261,0-.387a.608.608,0,0,1,.4-.681h.283a.658.658,0,0,1,.395.733c-.01.11,0,.222,0,.343.27,0,.52,0,.769,0A1.916,1.916,0,0,1,13.928,2.52c.032.122.049.247.072.371V12.7a1.093,1.093,0,0,0-.027.121,1.927,1.927,0,0,1-1.431,1.634c-.072.018-.142.039-.213.058H1.672a.32.32,0,0,0-.062-.027,1.9,1.9,0,0,1-1.532-1.4C.041,12.955.025,12.824,0,12.7M2.7,2.154c-.293,0-.567-.01-.839,0a.8.8,0,0,0-.332.107.854.854,0,0,0-.432.816q.005,4.711,0,9.421c0,.028,0,.057,0,.085a.843.843,0,0,0,.875.846q5.029,0,10.059,0a1,1,0,0,0,.3-.049.843.843,0,0,0,.573-.893q0-4.7,0-9.393c0-.047,0-.094,0-.142a.789.789,0,0,0-.662-.773,7.087,7.087,0,0,0-.937-.008c0,.17.005.344,0,.517a.541.541,0,0,1-.714.506.528.528,0,0,1-.36-.478c-.007-.186,0-.373,0-.559H3.775c0,.173,0,.337,0,.5a.541.541,0,0,1-.543.566A.55.55,0,0,1,2.7,2.651c0-.16,0-.32,0-.5" fill="#e1003e"/>
    <path id="Path_79060" data-name="Path 79060" d="M115.472,360.813a.676.676,0,1,1-.682-.671.686.686,0,0,1,.682.671" transform="translate(-110.885 -349.936)" fill="#e1003e"/>
    <path id="Path_79061" data-name="Path 79061" d="M219.765,265.982a.671.671,0,0,1-.68.665.675.675,0,1,1,.68-.665" transform="translate(-212.227 -257.778)" fill="#e1003e"/>
    <path id="Path_79062" data-name="Path 79062" d="M114.8,266.656a.675.675,0,1,1-.01-1.35.675.675,0,1,1,.01,1.35" transform="translate(-110.884 -257.787)" fill="#e1003e"/>
    <path id="Path_79063" data-name="Path 79063" d="M219.767,360.822a.677.677,0,0,1-.674.674.676.676,0,0,1,0-1.352.677.677,0,0,1,.67.678" transform="translate(-212.23 -349.937)" fill="#e1003e"/>
    <path id="Path_79064" data-name="Path 79064" d="M114.79,172a.671.671,0,1,1,.68-.667.673.673,0,0,1-.68.667" transform="translate(-110.884 -165.817)" fill="#e1003e"/>
    <path id="Path_79065" data-name="Path 79065" d="M322.911,360.819a.67.67,0,1,1,.67.676.672.672,0,0,1-.67-.676" transform="translate(-313.76 -349.937)" fill="#e1003e"/>
    <path id="Path_79066" data-name="Path 79066" d="M219.076,171.985a.671.671,0,1,1,.687-.655.664.664,0,0,1-.687.655" transform="translate(-212.226 -165.807)" fill="#e1003e"/>
    <path id="Path_79067" data-name="Path 79067" d="M322.905,171.313a.67.67,0,1,1,.673.671.666.666,0,0,1-.673-.671" transform="translate(-313.754 -165.805)" fill="#e1003e"/>
    <path id="Path_79068" data-name="Path 79068" d="M324.251,265.974a.67.67,0,1,1-1.341-.006.67.67,0,1,1,1.341.006" transform="translate(-313.759 -257.776)" fill="#e1003e"/>
  </g>
</svg>
