<svg xmlns="http://www.w3.org/2000/svg" width="33.861" height="33.861" viewBox="0 0 33.861 33.861">
  <g id="Group_21301" data-name="Group 21301" transform="translate(0)">
    <g id="Group_21260" data-name="Group 21260" transform="translate(0)">
      <path id="Path_102426" data-name="Path 102426" d="M27.966,0H17.181a5.9,5.9,0,0,0-5.894,5.9v5.392H5.9a5.9,5.9,0,0,0-5.9,5.9V27.967a5.9,5.9,0,0,0,5.9,5.894H16.68a5.9,5.9,0,0,0,5.894-5.9V22.574h5.392a5.9,5.9,0,0,0,5.9-5.9V5.9A5.9,5.9,0,0,0,27.966,0ZM20.317,27.966A3.641,3.641,0,0,1,16.679,31.6H5.9a3.641,3.641,0,0,1-3.638-3.638V17.181A3.641,3.641,0,0,1,5.9,13.545h5.392v3.134a5.9,5.9,0,0,0,5.9,5.9h3.134Zm0-7.649H17.182a3.641,3.641,0,0,1-3.638-3.638V13.545h3.134a3.641,3.641,0,0,1,3.638,3.638ZM31.6,16.679a3.641,3.641,0,0,1-3.638,3.638H22.574V17.182a5.9,5.9,0,0,0-5.9-5.9H13.545V5.9a3.641,3.641,0,0,1,3.638-3.638H27.967A3.641,3.641,0,0,1,31.6,5.9Z" fill="#6e0d88"/>
    </g>
  </g>
</svg>
