<svg xmlns="http://www.w3.org/2000/svg" width="38.089" height="38.724" viewBox="0 0 38.089 38.724">
  <g id="Group_20713" data-name="Group 20713" transform="translate(-2 -1)">
    <path id="Path_101403" data-name="Path 101403" d="M24.219,45.966h-1.27V39.745a.635.635,0,0,0-1.27,0v6.221H5.174V33.27h5.282a.635.635,0,1,0,0-1.27H4.539a.635.635,0,0,0-.635.635V45.966H2.635A.635.635,0,0,0,2,46.6v1.27a3.174,3.174,0,0,0,3.174,3.174H21.679a3.174,3.174,0,0,0,3.174-3.174V46.6A.635.635,0,0,0,24.219,45.966Zm-.635,1.9a1.9,1.9,0,0,1-1.9,1.9H20.41V49.14a.635.635,0,0,0-1.27,0v.635H7.713V49.14a.635.635,0,0,0-1.27,0v.635H5.174a1.9,1.9,0,0,1-1.9-1.9v-.635H23.584Z" transform="translate(0 -11.321)" fill="#6e1588"/>
    <path id="Path_101406" data-name="Path 101406" d="M49,40.539A2.539,2.539,0,1,0,51.539,38,2.539,2.539,0,0,0,49,40.539Zm3.809,0a1.27,1.27,0,1,1-1.27-1.27A1.27,1.27,0,0,1,52.809,40.539Z" transform="translate(-17.163 -13.512)" fill="#e1003e"/>
    <path id="Path_101407" data-name="Path 101407" d="M53.522,33H45.9A1.9,1.9,0,0,0,44,34.9v7.618a1.9,1.9,0,0,0,1.9,1.9h7.618a1.9,1.9,0,0,0,1.9-1.9v-1.27a.635.635,0,0,0-1.27,0v1.27a.635.635,0,0,1-.635.635H45.9a.635.635,0,0,1-.635-.635V34.9a.635.635,0,0,1,.635-.635h7.618a.635.635,0,0,1,.635.635v3.809a.635.635,0,0,0,1.27,0V34.9a1.9,1.9,0,0,0-1.9-1.9Z" transform="translate(-15.338 -11.686)" fill="#6e1588"/>
    <path id="Path_101408" data-name="Path 101408" d="M24.3,10.984a.631.631,0,0,0,.622.025l3.809-1.9a.635.635,0,0,0,0-1.13l-3.809-1.9a.635.635,0,0,0-.92.565v3.809A.635.635,0,0,0,24.3,10.984Zm.971-3.32,1.752.876-1.752.876Z" transform="translate(-8.034 -1.827)" fill="#e1003e"/>
    <path id="Path_101409" data-name="Path 101409" d="M23.713,12.427A5.713,5.713,0,1,0,18,6.713,5.713,5.713,0,0,0,23.713,12.427Zm0-10.157A4.444,4.444,0,1,1,19.27,6.713,4.444,4.444,0,0,1,23.713,2.27Z" transform="translate(-5.843)" fill="#6e1588"/>
    <path id="Path_101410" data-name="Path 101410" d="M36.635,20.809a.635.635,0,0,0,.508-.254l1.9-2.539a.635.635,0,1,0-1.016-.762l-1.9,2.539a.635.635,0,0,0,.508,1.016Z" transform="translate(-12.416 -5.843)" fill="#e1003e"/>
    <path id="Path_101411" data-name="Path 101411" d="M39.127,24.92a.635.635,0,0,0,.889.127l2.539-1.9a.635.635,0,0,0-.762-1.016l-2.539,1.9a.635.635,0,0,0-.127.889Z" transform="translate(-13.512 -7.669)" fill="#e1003e"/>
    <path id="Path_101412" data-name="Path 101412" d="M46.405,28.5a.635.635,0,0,0-.762-.508l-3.174.635A.638.638,0,0,0,42.6,29.9h.127l3.174-.635a.635.635,0,0,0,.508-.762Z" transform="translate(-14.569 -9.851)" fill="#e1003e"/>
    <path id="Path_101413" data-name="Path 101413" d="M2.635,22.427h7.618a.635.635,0,0,0,.635-.635V11.635A.635.635,0,0,0,10.253,11H2.635A.635.635,0,0,0,2,11.635V21.792A.635.635,0,0,0,2.635,22.427ZM3.27,12.27H9.618v8.887H3.27Z" transform="translate(28.567 -10)" fill="#6e1588"/>
    <path id="Path_101414" data-name="Path 101414" d="M9.9,15H8.635a.635.635,0,0,0,0,1.27H9.9A.635.635,0,0,0,9.9,15Z" transform="translate(26.376 -11.461)" fill="#e1003e"/>
    <path id="Path_101415" data-name="Path 101415" d="M9.174,19H6.635a.635.635,0,1,0,0,1.27H9.174a.635.635,0,0,0,0-1.27Z" transform="translate(27.106 -12.921)" fill="#e1003e"/>
    <path id="Path_101416" data-name="Path 101416" d="M9.174,23H6.635a.635.635,0,1,0,0,1.27H9.174a.635.635,0,0,0,0-1.27Z" transform="translate(27.106 -14.382)" fill="#e1003e"/>
    <path id="Path_101417" data-name="Path 101417" d="M26.229,26.619a.637.637,0,1,0-1.1.635l2.8,4.844L17.767,35.907h-.1l-1.651.952-1.1.635a1.268,1.268,0,0,1-1.733-.463l-1.27-2.2a1.27,1.27,0,0,1,.476-1.676l2.2-1.27,1.587,2.749a.637.637,0,1,0,1.1-.635l-1.638-2.831,7.967-6.57.26.451a.637.637,0,0,0,1.1-.635l-.635-1.1a.643.643,0,0,0-.959-.171L14.5,30.473l-2.7,1.562a2.539,2.539,0,0,0-1.168,2.876l-.635.362a1.9,1.9,0,0,0,.952,3.555,1.943,1.943,0,0,0,.952-.254l.635-.362a2.463,2.463,0,0,0,1.111.66,2.406,2.406,0,0,0,.667.089,2.5,2.5,0,0,0,1.27-.343l.552-.317,1.27,2.2a1.9,1.9,0,1,0,3.295-1.9l-1.155-2.012,9.522-3.574a.637.637,0,0,0,.33-.908ZM11.234,37.469a.634.634,0,1,1-.635-1.1l.552-.317.635,1.1Zm8.354,1.777a.634.634,0,0,1-1.1.635l-1.27-2.2,1.054-.6h.051Z" transform="translate(-2.569 -8.035)" fill="#e1003e"/>
  </g>
</svg>
