<svg id="Group_21899" data-name="Group 21899" xmlns="http://www.w3.org/2000/svg" width="20" height="20" viewBox="0 0 20 20">
  <g id="Group_21500" data-name="Group 21500">
    <g id="Group_21499" data-name="Group 21499">
      <path id="Path_102908" data-name="Path 102908" d="M19.219,13.75A.781.781,0,0,0,20,12.969V4.688a3.129,3.129,0,0,0-3.125-3.125H15.859V.781a.781.781,0,0,0-1.562,0v.781H10.742V.781a.781.781,0,0,0-1.562,0v.781H5.664V.781A.781.781,0,0,0,4.1.781v.781H3.125A3.129,3.129,0,0,0,0,4.688V16.875A3.129,3.129,0,0,0,3.125,20h13.75A3.129,3.129,0,0,0,20,16.875a.781.781,0,1,0-1.562,0,1.564,1.564,0,0,1-1.563,1.563H3.125a1.564,1.564,0,0,1-1.562-1.563V4.688A1.564,1.564,0,0,1,3.125,3.125H4.1v.781a.781.781,0,1,0,1.563,0V3.125H9.18v.781a.781.781,0,1,0,1.563,0V3.125H14.3v.781a.781.781,0,1,0,1.563,0V3.125h1.016a1.564,1.564,0,0,1,1.563,1.563v8.281A.781.781,0,0,0,19.219,13.75Z"/>
      <circle id="Ellipse_2084" data-name="Ellipse 2084" cx="1.081" cy="1.081" r="1.081" transform="translate(3.784 8.192)"/>
      <circle id="Ellipse_2087" data-name="Ellipse 2087" cx="1.081" cy="1.081" r="1.081" transform="translate(7.027 8.192)"/>
      <circle id="Ellipse_2088" data-name="Ellipse 2088" cx="1.081" cy="1.081" r="1.081" transform="translate(10.27 8.192)"/>
      <circle id="Ellipse_2089" data-name="Ellipse 2089" cx="1.081" cy="1.081" r="1.081" transform="translate(13.514 8.192)"/>
      <circle id="Ellipse_2090" data-name="Ellipse 2090" cx="1.081" cy="1.081" r="1.081" transform="translate(3.784 11.435)"/>
      <circle id="Ellipse_2091" data-name="Ellipse 2091" cx="1.081" cy="1.081" r="1.081" transform="translate(7.027 11.435)"/>
      <circle id="Ellipse_2092" data-name="Ellipse 2092" cx="1.081" cy="1.081" r="1.081" transform="translate(10.27 11.435)"/>
      <circle id="Ellipse_2093" data-name="Ellipse 2093" cx="1.081" cy="1.081" r="1.081" transform="translate(13.514 11.435)"/>
    </g>
  </g>
</svg>
