<svg id="Group_21293" data-name="Group 21293" xmlns="http://www.w3.org/2000/svg" xmlns:xlink="http://www.w3.org/1999/xlink" width="36.182" height="36.182" viewBox="0 0 36.182 36.182">
  <defs>
    <clipPath id="clip-path">
      <rect id="Rectangle_6390" data-name="Rectangle 6390" width="36.182" height="36.182" fill="#6e0d88"/>
    </clipPath>
  </defs>
  <g id="Group_16182" data-name="Group 16182" transform="translate(0 0)" clip-path="url(#clip-path)">
    <path id="Path_82958" data-name="Path 82958" d="M30.46,36.1H2.82A3.76,3.76,0,0,1,.808,34.969,4.1,4.1,0,0,1,0,33.28V17.345a4.128,4.128,0,0,1,2.049-2.681c.537-.356,1.036-.77,1.566-1.137a.587.587,0,0,0,.277-.551c-.01-2.219-.007-4.438-.005-6.657A3.327,3.327,0,0,1,7.379,2.824q7.027,0,14.054,0a.7.7,0,0,0,.577-.243A7.985,7.985,0,0,1,25.946.249c.395-.1.8-.167,1.2-.249h1.692a.679.679,0,0,0,.156.064A8.1,8.1,0,0,1,35.843,6.1c.107.4.173.819.257,1.229V8.955a1.659,1.659,0,0,0-.068.234,8.071,8.071,0,0,1-3.716,5.828c-.1.067-.206.131-.332.211a3.211,3.211,0,0,1,1.284,2.53q.02,7.555,0,15.111a3.263,3.263,0,0,1-2.148,3.02c-.218.081-.442.142-.663.213M20.794,4.254c-.111-.008-.167-.015-.224-.015q-6.644,0-13.288,0a2.237,2.237,0,0,0-.657.1A1.889,1.889,0,0,0,5.317,6.334c0,2.443.018,4.887.019,7.33,0,1.8-.018,3.594-.011,5.392a.7.7,0,0,0,.193.479q1.331,1.127,2.7,2.208a.925.925,0,0,0,.534.186q7.9.015,15.791,0a.87.87,0,0,0,.5-.176q1.352-1.073,2.674-2.185a.705.705,0,0,0,.215-.467c.023-.74.01-1.48.01-2.22v-.586a8.927,8.927,0,0,1-2.976-.575,2.054,2.054,0,0,0-.713-.135q-7.737-.011-15.473-.006a3.1,3.1,0,0,1-.352-.006.729.729,0,0,1-.65-.716.715.715,0,0,1,.67-.688c.14-.011.282-.009.423-.009H22.313c-.518-.737-1.038-1.443-1.516-2.176a.533.533,0,0,0-.518-.3q-5.745.013-11.49,0a1.911,1.911,0,0,1-.487-.049.694.694,0,0,1,.068-1.358,2.67,2.67,0,0,1,.456-.027H20.089a8.277,8.277,0,0,1,.7-6M12.838,27.365,3.017,34.582l.038.064H30.229l.018-.07-9.813-7.21c-.551.449-1.075.883-1.606,1.308a3.315,3.315,0,0,1-4.387,0c-.529-.427-1.054-.858-1.6-1.306M27.957,1.409A6.727,6.727,0,1,0,34.69,8.064a6.754,6.754,0,0,0-6.733-6.655M21.573,26.436l10.079,7.405a8,8,0,0,0,.2-1.228q.02-7.117.008-14.234c0-.088-.007-.175-.015-.333L21.573,26.436M1.639,33.829l10.062-7.4L1.438,18.057a1.374,1.374,0,0,0-.027.161q0,7.295.009,14.59a5.281,5.281,0,0,0,.22,1.02m8.592-10.449c.122.109.188.173.259.231q2.373,1.936,4.746,3.872a1.938,1.938,0,0,0,2.786.012q1.662-1.36,3.328-2.715c.549-.449,1.1-.9,1.708-1.4ZM3.872,15.093l-2,1.487,2,1.624ZM29.4,18.208l1.987-1.625c-.286-.22-.538-.426-.8-.612a.369.369,0,0,0-.263-.034c-.305.068-.606.153-.921.236Z" transform="translate(-0.021 -0.021)" fill="#6e0d88"/>
    <path id="Path_82959" data-name="Path 82959" d="M119.2,257.4q-4.019,0-8.037,0a.7.7,0,0,1-.746-.917.666.666,0,0,1,.623-.486c.094-.007.188,0,.282,0h15.828a2.7,2.7,0,0,1,.317.005.705.705,0,0,1,.017,1.394,2.6,2.6,0,0,1-.352.008H119.2" transform="translate(-102.619 -237.964)" fill="#6e0d88"/>
    <path id="Path_82960" data-name="Path 82960" d="M351.687,69.536c.8.792,1.533,1.517,2.264,2.248a.692.692,0,0,1,.207.767.6.6,0,0,1-.593.465,1.181,1.181,0,0,1-.673-.3c-.725-.685-1.418-1.4-2.163-2.148-.451.456-.891.9-1.333,1.35-.273.275-.545.551-.823.822a.725.725,0,0,1-1.089.087.718.718,0,0,1,.077-1.088c.713-.715,1.431-1.425,2.18-2.17-.362-.358-.71-.7-1.056-1.045-.4-.4-.8-.79-1.193-1.2a.709.709,0,1,1,1.009-.993c.744.734,1.474,1.481,2.226,2.239.732-.732,1.446-1.445,2.158-2.159a.79.79,0,0,1,.746-.3.712.712,0,0,1,.334,1.233c-.636.66-1.29,1.3-1.941,1.945a2.82,2.82,0,0,1-.336.244" transform="translate(-322.795 -61.456)" fill="#e1003e"/>
  </g>
</svg>
