<svg xmlns="http://www.w3.org/2000/svg" width="16.504" height="13.965" viewBox="0 0 16.504 13.965">
  <g id="Group_21409" data-name="Group 21409" transform="translate(-3 -5)">
    <path id="Path_102839" data-name="Path 102839" d="M18.522,19.46v2.253a1.273,1.273,0,0,1-1.27,1.27H9V19.174h5.713V16Z" transform="translate(-2.191 -4.017)" fill="#00ac47"/>
    <path id="Path_102840" data-name="Path 102840" d="M21.809,11v6.633L18,14.174V11Z" transform="translate(-5.478 -2.191)" fill="#31a950"/>
    <path id="Path_102841" data-name="Path 102841" d="M6.809,5V8.809H3Z" transform="translate(0 0)" fill="#ea4435"/>
    <path id="Path_102842" data-name="Path 102842" d="M3,11H6.809v6.983H3Z" transform="translate(0 -2.191)" fill="#4285f4"/>
    <path id="Path_102843" data-name="Path 102843" d="M18.522,6.27V8.809H18.2l-3.491,3.174V8.809H9V5h8.252A1.273,1.273,0,0,1,18.522,6.27Z" transform="translate(-2.191 0)" fill="#ffba00"/>
    <path id="Path_102844" data-name="Path 102844" d="M6.809,21v3.809H4.27A1.273,1.273,0,0,1,3,23.539V21Z" transform="translate(0 -5.843)" fill="#0066da"/>
    <path id="Path_102845" data-name="Path 102845" d="M24.983,7.9v9.826a.634.634,0,0,1-1.06.47l-2.114-1.923L18,12.808l3.491-3.174.317-.286,2.114-1.923a.634.634,0,0,1,1.06.47Z" transform="translate(-5.478 -0.826)" fill="#00ac47"/>
    <path id="Path_102846" data-name="Path 102846" d="M21.809,10.55v6.919L18,14.01l3.491-3.174Z" transform="translate(-5.478 -2.027)" fill="#188038"/>
  </g>
</svg>
