<svg id="Group_21928" data-name="Group 21928" xmlns="http://www.w3.org/2000/svg" width="41.749" height="37.001" viewBox="0 0 41.749 37.001">
  <path id="Path_102916" data-name="Path 102916" d="M158.355,200.953h15.076V203.4H158.355Zm0,0" transform="translate(-148.025 -187.708)" fill="#e1003e"/>
  <path id="Path_102917" data-name="Path 102917" d="M158.355,291.668h15.076v2.442H158.355Zm0,0" transform="translate(-148.025 -272.506)" fill="#e1003e"/>
  <path id="Path_102918" data-name="Path 102918" d="M41.749,5.8A7.879,7.879,0,0,0,26.689,2.558H4.868A4.874,4.874,0,0,0,0,7.426V23.058a4.874,4.874,0,0,0,4.868,4.869H6.186v6.992L16.63,27.927h13.6A4.874,4.874,0,0,0,35.1,23.058V13.58A7.892,7.892,0,0,0,41.749,5.8ZM30.227,25.484H15.888l-7.26,4.86v-4.86H4.868a2.429,2.429,0,0,1-2.426-2.426V7.426A2.428,2.428,0,0,1,4.868,5H26.032a7.88,7.88,0,0,0,6.621,8.581v9.476A2.429,2.429,0,0,1,30.227,25.484Zm3.644-14.251A5.436,5.436,0,1,1,39.307,5.8,5.442,5.442,0,0,1,33.871,11.233Zm0,0" transform="translate(0 2.082)" fill="#6e0d88"/>
  <path id="Path_102919" data-name="Path 102919" d="M500.5,74.387h2.443v5.781H500.5Zm0,0" transform="translate(-467.851 -69.398)" fill="#e1003e"/>
</svg>
