<svg xmlns="http://www.w3.org/2000/svg" width="15.003" height="15.003" viewBox="0 0 15.003 15.003">
  <g id="Icon_feather-copy" data-name="Icon feather-copy" transform="translate(-2.3 -2.3)">
    <path id="Path_79180" data-name="Path 79180" d="M14.86,13.5h6.121a1.36,1.36,0,0,1,1.36,1.36v6.121a1.36,1.36,0,0,1-1.36,1.36H14.86a1.36,1.36,0,0,1-1.36-1.36V14.86A1.36,1.36,0,0,1,14.86,13.5Z" transform="translate(-5.739 -5.739)" fill="none" stroke="#6e0d88" stroke-linecap="round" stroke-linejoin="round" stroke-width="1.4"/>
    <path id="Path_79181" data-name="Path 79181" d="M5.04,11.842H4.36A1.36,1.36,0,0,1,3,10.482V4.36A1.36,1.36,0,0,1,4.36,3h6.121a1.36,1.36,0,0,1,1.36,1.36v.68" transform="translate(0 0)" fill="none" stroke="#6e0d88" stroke-linecap="round" stroke-linejoin="round" stroke-width="1.4"/>
  </g>
</svg>
