<svg id="Group_21927" data-name="Group 21927" xmlns="http://www.w3.org/2000/svg" width="32.201" height="35.129" viewBox="0 0 32.201 35.129">
  <path id="Path_102911" data-name="Path 102911" d="M371.515,37.935a1.1,1.1,0,0,1-1.1-1.1A15.635,15.635,0,0,0,365.81,25.71a1.1,1.1,0,0,1,1.553-1.553,17.82,17.82,0,0,1,5.25,12.68A1.1,1.1,0,0,1,371.515,37.935Zm0,0" transform="translate(-340.412 -22.201)" fill="#e1003e"/>
  <path id="Path_102912" data-name="Path 102912" d="M1.1,37.953a1.1,1.1,0,0,1-1.1-1.1A17.81,17.81,0,0,1,5.252,24.177,1.1,1.1,0,0,1,6.8,25.73,15.624,15.624,0,0,0,2.2,36.856,1.1,1.1,0,0,1,1.1,37.953Zm0,0" transform="translate(0 -22.219)" fill="#e1003e"/>
  <path id="Path_102913" data-name="Path 102913" d="M160.157,422.587a5.5,5.5,0,0,1-5.489-5.489,1.1,1.1,0,1,1,2.2,0,3.293,3.293,0,0,0,6.587,0,1.1,1.1,0,0,1,2.2,0A5.5,5.5,0,0,1,160.157,422.587Zm0,0" transform="translate(-144.056 -387.458)" fill="#6e0d88"/>
  <path id="Path_102914" data-name="Path 102914" d="M48.045,90.347H23.894a2.562,2.562,0,0,1-1.666-4.508,9.81,9.81,0,0,0,3.5-7.512V74.246a10.246,10.246,0,0,1,20.492,0v4.081a9.807,9.807,0,0,0,3.481,7.5,2.56,2.56,0,0,1-1.651,4.518ZM35.969,66.2a8.059,8.059,0,0,0-8.051,8.05v4.081A12,12,0,0,1,23.659,87.5a.365.365,0,0,0-.132.281.37.37,0,0,0,.366.366H48.045a.37.37,0,0,0,.366-.366.361.361,0,0,0-.129-.278,12,12,0,0,1-4.262-9.18V74.246A8.059,8.059,0,0,0,35.969,66.2Zm0,0" transform="translate(-19.868 -59.609)" fill="#6e0d88"/>
  <path id="Path_102915" data-name="Path 102915" d="M219.766,6.587a1.1,1.1,0,0,1-1.1-1.1V1.1a1.1,1.1,0,1,1,2.2,0V5.489A1.1,1.1,0,0,1,219.766,6.587Zm0,0" transform="translate(-203.665)" fill="#6e0d88"/>
</svg>
