<svg xmlns="http://www.w3.org/2000/svg" width="15.7" height="15.444" viewBox="0 0 15.7 15.444">
  <path id="Path_101387" data-name="Path 101387" d="M3.813,14.167h.08l2.14-.2a1.29,1.29,0,0,0,.789-.372L14.9,5.521a1.992,1.992,0,0,0,0-2.833l-.518-.518a2.056,2.056,0,0,0-2.841,0L10.509,3.2h0L3.47,10.238a1.243,1.243,0,0,0-.365.789l-.2,2.14a.938.938,0,0,0,.263.73.9.9,0,0,0,.643.27Zm9.15-11.494a.884.884,0,0,1,.643.27l.518.518a.9.9,0,0,1,.27.643.889.889,0,0,1-.27.643l-.643.643-1.8-1.8.643-.643a.914.914,0,0,1,.643-.27Zm-8.77,8.456a.155.155,0,0,1,.051-.11L10.9,4.36l1.8,1.8L6.048,12.816a.305.305,0,0,1-.11.051l-1.92.175.175-1.92ZM16.95,16.5a.552.552,0,0,1-.548.548H1.8a.548.548,0,0,1,0-1.1H16.4A.552.552,0,0,1,16.95,16.5Z" transform="translate(-1.25 -1.6)" fill="#e1003e"/>
</svg>
