<svg xmlns="http://www.w3.org/2000/svg" width="14.191" height="14.191" viewBox="0 0 14.191 14.191">
  <path id="Icon_awesome-phone-alt" data-name="Icon awesome-phone-alt" d="M13.787,10.029l-3.1-1.33a.665.665,0,0,0-.776.191l-1.375,1.68A10.274,10.274,0,0,1,3.62,5.658L5.3,4.283a.664.664,0,0,0,.191-.776L4.16.4A.67.67,0,0,0,3.4.017L.516.682A.665.665,0,0,0,0,1.331,12.86,12.86,0,0,0,12.861,14.192a.665.665,0,0,0,.649-.516l.665-2.883a.673.673,0,0,0-.388-.765Z" transform="translate(0 0)" fill="#6e0d88"/>
</svg>
