<svg id="Group_21939" data-name="Group 21939" xmlns="http://www.w3.org/2000/svg" width="33.426" height="33.426" viewBox="0 0 33.426 33.426">
  <path id="Path_103043" data-name="Path 103043" d="M51.708,68.426a16.662,16.662,0,1,1,6.4-1.265,16.659,16.659,0,0,1-6.4,1.265Zm0-30.752a13.951,13.951,0,1,0,5.376,1.062A13.945,13.945,0,0,0,51.709,37.675Z" transform="translate(-35 -35)" fill="#6e0d88"/>
  <path id="Path_103044" data-name="Path 103044" d="M164.339,177.16a1.336,1.336,0,0,1-.945-2.283l11.347-11.347a1.337,1.337,0,1,1,1.891,1.891l-11.347,11.347a1.328,1.328,0,0,1-.945.392Z" transform="translate(-153.305 -153.433)" fill="#e1003e"/>
  <path id="Path_103045" data-name="Path 103045" d="M175.718,177.16a1.333,1.333,0,0,1-.945-.392l-11.347-11.347a1.337,1.337,0,1,1,1.891-1.891l11.347,11.347a1.336,1.336,0,0,1-.945,2.283Z" transform="translate(-153.336 -153.433)" fill="#e1003e"/>
</svg>
