<svg id="Layer_2" data-name="Layer 2" xmlns="http://www.w3.org/2000/svg" width="36.85" height="30.856" viewBox="0 0 36.85 30.856">
  <path id="Path_103041" data-name="Path 103041" d="M3.3,33.383a2.309,2.309,0,0,1-2.3-2.3V12.194A4.766,4.766,0,0,1,5.754,7.44H28.171a4.766,4.766,0,0,1,4.766,4.754V24.784a4.766,4.766,0,0,1-4.754,4.766H9.488a1.007,1.007,0,0,0-.59.2L4.685,32.928a2.322,2.322,0,0,1-1.388.454ZM5.754,9.9a2.309,2.309,0,0,0-2.3,2.3V30.779l3.968-3a3.488,3.488,0,0,1,2.064-.688H28.171a2.309,2.309,0,0,0,2.309-2.309V12.194a2.309,2.309,0,0,0-2.3-2.3Z" transform="translate(-1 -2.527)" fill="#6e0d88"/>
  <circle id="Ellipse_2086" data-name="Ellipse 2086" cx="1.228" cy="1.228" r="1.228" transform="translate(19.58 14.851)" fill="#e1003e"/>
  <circle id="Ellipse_2087" data-name="Ellipse 2087" cx="1.228" cy="1.228" r="1.228" transform="translate(14.814 14.851)" fill="#e1003e"/>
  <circle id="Ellipse_2088" data-name="Ellipse 2088" cx="1.228" cy="1.228" r="1.228" transform="translate(9.9 14.851)" fill="#e1003e"/>
  <path id="Path_103042" data-name="Path 103042" d="M35.48,21.865a1.228,1.228,0,0,1-1.228-1.228V8.194a2.309,2.309,0,0,0-2.3-2.3H7.228a1.228,1.228,0,1,1,0-2.457H31.955a4.766,4.766,0,0,1,4.754,4.754V20.637A1.228,1.228,0,0,1,35.48,21.865Z" transform="translate(0.142 -3.44)" fill="#e1003e"/>
</svg>
