<svg xmlns="http://www.w3.org/2000/svg" xmlns:xlink="http://www.w3.org/1999/xlink" width="340" height="703" viewBox="0 0 340 703">
  <defs>
    <clipPath id="clip-path">
      <rect x="411" width="340" height="703" fill="none"/>
    </clipPath>
  </defs>
  <g id="Scroll_Group_62" data-name="Scroll Group 62" transform="translate(-411)" clip-path="url(#clip-path)" style="mix-blend-mode: normal;isolation: isolate">
    <g id="Group_22000" data-name="Group 22000" transform="translate(339 -302)" opacity="0.226">
      <g id="Group_21999" data-name="Group 21999" transform="translate(-339 302)">
        <g id="Union_92" data-name="Union 92" transform="translate(751 703) rotate(180)" fill="none" opacity="0.28">
          <path d="M54.009,286.646H0v129.71H54.01C84.439,579.5,227.557,703,399.519,703,593.637,703,751,545.627,751,351.5S593.637,0,399.519,0C227.557,0,84.439,123.5,54.009,286.646Z" stroke="none"/>
          <path d="M 399.519287109375 3 C 378.5491027832031 3 357.5426940917969 4.87652587890625 337.0834045410156 8.5772705078125 C 317.1015930175781 12.1917724609375 297.3273010253906 17.6021728515625 278.3096923828125 24.65838623046875 C 259.6294860839844 31.5894775390625 241.4122009277344 40.20660400390625 224.1638793945312 50.27032470703125 C 207.1082763671875 60.2216796875 190.7752075195312 71.71820068359375 175.6185302734375 84.4404296875 C 160.5208129882812 97.11309814453125 146.400390625 111.1610717773438 133.6497192382812 126.194091796875 C 120.8519897460938 141.2824096679688 109.2728881835938 157.5532836914062 99.2340087890625 174.5548706054688 C 89.08392333984375 191.7445983886719 80.3740234375 209.909912109375 73.34613037109375 228.5462036132812 C 66.19268798828125 247.5154113769531 60.6790771484375 267.2478942871094 56.95849609375 287.1955871582031 L 56.5015869140625 289.6455078125 L 3 289.6455078125 L 3 413.3559875488281 L 56.501708984375 413.3559875488281 L 56.9586181640625 415.805908203125 C 60.67919921875 435.7533874511719 66.19281005859375 455.4857177734375 73.34619140625 474.4548034667969 C 80.3740234375 493.0908813476562 89.083984375 511.256103515625 99.23406982421875 528.44580078125 C 109.2730102539062 545.4472045898438 120.8521118164062 561.718017578125 133.6497192382812 576.8062133789062 C 146.4005126953125 591.8392333984375 160.5208740234375 605.8870849609375 175.6185913085938 618.5596923828125 C 190.7753295898438 631.2819213867188 207.1082763671875 642.7783813476562 224.1640014648438 652.7296752929688 C 241.4122009277344 662.7935180664062 259.6294860839844 671.4105834960938 278.3096923828125 678.3416137695312 C 297.3273010253906 685.3978271484375 317.1015930175781 690.8082275390625 337.0834045410156 694.4227294921875 C 357.5426940917969 698.1234741210938 378.5491943359375 700 399.519287109375 700 C 411.40771484375 700 423.3966979980469 699.3945922851562 435.1531066894531 698.2006225585938 C 446.7384948730469 697.0239868164062 458.3797912597656 695.2471923828125 469.7536010742188 692.9196166992188 C 492.1265869140625 688.3411865234375 514.1334838867188 681.5093994140625 535.1629028320312 672.6141967773438 C 555.8110961914062 663.8801879882812 575.7265625 653.06982421875 594.356201171875 640.4832153320312 C 612.8095092773438 628.0156860351562 630.1622314453125 613.697509765625 645.932373046875 597.9263916015625 C 661.7025756835938 582.1552734375 676.02001953125 564.8016357421875 688.48681640625 546.34716796875 C 701.0726318359375 527.7166748046875 711.8823852539062 507.8001098632812 720.6159057617188 487.1508178710938 C 729.5106201171875 466.1203002929688 736.3419189453125 444.1123046875 740.9201049804688 421.7380981445312 C 743.2474975585938 410.3638000488281 745.0241088867188 398.7218933105469 746.20068359375 387.135986328125 C 747.3945922851562 375.3789978027344 748 363.3894958496094 748 351.50048828125 C 748 339.6113891601562 747.3945922851562 327.6217956542969 746.20068359375 315.8646850585938 C 745.0241088867188 304.2785949707031 743.2474975585938 292.6366882324219 740.9201049804688 281.2622985839844 C 736.3419189453125 258.8879089355469 729.5106201171875 236.8797912597656 720.6159057617188 215.8492126464844 C 711.8823852539062 195.1997985839844 701.0726318359375 175.2830810546875 688.48681640625 156.652587890625 C 676.02001953125 138.1981811523438 661.7025756835938 120.844482421875 645.932373046875 105.0734252929688 C 630.1622314453125 89.30230712890625 612.8095092773438 74.98406982421875 594.356201171875 62.5166015625 C 575.7266845703125 49.92999267578125 555.8112182617188 39.11962890625 535.1629028320312 30.3856201171875 C 514.1334838867188 21.490478515625 492.126708984375 14.6588134765625 469.7536010742188 10.080322265625 C 458.3797912597656 7.7528076171875 446.7384948730469 5.97601318359375 435.1531066894531 4.79937744140625 C 423.3966979980469 3.60540771484375 411.40771484375 3 399.519287109375 3 M 399.519287109375 0 C 593.6370849609375 0 751 157.3720703125 751 351.50048828125 C 751 545.6268920898438 593.6370849609375 703 399.519287109375 703 C 227.557373046875 703 84.439208984375 579.5015258789062 54.009521484375 416.3559875488281 L 0 416.3559875488281 L 0 286.6455078125 L 54.0093994140625 286.6455078125 C 84.4390869140625 123.4984741210938 227.557373046875 0 399.519287109375 0 Z" stroke="none" fill="#6e0d88"/>
        </g>
        <ellipse id="Ellipse_1748" data-name="Ellipse 1748" cx="13.5" cy="13" rx="13.5" ry="13" transform="translate(505 28)" fill="#7c1896"/>
        <ellipse id="Ellipse_1750" data-name="Ellipse 1750" cx="13.5" cy="13" rx="13.5" ry="13" transform="translate(505 648)" fill="#7c1896"/>
        <rect id="Rectangle_6241" data-name="Rectangle 6241" width="69.656" height="14.412" rx="7.206" transform="translate(497.197 78.071) rotate(130)" fill="#7c1896"/>
        <rect id="Rectangle_6242" data-name="Rectangle 6242" width="69.655" height="14.411" rx="7.206" transform="translate(486.157 634.232) rotate(-130)" fill="#7c1896"/>
      </g>
    </g>
  </g>
</svg>
