<svg xmlns="http://www.w3.org/2000/svg" xmlns:xlink="http://www.w3.org/1999/xlink" width="411" height="703" viewBox="0 0 411 703">
  <defs>
    <clipPath id="clip-path">
      <rect width="411" height="703" fill="none"/>
    </clipPath>
  </defs>
  <g id="Scroll_Group_63" data-name="Scroll Group 63" clip-path="url(#clip-path)" style="mix-blend-mode: normal;isolation: isolate">
    <g id="Group_18470" data-name="Group 18470" transform="translate(-1314.999 -99.961)" opacity="0.23">
      <g id="Union_92" data-name="Union 92" transform="translate(1314.999 99.961)" fill="none" opacity="0.28">
        <path d="M54.009,416.354H0V286.644H54.01C84.439,123.5,227.557,0,399.519,0,593.637,0,751,157.373,751,351.5S593.637,703,399.519,703C227.557,703,84.439,579.5,54.009,416.354Z" stroke="none"/>
        <path d="M 399.519287109375 701 C 411.4413146972656 701 423.4642944335938 700.3928833007812 435.2540893554688 699.1954956054688 C 446.872802734375 698.0155029296875 458.547607421875 696.2335815429688 469.9541015625 693.8994140625 C 492.3918151855469 689.3076782226562 514.4622802734375 682.4561767578125 535.552490234375 673.535400390625 C 556.2601928710938 664.7761840820312 576.2329711914062 653.9346923828125 594.916015625 641.31201171875 C 613.4219970703125 628.8088989257812 630.8244018554688 614.4498291015625 646.6395874023438 598.6337280273438 C 662.4547729492188 582.817626953125 676.81298828125 565.414306640625 689.3154296875 546.9072265625 C 701.9373779296875 528.2230834960938 712.7783203125 508.2492065429688 721.5369262695312 487.5403137207031 C 730.457275390625 466.4490051269531 737.3084106445312 444.377197265625 741.8997802734375 421.9382019042969 C 744.23388671875 410.531005859375 746.015625 398.855712890625 747.1956176757812 387.2362976074219 C 748.3928833007812 375.44580078125 749 363.4222106933594 749 351.49951171875 C 749 339.576904296875 748.3928833007812 327.5534057617188 747.1956176757812 315.7630004882812 C 746.015625 304.143798828125 744.23388671875 292.468505859375 741.8997802734375 281.0614013671875 C 737.3084106445312 258.6225891113281 730.457275390625 236.5509948730469 721.5369262695312 215.4597015380859 C 712.7783203125 194.7509002685547 701.9373779296875 174.7769927978516 689.3154296875 156.0930023193359 C 676.81298828125 137.5859069824219 662.4547729492188 120.1826019287109 646.6395874023438 104.3665008544922 C 630.8244018554688 88.55039978027344 613.4219970703125 74.19129943847656 594.916015625 61.68820190429688 C 576.2329711914062 49.06539916992188 556.2601928710938 38.22389984130859 535.552490234375 29.46479988098145 C 514.4622802734375 20.54380035400391 492.3918151855469 13.6923999786377 469.9541015625 9.100700378417969 C 458.5474853515625 6.76639986038208 446.872802734375 4.984499931335449 435.2540893554688 3.804500102996826 C 423.4642944335938 2.607100009918213 411.4413146972656 2 399.519287109375 2 C 378.4895935058594 2 357.4233093261719 3.881900072097778 336.9053955078125 7.593299865722656 C 316.8659057617188 11.21819972991943 297.0344848632812 16.64430046081543 277.9619140625 23.72089958190918 C 259.2276916503906 30.67189979553223 240.9579925537109 39.31380081176758 223.6600036621094 49.40650177001953 C 206.5554962158203 59.38639831542969 190.1757049560547 70.91580200195312 174.9756011962891 83.67430114746094 C 159.8348999023438 96.38310241699219 145.6743011474609 110.4710998535156 132.8871002197266 125.5468978881836 C 120.0529022216797 140.6782989501953 108.4406967163086 156.9956970214844 98.37300109863281 174.0458068847656 C 88.19370269775391 191.2848968505859 79.45860290527344 209.5025024414062 72.41049957275391 228.1923980712891 C 65.23639678955078 247.2162933349609 59.70690155029297 267.005615234375 55.97560119628906 287.0107116699219 L 55.67100143432617 288.6440124511719 L 2 288.6440124511719 L 2 414.3544921875 L 55.6708984375 414.3544921875 L 55.97549819946289 415.98779296875 C 59.7067985534668 435.9931030273438 65.23629760742188 455.7825927734375 72.410400390625 474.8066101074219 C 79.45850372314453 493.4967041015625 88.193603515625 511.7142944335938 98.37290191650391 528.95361328125 C 108.4405975341797 546.0037841796875 120.0528030395508 562.3212890625 132.8869934082031 577.4526977539062 C 145.6741943359375 592.5286254882812 159.8347930908203 606.61669921875 174.9756011962891 619.3255004882812 C 190.1757049560547 632.0841064453125 206.5554046630859 643.613525390625 223.6600036621094 653.5933837890625 C 240.9579010009766 663.6860961914062 259.2276916503906 672.328125 277.9619140625 679.2791137695312 C 297.0343933105469 686.355712890625 316.8659057617188 691.7817993164062 336.9053955078125 695.4066772460938 C 357.4233093261719 699.1181030273438 378.4895935058594 701 399.519287109375 701 M 399.519287109375 703 C 227.5574035644531 703 84.43910217285156 579.5015258789062 54.0093994140625 416.3544921875 L 0 416.3544921875 L 0 286.6440124511719 L 54.00949859619141 286.6440124511719 C 84.43920135498047 123.4984970092773 227.5574035644531 0 399.519287109375 0 C 593.6370849609375 0 751 157.3730926513672 751 351.49951171875 C 751 545.6279296875 593.6370849609375 703 399.519287109375 703 Z" stroke="none" fill="#6e0d88"/>
      </g>
      <ellipse id="Ellipse_1748" data-name="Ellipse 1748" cx="13.5" cy="13" rx="13.5" ry="13" transform="translate(1533.999 127.961)" fill="#7c1896"/>
      <ellipse id="Ellipse_1750" data-name="Ellipse 1750" cx="13.5" cy="13" rx="13.5" ry="13" transform="translate(1533.999 747.961)" fill="#7c1896"/>
      <rect id="Rectangle_6241" data-name="Rectangle 6241" width="69.656" height="14.412" rx="7.206" transform="translate(1579.842 168.768) rotate(50)" fill="#7c1896"/>
      <rect id="Rectangle_6242" data-name="Rectangle 6242" width="69.655" height="14.411" rx="7.206" transform="translate(1568.803 724.929) rotate(-50)" fill="#7c1896"/>
    </g>
  </g>
</svg>
