<svg id="Group_21802" data-name="Group 21802" xmlns="http://www.w3.org/2000/svg" width="17.846" height="17.846" viewBox="0 0 17.846 17.846">
  <path id="Path_103186" data-name="Path 103186" d="M8.923,0a8.923,8.923,0,1,0,8.923,8.923A8.924,8.924,0,0,0,8.923,0Zm0,14.619a1.167,1.167,0,0,1-1.175-1.234A1.167,1.167,0,0,1,8.923,12.15,1.146,1.146,0,0,1,10.1,13.385,1.156,1.156,0,0,1,8.923,14.619Zm.463-4.714c-.178.606-.738.616-.924,0a22.341,22.341,0,0,1-.979-5.162c0-2.313,2.893-2.324,2.893,0A22.869,22.869,0,0,1,9.386,9.905Z" fill="#e1003e"/>
</svg>
