<svg xmlns="http://www.w3.org/2000/svg" width="17.434" height="17.434" viewBox="0 0 17.434 17.434">
  <path id="Path_103185" data-name="Path 103185" d="M16.072,11.3V4.086A1.364,1.364,0,0,0,14.71,2.724h-.885V3.4a.681.681,0,0,1-1.362,0V2.724h-3.1V3.4A.681.681,0,0,1,8,3.4V2.724H4.937V3.4a.681.681,0,0,1-1.362,0V2.724H2.724A1.364,1.364,0,0,0,1.362,4.086V14.71a1.364,1.364,0,0,0,1.362,1.362H14.71a1.364,1.364,0,0,0,1.362-1.362.681.681,0,0,1,1.362,0,2.727,2.727,0,0,1-2.724,2.724H2.724A2.727,2.727,0,0,1,0,14.71V4.086A2.727,2.727,0,0,1,2.724,1.362h.851V.681a.681.681,0,1,1,1.362,0v.681H8V.681a.681.681,0,0,1,1.362,0v.681h3.1V.681a.681.681,0,0,1,1.362,0v.681h.885a2.727,2.727,0,0,1,2.724,2.724V11.3a.681.681,0,1,1-1.362,0ZM4.937,7.15a.681.681,0,1,0-.681.681A.681.681,0,0,0,4.937,7.15Zm5.925,0a.681.681,0,1,0-.681.681A.681.681,0,0,0,10.862,7.15Zm2.281.681a.681.681,0,1,0-.681-.681A.681.681,0,0,0,13.143,7.831ZM4.937,10.113a.681.681,0,1,0-.681.681A.681.681,0,0,0,4.937,10.113Zm-.681,2.281a.681.681,0,1,0,.681.681A.681.681,0,0,0,4.256,12.394ZM7.9,7.15a.681.681,0,1,0-.681.681A.681.681,0,0,0,7.9,7.15Zm0,2.962a.681.681,0,1,0-.681.681A.681.681,0,0,0,7.9,10.113Zm-.681,2.281a.681.681,0,1,0,.681.681A.681.681,0,0,0,7.219,12.394Zm5.722-.383.778-.574a.36.36,0,0,0-.2-.643h-.966a.307.307,0,0,1-.321-.2l-.3-.935a.337.337,0,0,0-.641,0l-.3.935a.307.307,0,0,1-.32.2H9.7a.36.36,0,0,0-.2.643l.777.574a.335.335,0,0,1,.122.375l-.3.929a.337.337,0,0,0,.519.375l.794-.574a.338.338,0,0,1,.4,0l.794.574a.337.337,0,0,0,.519-.375l-.3-.929A.335.335,0,0,1,12.941,12.012Zm0,0" fill="#707070"/>
</svg>
