<svg id="add-on" xmlns="http://www.w3.org/2000/svg" width="18.417" height="18.417" viewBox="0 0 18.417 18.417">
  <path id="Path_99926" data-name="Path 99926" d="M10.208,2a8.208,8.208,0,1,0,8.208,8.208A8.208,8.208,0,0,0,10.208,2Zm4.1,9.029H11.029v3.283a.821.821,0,0,1-1.642,0V11.029H6.1a.821.821,0,1,1,0-1.642H9.387V6.1a.821.821,0,1,1,1.642,0V9.387h3.283a.821.821,0,1,1,0,1.642Z" transform="translate(-1 -1)" fill="#e10d3e"/>
  <path id="Path_99927" data-name="Path 99927" d="M10.208,19.417a9.208,9.208,0,1,1,9.208-9.208,9.208,9.208,0,0,1-9.208,9.208Zm0-16.742a7.534,7.534,0,1,0,7.534,7.534A7.534,7.534,0,0,0,10.208,2.674Z" transform="translate(-1 -1)" fill="#e10d3e"/>
</svg>
