<svg xmlns="http://www.w3.org/2000/svg" width="9.391" height="9.384" viewBox="0 0 9.391 9.384">
  <g id="arrow-dbl" transform="translate(-5.022 -5)">
    <path id="Exclusion_2" data-name="Exclusion 2" d="M4.7,9.384A.672.672,0,0,1,4.21,8.256L7.769,4.7,4.208,1.147a.671.671,0,0,1,0-.95.671.671,0,0,1,.95,0l4.037,4.03a.673.673,0,0,1,0,.951L5.157,9.207A.669.669,0,0,1,4.7,9.384Zm-4.03,0A.671.671,0,0,1,.18,8.256L3.74,4.7.179,1.147A.671.671,0,0,1,1.126.2l4.037,4.03a.673.673,0,0,1,0,.951L1.127,9.207A.669.669,0,0,1,.673,9.384Z" transform="translate(5.022 5)" fill="#e10d3e"/>
  </g>
</svg>
