<svg xmlns="http://www.w3.org/2000/svg" width="18.42" height="18.42" viewBox="0 0 18.42 18.42">
  <path id="help-circle" d="M12.585,3.375a9.21,9.21,0,1,0,9.21,9.21A9.209,9.209,0,0,0,12.585,3.375Zm-.19,13.461a.913.913,0,1,1,.952-.912A.925.925,0,0,1,12.395,16.836Zm1.78-4.291c-.77.447-1.032.775-1.032,1.342v.35H11.606l-.013-.381a1.843,1.843,0,0,1,1.045-1.948c.748-.447,1.063-.731,1.063-1.28a1.075,1.075,0,0,0-1.191-.952,1.12,1.12,0,0,0-1.187,1.089H9.751c.031-1.426,1.085-2.435,2.865-2.435,1.66,0,2.8.921,2.8,2.245A2.167,2.167,0,0,1,14.175,12.545Z" transform="translate(-3.375 -3.375)" fill="#e1003e"/>
</svg>
