<svg id="Group_20151" data-name="Group 20151" xmlns="http://www.w3.org/2000/svg" xmlns:xlink="http://www.w3.org/1999/xlink" width="26.964" height="26.964" viewBox="0 0 26.964 26.964">
  <defs>
    <clipPath id="clip-path">
      <rect id="Rectangle_2744" data-name="Rectangle 2744" width="26.964" height="26.964" fill="#e1243f"/>
    </clipPath>
  </defs>
  <g id="Group_9541" data-name="Group 9541" clip-path="url(#clip-path)">
    <path id="Path_74642" data-name="Path 74642" d="M98.24,0h11.015c0,1.564,0,3.128,0,4.692A2.9,2.9,0,0,0,112.267,7.7c1.564,0,3.128,0,4.692,0V24.5a1,1,0,0,0-.055.138,2.87,2.87,0,0,1-2.942,2.328H103.82c-.091,0-.181-.009-.312-.015a9.669,9.669,0,0,0,3.2-11.068,9.391,9.391,0,0,0-3.555-4.546,9.573,9.573,0,0,0-7.369-1.518c-.006-.1-.015-.18-.015-.259q0-3.355,0-6.711a2.793,2.793,0,0,1,.9-2.06A3.314,3.314,0,0,1,98.24,0m5.237,5.778c-.953,0-1.906-.007-2.859,0a.961.961,0,1,0,0,1.922c1.906.008,3.812,0,5.718,0a.94.94,0,0,0,.765-.355.9.9,0,0,0,.142-.985.938.938,0,0,0-.9-.584c-.953-.008-1.906,0-2.859,0m6.741,4.815c-.612,0-1.224,0-1.836,0a.967.967,0,1,0,0,1.926q1.836.006,3.671,0a.967.967,0,1,0,0-1.926c-.612,0-1.224,0-1.836,0m.933,6.743c.321,0,.642.007.963,0a.962.962,0,1,0,0-1.923q-.933-.015-1.866,0a.962.962,0,1,0,0,1.923c.3.008.6,0,.9,0m.021,2.888c-.311,0-.622-.008-.933,0a.961.961,0,1,0-.013,1.922c.632.014,1.264.012,1.9,0a.962.962,0,1,0-.017-1.923c-.311-.007-.622,0-.933,0" transform="translate(-89.995 0.001)" fill="#e1243f"/>
    <path id="Path_74643" data-name="Path 74643" d="M0,199.271A7.7,7.7,0,1,1,7.674,207,7.689,7.689,0,0,1,0,199.271M5.886,202.2a1.92,1.92,0,0,0,.55-.294c1.3-1.276,2.586-2.569,3.871-3.861a.9.9,0,0,0,.265-.852.963.963,0,0,0-1.653-.473q-1.394,1.388-2.783,2.782c-.354.354-.716.7-1.059,1.065a.894.894,0,0,0-.184,1.028,1.04,1.04,0,0,0,.992.6m-1.07-4.875a.962.962,0,1,0,1-.917.982.982,0,0,0-1,.917m4.82,4.857a.962.962,0,1,0-.969-.955.986.986,0,0,0,.969.955" transform="translate(0 -180.033)" fill="#e1243f"/>
    <path id="Path_74644" data-name="Path 74644" d="M356.332,16.043h-.215q-1.94,0-3.879,0a.951.951,0,0,1-1.028-1.03q0-1.94,0-3.879v-.208l5.123,5.118" transform="translate(-330.023 -10.266)" fill="#e1243f"/>
  </g>
</svg>
