<svg id="Group_22159" data-name="Group 22159" xmlns="http://www.w3.org/2000/svg" xmlns:xlink="http://www.w3.org/1999/xlink" width="24.149" height="24.125" viewBox="0 0 24.149 24.125">
  <defs>
    <clipPath id="clip-path">
      <rect id="Rectangle_11" data-name="Rectangle 11" width="24.149" height="24.125" fill="#e22546"/>
    </clipPath>
  </defs>
  <g id="Group_24" data-name="Group 24" clip-path="url(#clip-path)">
    <path id="Path_21" data-name="Path 21" d="M24.149,11.225v1.648a1.571,1.571,0,0,0-.043.2,11.617,11.617,0,0,1-1.852,5.475c-.343.53-.739,1.026-1.119,1.55.042.044.094.1.148.156.821.82,1.646,1.637,2.462,2.463a5.662,5.662,0,0,1,.4.51v.377a.98.98,0,0,1-.519.518h-12.4c-.279-.036-.558-.068-.836-.109a11.847,11.847,0,0,1-5.918-2.579A11.84,11.84,0,0,1,.187,14.194C.111,13.771.062,13.344,0,12.919V11.225c.015-.068.034-.135.045-.2C.148,10.4.2,9.759.357,9.147A12.045,12.045,0,0,1,16.558.889a11.717,11.717,0,0,1,7.4,9.061c.084.421.127.85.189,1.275M12.064,5.151a6.921,6.921,0,1,0,6.944,6.9,6.953,6.953,0,0,0-6.944-6.9" transform="translate(0 0)" fill="#e22546"/>
    <path id="Path_22" data-name="Path 22" d="M144.536,150.2a5.507,5.507,0,1,1,5.517-5.5,5.508,5.508,0,0,1-5.517,5.5m.708-4.093c0-.439,0-.877,0-1.316a.713.713,0,1,0-1.416-.006q0,1.328,0,2.655a.711.711,0,1,0,1.415.006c0-.446,0-.893,0-1.339m-.71-4.949a.722.722,0,0,0-.705.68.708.708,0,0,0,1.414.048.722.722,0,0,0-.709-.727" transform="translate(-132.462 -132.622)" fill="#e22546"/>
  </g>
</svg>
