<svg xmlns="http://www.w3.org/2000/svg" xmlns:xlink="http://www.w3.org/1999/xlink" width="22.185" height="22.127" viewBox="0 0 22.185 22.127">
  <defs>
    <clipPath id="clip-path">
      <rect id="Rectangle_8355" data-name="Rectangle 8355" width="22.185" height="22.127" fill="#e1243f"/>
    </clipPath>
  </defs>
  <g id="Group_20154" data-name="Group 20154" clip-path="url(#clip-path)">
    <path id="Path_99909" data-name="Path 99909" d="M.028,11.036c0-1.754-.061-3.511.016-5.262A5.6,5.6,0,0,1,2.824.859,6.534,6.534,0,0,1,6.154.007q4.937-.016,9.874,0a6.735,6.735,0,0,1,3.081.709,5.465,5.465,0,0,1,2.948,4.172,7.308,7.308,0,0,1,.12,1.261q.014,4.913,0,9.825a6.745,6.745,0,0,1-.663,2.982A5.456,5.456,0,0,1,17.268,22a8.5,8.5,0,0,1-1.42.123q-4.846.013-9.692,0a6.641,6.641,0,0,1-3.285-.825,5.435,5.435,0,0,1-2.73-4.068A11.205,11.205,0,0,1,.01,15.5C-.008,14.009,0,12.523,0,11.036H.028M14.355,8.421h2.831a.827.827,0,1,0,.025-1.649q-2.857-.012-5.714,0a.818.818,0,0,0-.873.854.828.828,0,0,0,.9.8q1.415,0,2.831,0m-.033,7.739v0c.969,0,1.939,0,2.908,0a.817.817,0,1,0,.014-1.633q-2.9-.007-5.79,0a.946.946,0,0,0-.44.12.81.81,0,0,0,.4,1.506c.969.008,1.939,0,2.908,0M5.829,7.3,5.7,7.288a1.348,1.348,0,0,0-.159-.238.831.831,0,0,0-1.2-.02.808.808,0,0,0,.033,1.179c.253.26.512.515.771.769a.814.814,0,0,0,1.222.014q1.24-1.218,2.461-2.455a.822.822,0,0,0,.011-1.184.837.837,0,0,0-1.188.034q-.842.827-1.67,1.668a1.236,1.236,0,0,0-.15.244m-.055,7.708c-.11-.1-.193-.192-.285-.27a.838.838,0,0,0-1.17.055.808.808,0,0,0,.039,1.142c.265.273.536.541.808.807a.807.807,0,0,0,1.166.027c.848-.828,1.684-1.669,2.519-2.51a.779.779,0,0,0,.192-.816.821.821,0,0,0-1.381-.324c-.63.617-1.248,1.247-1.888,1.888" transform="translate(0 0)" fill="#e1243f"/>
  </g>
</svg>
