<svg id="Group_20145" data-name="Group 20145" xmlns="http://www.w3.org/2000/svg" xmlns:xlink="http://www.w3.org/1999/xlink" width="25" height="23.97" viewBox="0 0 25 23.97">
  <defs>
    <clipPath id="clip-path">
      <rect id="Rectangle_2633" data-name="Rectangle 2633" width="25" height="23.97" fill="#e1243f"/>
    </clipPath>
  </defs>
  <g id="Group_9257" data-name="Group 9257" clip-path="url(#clip-path)">
    <path id="Path_74578" data-name="Path 74578" d="M90.762,0c.274.064.55.119.821.193a5.213,5.213,0,0,1-.81,10.2A5.212,5.212,0,0,1,89.483.046.451.451,0,0,0,89.59,0Z" transform="translate(-80.801)" fill="#e1243f"/>
    <path id="Path_74579" data-name="Path 74579" d="M328.759,265.454c-.02.052-.043.1-.058.155a1.826,1.826,0,0,1-1.746,1.347q-2.879.016-5.759,0a1.814,1.814,0,0,1-1.81-1.847q0-1.781,0-3.563a1.827,1.827,0,0,1,1.863-1.9c.063,0,.127-.009.215-.015,0-.481,0-.951,0-1.421a2.65,2.65,0,0,1,.687-1.874,2.609,2.609,0,0,1,2.787-.7,2.56,2.56,0,0,1,1.723,2.269c.027.567,0,1.136,0,1.718.2.019.368.025.532.053a1.789,1.789,0,0,1,1.513,1.37.751.751,0,0,0,.049.107Zm-5.713-5.819H325.1c0-.127,0-.239,0-.351,0-.447.019-.895-.013-1.339a1.029,1.029,0,0,0-2.038,0c-.032.557-.007,1.117-.007,1.695" transform="translate(-303.759 -242.995)" fill="#e1243f"/>
    <path id="Path_74580" data-name="Path 74580" d="M16.552,256.337a4.314,4.314,0,0,0-.4,1.895c0,.065-.091.159-.162.2a3.35,3.35,0,0,0-1.843,2.379,4.1,4.1,0,0,0-.077.8c-.008,1.073,0,2.147,0,3.259H.887A.785.785,0,0,1,0,263.981c0-1.2,0-2.408,0-3.612a4.945,4.945,0,0,1,4.888-4.876q4.466,0,8.932,0a4.772,4.772,0,0,1,2.73.845" transform="translate(0 -242.991)" fill="#e1243f"/>
  </g>
</svg>
