<svg id="Group_20153" data-name="Group 20153" xmlns="http://www.w3.org/2000/svg" xmlns:xlink="http://www.w3.org/1999/xlink" width="22.185" height="24.628" viewBox="0 0 22.185 24.628">
  <defs>
    <clipPath id="clip-path">
      <rect id="Rectangle_2743" data-name="Rectangle 2743" width="22.185" height="24.628" fill="#e1243f"/>
    </clipPath>
  </defs>
  <g id="Group_9539" data-name="Group 9539" clip-path="url(#clip-path)">
    <path id="Path_74641" data-name="Path 74641" d="M22.185,2.372V22.165c-.009.015-.024.029-.026.045a2.314,2.314,0,0,1-.679,1.424,2.391,2.391,0,0,1-2.507.629,4.385,4.385,0,0,1-.9-.443c-.212-.123-.414-.264-.628-.382A2.94,2.94,0,0,0,16,23.113a2.79,2.79,0,0,0-1.319.282c-.23.119-.445.266-.664.4a5.169,5.169,0,0,1-2.5.819,7.708,7.708,0,0,1-1-.015A4.767,4.767,0,0,1,8.7,24.1a6.894,6.894,0,0,1-.775-.458,3.065,3.065,0,0,0-1.783-.524,2.97,2.97,0,0,0-1.629.455c-.266.168-.538.327-.809.488a2.359,2.359,0,0,1-.993.322A2.379,2.379,0,0,1,.866,23.8,2.465,2.465,0,0,1,0,21.855q0-3.984,0-7.967Q0,8.315,0,2.743A2.446,2.446,0,0,1,.365,1.411,2.41,2.41,0,0,1,1.577.4,2.4,2.4,0,0,1,3.633.525c.275.147.541.312.805.479a3.35,3.35,0,0,0,.632.328,3.337,3.337,0,0,0,1.443.161A2.85,2.85,0,0,0,7.943.965a5.271,5.271,0,0,1,1-.556,4.77,4.77,0,0,1,1.43-.376c.325-.028.653-.025.98-.032a4.11,4.11,0,0,1,.972.113A5.488,5.488,0,0,1,14.27.979a3.242,3.242,0,0,0,.587.32,3.278,3.278,0,0,0,1.538.2,2.774,2.774,0,0,0,1.287-.447c.278-.176.558-.35.847-.509A2.357,2.357,0,0,1,20.786.48a2.382,2.382,0,0,1,1.343,1.739c.015.072.017.146.026.233l.03-.08M12.934,11.08q1.52,0,3.04,0a1.406,1.406,0,0,0,.35-.036,1.212,1.212,0,0,0,.923-1.327,1.229,1.229,0,0,0-1.205-1.1H9.875a1.485,1.485,0,0,0-.223.018,1.234,1.234,0,0,0-.339,2.326,1.392,1.392,0,0,0,.645.122h2.975m.051,2.464H11.916c-.684,0-1.367.007-2.051,0a1.247,1.247,0,0,0-1.215,1.5,1.268,1.268,0,0,0,1.219.968c2.056-.007,4.111,0,6.167,0a1.164,1.164,0,0,0,.94-.456,1.226,1.226,0,0,0-.231-1.777,1.3,1.3,0,0,0-.764-.235q-1.5,0-3,0M6.173,8.613a1.234,1.234,0,1,0,.016,2.468A1.24,1.24,0,0,0,7.4,9.87,1.223,1.223,0,0,0,6.173,8.613M6.128,16a1.231,1.231,0,1,0-1.2-1.3,1.218,1.218,0,0,0,1.2,1.3" transform="translate(0 -0.001)" fill="#e1243f"/>
  </g>
</svg>
