<svg id="Group_20973" data-name="Group 20973" xmlns="http://www.w3.org/2000/svg" xmlns:xlink="http://www.w3.org/1999/xlink" width="23.845" height="23.845" viewBox="0 0 23.845 23.845">
  <defs>
    <clipPath id="clip-path">
      <rect id="Rectangle_1720" data-name="Rectangle 1720" width="23.845" height="23.845" fill="#e1243f"/>
    </clipPath>
  </defs>
  <g id="Group_8531" data-name="Group 8531" clip-path="url(#clip-path)">
    <path id="Path_74176" data-name="Path 74176" d="M0,15.091v-.326a3.981,3.981,0,0,1,.174-.545q.455-.948.937-1.885a.859.859,0,0,0,0-.822A13.283,13.283,0,0,1,0,9.083V8.758c.013-.052.032-.1.04-.155A2.116,2.116,0,0,1,1.28,6.987c.543-.273,1.078-.561,1.625-.826a.871.871,0,0,0,.525-.675c.1-.573.216-1.143.3-1.717A2.16,2.16,0,0,1,6.162,1.906c.567.071,1.14.121,1.7.231a1.284,1.284,0,0,0,1.321-.391C9.544,1.351,9.963,1,10.361.64a2.225,2.225,0,0,1,3.125,0c.456.418.91.837,1.358,1.263a.936.936,0,0,0,.854.263c.7-.109,1.4-.2,2.11-.268a2.073,2.073,0,0,1,2.2,1.489c.165.653.281,1.319.386,1.985a1,1,0,0,0,.612.824c.529.247,1.041.527,1.562.79a2.071,2.071,0,0,1,.961.855,6.75,6.75,0,0,1,.316.867v.373a4,4,0,0,1-.175.546c-.3.632-.617,1.26-.937,1.884a.86.86,0,0,0,0,.822,13.31,13.31,0,0,1,1.113,2.43v.373a1.342,1.342,0,0,0-.046.152,2.121,2.121,0,0,1-1.23,1.57c-.542.274-1.076.562-1.624.825a.886.886,0,0,0-.534.694c-.1.565-.215,1.127-.3,1.693a2.161,2.161,0,0,1-2.442,1.87c-.567-.072-1.139-.122-1.7-.231a1.239,1.239,0,0,0-1.3.385c-.226.26-.513.472-.76.716a3.348,3.348,0,0,1-1.652,1.033h-.679a4.875,4.875,0,0,1-1-.478c-.565-.447-1.076-.958-1.605-1.447a.862.862,0,0,0-.743-.253c-.7.1-1.4.2-2.106.279a2.094,2.094,0,0,1-2.3-1.514c-.163-.653-.272-1.32-.384-1.984a.954.954,0,0,0-.566-.777c-.542-.256-1.07-.54-1.6-.813A1.889,1.889,0,0,1,.4,16.121a9.258,9.258,0,0,1-.4-1.03M17.41,7.418a.793.793,0,0,0-.766-.713.826.826,0,0,0-.588.28q-4.632,4.454-9.267,8.906a1.717,1.717,0,0,0-.148.153A.663.663,0,0,0,6.953,17.1a.766.766,0,0,0,.844-.242q3.628-3.493,7.262-6.98c.674-.647,1.354-1.289,2.017-1.947a2.837,2.837,0,0,0,.334-.51M9.069,10.768a2.574,2.574,0,0,0,2.612-2.519,2.621,2.621,0,0,0-5.238.018,2.567,2.567,0,0,0,2.626,2.5M17.4,15.6a2.621,2.621,0,0,0-5.238-.022A2.621,2.621,0,0,0,17.4,15.6" transform="translate(0 0)" fill="#e1243f"/>
    <path id="Path_74177" data-name="Path 74177" d="M163.392,154.766a1.193,1.193,0,0,1-1.2-1.14,1.2,1.2,0,0,1,2.4-.018,1.193,1.193,0,0,1-1.2,1.157" transform="translate(-154.334 -145.36)" fill="#e1243f"/>
    <path id="Path_74178" data-name="Path 74178" d="M281.467,311.857a1.175,1.175,0,0,1-1.163-1.165,1.2,1.2,0,0,1,2.4.045,1.179,1.179,0,0,1-1.234,1.12" transform="translate(-266.718 -295.124)" fill="#e1243f"/>
  </g>
</svg>
