<svg id="Group_20152" data-name="Group 20152" xmlns="http://www.w3.org/2000/svg" xmlns:xlink="http://www.w3.org/1999/xlink" width="22.185" height="29.148" viewBox="0 0 22.185 29.148">
  <defs>
    <clipPath id="clip-path">
      <rect id="Rectangle_2742" data-name="Rectangle 2742" width="22.185" height="29.148" fill="#e1243f"/>
    </clipPath>
  </defs>
  <g id="Group_9537" data-name="Group 9537" clip-path="url(#clip-path)">
    <path id="Path_74640" data-name="Path 74640" d="M14.433,0h.356c.005.009.009.026.015.027a1.236,1.236,0,0,1,.653.322q1.026.911,2.051,1.825c.166.148.328.3.5.449.092.08.15.075.244,0l.048-.043q.9-.79,1.793-1.579a1.31,1.31,0,0,1,.644-.327,1.2,1.2,0,0,1,1.022.294,1.1,1.1,0,0,1,.379.658,1.429,1.429,0,0,1,0,.231l.018,0,.031-.089V27.326L22.16,27.3a1.141,1.141,0,0,1-.24.713,1.21,1.21,0,0,1-1.714.232c-.184-.141-.359-.3-.533-.449-.452-.4-.9-.805-1.353-1.207-.179-.159-.216-.159-.394,0-.467.421-.931.843-1.4,1.262-.382.341-.757.691-1.155,1.013a1.147,1.147,0,0,1-1.348.122,2.561,2.561,0,0,1-.462-.35c-.556-.491-1.107-.988-1.659-1.483-.233-.209-.464-.42-.7-.628a.155.155,0,0,0-.225-.006c-.025.018-.048.038-.071.059-.364.329-.727.66-1.093.986-.478.426-.955.852-1.438,1.272a1.2,1.2,0,0,1-1.1.27,1.409,1.409,0,0,1-.617-.353q-1-.885-1.989-1.777c-.163-.146-.322-.295-.485-.44-.1-.089-.157-.088-.262,0l-.038.032c-.4.355-.794.712-1.194,1.065-.249.219-.492.448-.759.643a1.207,1.207,0,0,1-1.874-.677A2.5,2.5,0,0,1,0,26.989Q0,23.716,0,20.443V6.784Q0,5.347,0,3.91c0-.692,0-1.385.012-2.077A1.164,1.164,0,0,1,.586.84,1.183,1.183,0,0,1,2.025.946c.493.419.976.85,1.462,1.277.146.128.286.263.434.39.11.095.169.09.278-.009.051-.046.1-.1.151-.141L6.484.55c.092-.082.184-.163.281-.24A1.173,1.173,0,0,1,7.429.026L7.391,0h.356L7.729.021a1.214,1.214,0,0,1,.7.33Q9,.86,9.58,1.373c.461.412.92.826,1.381,1.238a.165.165,0,0,0,.262,0c.134-.12.266-.243.4-.363Q12.681,1.3,13.741.364a2.066,2.066,0,0,1,.287-.207A.96.96,0,0,1,14.46.024L14.433,0m-3.35,15.126v0h6.4a1.573,1.573,0,0,0,.205-.014.545.545,0,0,0,.012-1.081,4.39,4.39,0,0,0-.517-.014H4.979c-.165,0-.332,0-.5.013a.544.544,0,0,0,0,1.079c.171.017.345.012.518.012h6.08M11.1,18.16H4.541a.549.549,0,0,0,0,1.1c.158.008.317,0,.476,0H17.167c.154,0,.308.006.462,0a.55.55,0,1,0-.039-1.1q-3.246,0-6.493,0m-3.1-7.173h3.264c.066,0,.133,0,.2,0a.533.533,0,0,0,.488-.38.555.555,0,0,0-.207-.617.691.691,0,0,0-.42-.1H4.775c-.083,0-.166,0-.249,0a.548.548,0,0,0,.039,1.1H7.993" transform="translate(0)" fill="#e1243f"/>
  </g>
</svg>
