<svg xmlns="http://www.w3.org/2000/svg" width="18.417" height="18.416" viewBox="0 0 18.417 18.416">
  <g id="Group_20162" data-name="Group 20162" transform="translate(0 -0.001)">
    <path id="my-account" d="M9.208,0a9.208,9.208,0,1,0,9.208,9.208A9.208,9.208,0,0,0,9.208,0Zm0,2.753A3.046,3.046,0,1,1,6.163,5.8,3.046,3.046,0,0,1,9.208,2.754Zm0,13.255a6.758,6.758,0,0,1-4.4-1.623A1.3,1.3,0,0,1,4.35,13.4a3.072,3.072,0,0,1,3.087-3.071h3.544A3.067,3.067,0,0,1,14.062,13.4a1.3,1.3,0,0,1-.455.986A6.756,6.756,0,0,1,9.206,16.009Z" transform="translate(0 0)" fill="#e10d3e"/>
  </g>
</svg>
