<svg id="my-calendar" xmlns="http://www.w3.org/2000/svg" xmlns:xlink="http://www.w3.org/1999/xlink" width="18.42" height="17.204" viewBox="0 0 18.42 17.204">
  <defs>
    <clipPath id="clip-path">
      <rect id="Rectangle_7551" data-name="Rectangle 7551" width="18.42" height="17.204" fill="#e1003e"/>
    </clipPath>
  </defs>
  <g id="Group_18508" data-name="Group 18508" clip-path="url(#clip-path)">
    <path id="Path_85651" data-name="Path 85651" d="M0,141.6V130.71H18.12c.076,0,.152,0,.228.006l.05.033c0,.069.013.138.013.207,0,3.355-.013,6.71.009,10.065a1.931,1.931,0,0,1-1.893,1.894c-5.03.019-10.061.011-15.091.005a1.242,1.242,0,0,1-1.106-.6A6.091,6.091,0,0,1,0,141.6m13.525-1.255c.234,0,.469.008.7,0,.363-.014.493-.153.5-.5.01-.43.013-.862,0-1.292-.012-.372-.137-.53-.531-.538-.437-.009-.874-.005-1.311,0-.355,0-.49.133-.5.489-.007.462,0,.925,0,1.387a.424.424,0,0,0,.468.461c.222,0,.443,0,.665,0m.018-5.172v.01c.222,0,.444,0,.665,0,.381,0,.5-.154.518-.489.025-.442.013-.887,0-1.33a.475.475,0,0,0-.466-.517q-.722-.008-1.445,0a.44.44,0,0,0-.427.379q0,.776.009,1.552a.36.36,0,0,0,.362.392c.259.012.519,0,.779,0M7.8,134.027h0c0,.253,0,.507,0,.76a.472.472,0,0,0,.378.4c.5,0,1,0,1.5-.013a.421.421,0,0,0,.457-.468c.009-.456.008-.912,0-1.368a.456.456,0,0,0-.518-.5c-.45,0-.9.006-1.349,0a.452.452,0,0,0-.471.468c.008.24,0,.481,0,.722m0,5.13c0,.253-.005.507,0,.76a.418.418,0,0,0,.394.42q.76.01,1.52,0a.41.41,0,0,0,.411-.378q.016-.778,0-1.557a.413.413,0,0,0-.386-.391c-.519-.01-1.038-.01-1.557,0a.4.4,0,0,0-.384.421c0,.241,0,.481,0,.722m-4.53-5.142h0c0,.26,0,.52,0,.779a.465.465,0,0,0,.383.39c.474,0,.949-.011,1.423-.005a.523.523,0,0,0,.526-.5c.012-.456.013-.913,0-1.369a.454.454,0,0,0-.506-.47q-.675,0-1.35,0a.432.432,0,0,0-.479.471c0,.234,0,.469,0,.7m0,5.151h0c0,.254,0,.507,0,.761a.415.415,0,0,0,.4.41c.476.006.951.008,1.427,0a.483.483,0,0,0,.5-.456c.016-.494.01-.989,0-1.483a.415.415,0,0,0-.391-.387c-.52-.008-1.04-.008-1.559,0a.4.4,0,0,0-.377.408c0,.247,0,.495,0,.742" transform="translate(0 -125.724)" fill="#e1003e"/>
    <path id="Path_85652" data-name="Path 85652" d="M16.635,0h.038c.066.025.13.057.2.075a1.843,1.843,0,0,1,1.48,1.839c-.015.57,0,1.141,0,1.712,0,.054-.007.109-.011.171H.208C.139,3.8.069,3.8,0,3.806V1.37c.013-.019.034-.037.037-.057a1.707,1.707,0,0,1,.444-.9A1.6,1.6,0,0,1,1.256,0H1.37a.572.572,0,0,0,.139.036q.755,0,1.511,0A.576.576,0,0,0,3.16,0h.076c0,.582-.013,1.165-.012,1.747a.511.511,0,0,0,.486.537.553.553,0,0,0,.634-.516c.009-.589,0-1.179,0-1.768h.076a1.08,1.08,0,0,0,.2.036q4.333,0,8.665,0a1.08,1.08,0,0,0,.2-.036h.076q-.006.855-.011,1.71a.567.567,0,0,0,.013.173.547.547,0,0,0,.627.4.553.553,0,0,0,.476-.5c.011-.595,0-1.19,0-1.786h.076a.446.446,0,0,0,.121.036q.832,0,1.664,0A.425.425,0,0,0,16.635,0" fill="#e1003e"/>
    <path id="Path_85653" data-name="Path 85653" d="M124.821,0a1.08,1.08,0,0,1-.2.036q-4.333,0-8.665,0a1.08,1.08,0,0,1-.2-.036Z" transform="translate(-111.345)" fill="#e1003e"/>
    <path id="Path_85654" data-name="Path 85654" d="M388.105,0a.424.424,0,0,1-.119.037q-.832,0-1.664,0A.446.446,0,0,1,386.2,0Z" transform="translate(-371.47)" fill="#e1003e"/>
    <path id="Path_85655" data-name="Path 85655" d="M37.715,0a.576.576,0,0,1-.139.036q-.755,0-1.511,0A.572.572,0,0,1,35.926,0Z" transform="translate(-34.556)" fill="#e1003e"/>
    <path id="Path_85656" data-name="Path 85656" d="M481.008,130.9l.05.033-.05-.033" transform="translate(-462.66 -125.905)" fill="#e1003e"/>
  </g>
</svg>
