<svg xmlns="http://www.w3.org/2000/svg" width="18.42" height="18.425" viewBox="0 0 18.42 18.425">
  <path id="settings" d="M21.4,13.71A2.37,2.37,0,0,1,22.92,11.5,9.4,9.4,0,0,0,21.783,8.76a2.4,2.4,0,0,1-.964.206,2.365,2.365,0,0,1-2.163-3.329A9.367,9.367,0,0,0,15.921,4.5a2.368,2.368,0,0,1-4.423,0A9.4,9.4,0,0,0,8.76,5.637,2.365,2.365,0,0,1,6.6,8.966a2.324,2.324,0,0,1-.964-.206A9.6,9.6,0,0,0,4.5,11.5a2.37,2.37,0,0,1,0,4.423,9.4,9.4,0,0,0,1.137,2.739,2.366,2.366,0,0,1,3.123,3.123A9.45,9.45,0,0,0,11.5,22.925a2.364,2.364,0,0,1,4.413,0,9.4,9.4,0,0,0,2.739-1.137,2.368,2.368,0,0,1,3.123-3.123,9.45,9.45,0,0,0,1.137-2.739A2.382,2.382,0,0,1,21.4,13.71Zm-7.646,3.833a3.837,3.837,0,1,1,3.837-3.837A3.836,3.836,0,0,1,13.753,17.543Z" transform="translate(-4.5 -4.5)" fill="#e1003e"/>
</svg>
