<svg xmlns="http://www.w3.org/2000/svg" xmlns:xlink="http://www.w3.org/1999/xlink" width="18.42" height="15.627" viewBox="0 0 18.42 15.627">
  <defs>
    <clipPath id="clip-path">
      <rect id="Rectangle_5730" data-name="Rectangle 5730" width="18.42" height="15.627" fill="#e1003e"/>
    </clipPath>
  </defs>
  <g id="team" transform="translate(1)">
    <g id="Group_15215" data-name="Group 15215" transform="translate(-1)" clip-path="url(#clip-path)">
      <path id="Path_78874" data-name="Path 78874" d="M403.13,239.936a1.964,1.964,0,0,1-.4.83,1.444,1.444,0,0,1-1.027.526c-.82.025-1.641.012-2.462.014-.017,0-.033-.01-.017,0,.016-.332.043-.653.044-.974,0-1.51,0-3.02,0-4.53a4.729,4.729,0,0,0-.2-1.594.384.384,0,0,1,0-.1,5.987,5.987,0,0,1,2.574.286,2.62,2.62,0,0,1,1.453,1.973.379.379,0,0,0,.034.08Z" transform="translate(-384.71 -225.684)" fill="#e1003e"/>
      <path id="Path_78875" data-name="Path 78875" d="M0,236.487a5.486,5.486,0,0,1,.233-.747A2.579,2.579,0,0,1,2.5,234.167c.512-.038,1.029-.006,1.555-.006a.322.322,0,0,1,0,.1,4.415,4.415,0,0,0-.2,1.487c0,1.54,0,3.08,0,4.62,0,.321.028.642.044.973a.192.192,0,0,1-.053.007c-.767,0-1.534.011-2.3-.007A1.57,1.57,0,0,1,.037,240.1c-.01-.04-.024-.079-.037-.118v-3.49" transform="translate(0 -225.725)" fill="#e1003e"/>
      <path id="Path_78876" data-name="Path 78876" d="M141.139,204.515h-3.633c-.468,0-.651-.184-.651-.653,0-1.8-.006-3.609.009-5.414a2.641,2.641,0,0,1,2.161-2.463,3.365,3.365,0,0,1,.5-.043c1.139,0,2.278-.008,3.417.008a2.645,2.645,0,0,1,2.441,2.164,4.282,4.282,0,0,1,.043.608q0,2.563,0,5.126c0,.49-.178.666-.673.666h-3.615" transform="translate(-131.931 -188.89)" fill="#e1003e"/>
      <path id="Path_78877" data-name="Path 78877" d="M170.256,0a3.2,3.2,0,1,1-3.2,3.185A3.2,3.2,0,0,1,170.256,0" transform="translate(-161.05 0)" fill="#e1003e"/>
      <path id="Path_78878" data-name="Path 78878" d="M38.04,85.2a2.4,2.4,0,1,1-2.361-2.4,2.419,2.419,0,0,1,2.361,2.4" transform="translate(-32.051 -79.823)" fill="#e1003e"/>
      <path id="Path_78879" data-name="Path 78879" d="M347.892,82.8a2.395,2.395,0,1,1-2.386,2.4,2.4,2.4,0,0,1,2.386-2.4" transform="translate(-333.076 -79.822)" fill="#e1003e"/>
    </g>
  </g>
</svg>
