<svg id="website-meeting" xmlns="http://www.w3.org/2000/svg" xmlns:xlink="http://www.w3.org/1999/xlink" width="18.416" height="18.416" viewBox="0 0 18.416 18.416">
  <defs>
    <clipPath id="clip-path">
      <rect id="Rectangle_5980" data-name="Rectangle 5980" width="18.416" height="18.416" fill="#e1003e"/>
    </clipPath>
  </defs>
  <g id="Group_15411" data-name="Group 15411" clip-path="url(#clip-path)">
    <path id="Exclusion_1" data-name="Exclusion 1" d="M-281.436-433.367a.551.551,0,0,1-.45-.206.645.645,0,0,1-.085-.57c.4-1.519.772-2.9,1.13-4.226a.494.494,0,0,0-.038-.374,9.06,9.06,0,0,1-.752-5.583,8.844,8.844,0,0,1,2.121-4.37,8.992,8.992,0,0,1,5.237-2.944c.218-.039.442-.069.659-.1l.314-.043h1.259l.088.012c.071.01.151.021.229.03a8.988,8.988,0,0,1,4.6,1.851,8.992,8.992,0,0,1,3.4,5.606c.04.218.071.44.1.655v.008c.013.1.027.195.041.292v1.259l-.011.036a.757.757,0,0,0-.022.083c-.027.163-.051.33-.075.491-.05.346-.1.7-.186,1.046a9.088,9.088,0,0,1-8,6.792c-.264.021-.529.032-.79.032a9.119,9.119,0,0,1-3.974-.909.466.466,0,0,0-.207-.05.57.57,0,0,0-.15.022c-1.539.416-3.067.822-4.226,1.13A.833.833,0,0,1-281.436-433.367Zm7.485-12.69c-.791,0-1.519,0-2.224.008a1.542,1.542,0,0,0-1.588,1.611c0,1.235,0,2.488,0,3.723a1.544,1.544,0,0,0,1.578,1.62c.675.006,1.382.009,2.163.009.725,0,1.525,0,2.515-.008A1.549,1.549,0,0,0-270-440.167l.013-.036.021-.058.307.179c.222.13.432.253.651.37a.834.834,0,0,0,.4.1.773.773,0,0,0,.782-.773c.01-1.507.006-2.995,0-4.389a.735.735,0,0,0-.514-.71.762.762,0,0,0-.28-.055.845.845,0,0,0-.426.124c-.224.131-.448.26-.674.389l-.241.139a1.586,1.586,0,0,0-1.552-1.165c-.9,0-1.691-.007-2.421-.007Zm.1,5.8h-2.265c-.368,0-.5-.13-.5-.5v-1.329q0-1.16,0-2.321c0-.34.139-.48.479-.481h4.549c.367,0,.5.13.5.5q0,1.814,0,3.631c0,.369-.13.5-.5.5Zm4.857-.78h0l-.208-.119c-.23-.131-.448-.255-.667-.386a.185.185,0,0,1-.053-.138c0-.609,0-1.207,0-1.777a.194.194,0,0,1,.063-.148c.211-.128.421-.248.644-.375l.222-.127v3.071Z" transform="translate(282 451.782)" fill="#e1003e" stroke="rgba(0,0,0,0)" stroke-miterlimit="10" stroke-width="1"/>
  </g>
</svg>
