<svg xmlns="http://www.w3.org/2000/svg" xmlns:xlink="http://www.w3.org/1999/xlink" width="17.607" height="17.95" viewBox="0 0 17.607 17.95">
  <defs>
    <clipPath id="clip-path">
      <rect id="Rectangle_7599" data-name="Rectangle 7599" width="17.607" height="17.95" fill="#e1003e"/>
    </clipPath>
  </defs>
  <g id="add-ons1" opacity="0.3">
    <g id="Group_18490" data-name="Group 18490" clip-path="url(#clip-path)">
      <path id="Path_85773" data-name="Path 85773" d="M8.422,17.95l.144-.02v-.006a.143.143,0,0,0-.024,0,1.708,1.708,0,0,1-1.6-1.315,2.093,2.093,0,0,1-.058-.476q-.006-2.725,0-5.45a1.624,1.624,0,0,0-.06-.545,1.544,1.544,0,0,0-.341-.543c-.171-.186-.332-.381-.5-.573L4.535,7.329,3.16,5.725,1.4,3.671A2.132,2.132,0,0,1,.886,2.586a4.519,4.519,0,0,1-.015-.475A2.166,2.166,0,0,1,2.674.042,3.085,3.085,0,0,1,3.2,0Q9.577,0,15.957,0a3.894,3.894,0,0,1,.576.017,2.166,2.166,0,0,1,1.7,1.247,2.121,2.121,0,0,1,.2.914,2.138,2.138,0,0,1-.287,1.128,2.226,2.226,0,0,1-.221.318c-.225.272-.456.539-.685.807l-.658.769-.736.857q-.383.447-.766.894l-1.3,1.507q-.464.54-.926,1.081a3.893,3.893,0,0,0-.272.346,1.1,1.1,0,0,0-.174.625c0,.257,0,.513,0,.77q0,1.911,0,3.821a1.946,1.946,0,0,1-.109.663,1.6,1.6,0,0,1-.578.789,4.214,4.214,0,0,1-.535.305c-.565.286-1.133.567-1.7.849a1.762,1.762,0,0,1-.563.2c-.09.011-.182.01-.273.019l.177.023ZM9.653,1.5H6.747L3.08,1.5a.718.718,0,0,0-.527,1.218c.3.345.6.692.9,1.038q.582.675,1.165,1.349.543.631,1.085,1.263l1.971,2.3a3.054,3.054,0,0,1,.472.72,2.9,2.9,0,0,1,.248,1.216q0,2.731,0,5.462c0,.037,0,.074,0,.112a.254.254,0,0,0,.374.224c.13-.068.264-.13.4-.2.523-.26,1.045-.523,1.569-.78a.3.3,0,0,0,.181-.3q0-1.958,0-3.915c0-.341,0-.683.029-1.021a2.424,2.424,0,0,1,.515-1.3c.269-.344.56-.671.843-1q.641-.752,1.286-1.5c.24-.28.484-.556.724-.836.225-.262.446-.527.671-.788q.672-.78,1.347-1.557c.159-.184.324-.364.472-.556a.711.711,0,0,0-.475-1.145,2.182,2.182,0,0,0-.294,0H9.653" transform="translate(-0.829 0)" fill="#e1003e"/>
      <path id="Path_85774" data-name="Path 85774" d="M0,42.511c.006.085.017.171.018.256s-.011.143-.018.214v-.47" transform="translate(0 -40.506)" fill="#e1003e"/>
    </g>
  </g>
</svg>
