<svg xmlns="http://www.w3.org/2000/svg" xmlns:xlink="http://www.w3.org/1999/xlink" width="14.071" height="16.847" viewBox="0 0 14.071 16.847">
  <defs>
    <clipPath id="clip-path">
      <rect id="Rectangle_7601" data-name="Rectangle 7601" width="14.071" height="16.847" fill="#e1003e"/>
    </clipPath>
  </defs>
  <g id="add-ons3" opacity="0.3">
    <g id="Group_18494" data-name="Group 18494" clip-path="url(#clip-path)">
      <path id="Path_85781" data-name="Path 85781" d="M0,251.993c.034-.293.062-.586.1-.878a6.681,6.681,0,0,1,.861-2.648,3.053,3.053,0,0,1,2.691-1.526,1.238,1.238,0,0,1,.552.177c.247.129.475.295.711.444a3.858,3.858,0,0,0,2.386.647,3.966,3.966,0,0,0,1.777-.591,4.825,4.825,0,0,0,.551-.359,1.612,1.612,0,0,1,1.464-.251,3.153,3.153,0,0,1,2.162,1.7,6.474,6.474,0,0,1,.712,2.374,16.35,16.35,0,0,1,.1,1.851,2.671,2.671,0,0,1-2.215,2.645l-.35.07H2.573a.547.547,0,0,0-.106-.033,2.691,2.691,0,0,1-2.341-1.927C.07,253.5.042,253.3,0,253.111v-1.119m7.041,2.666h.709c1.137,0,2.275.013,3.411-.006a1.773,1.773,0,0,0,1.925-1.993,13.8,13.8,0,0,0-.1-1.441,5.619,5.619,0,0,0-.609-2.048,2.192,2.192,0,0,0-1.439-1.183.852.852,0,0,0-.819.136,3.452,3.452,0,0,1-.44.288,4.68,4.68,0,0,1-4.76.287c-.4-.194-.77-.462-1.156-.692a.388.388,0,0,0-.2-.067,1.965,1.965,0,0,0-1.456.655A3.729,3.729,0,0,0,1.356,250a9.32,9.32,0,0,0-.362,2.774,1.738,1.738,0,0,0,.729,1.537,2.23,2.23,0,0,0,1.315.346q2,0,4,0" transform="translate(-0.001 -238.798)" fill="#e1003e"/>
      <path id="Path_85782" data-name="Path 85782" d="M87.028,4.059A4.068,4.068,0,1,1,91.1,8.121a4.042,4.042,0,0,1-4.071-4.062m7.137,0a3.074,3.074,0,1,0-3.077,3.067,3.06,3.06,0,0,0,3.077-3.067" transform="translate(-84.159 0)" fill="#e1003e"/>
    </g>
  </g>
</svg>
