<svg xmlns="http://www.w3.org/2000/svg" xmlns:xlink="http://www.w3.org/1999/xlink" width="13.811" height="18" viewBox="0 0 13.811 18">
  <defs>
    <clipPath id="clip-path">
      <rect id="Rectangle_7600" data-name="Rectangle 7600" width="13.811" height="18" fill="#e1003e"/>
    </clipPath>
  </defs>
  <g id="add-ons2" opacity="0.3">
    <g id="Group_18492" data-name="Group 18492" clip-path="url(#clip-path)">
      <path id="Path_85775" data-name="Path 85775" d="M5.751,18H5.443l.062-.02c-.041-.005-.074-.007-.105-.014a.871.871,0,0,1-.4-.225q-.525-.465-1.05-.931c-.159-.141-.316-.285-.473-.428-.023-.021-.038-.022-.062,0q-.279.252-.561.5c-.206.181-.409.366-.622.538A.83.83,0,0,1,.9,16.938a1.66,1.66,0,0,1-.011-.32q0-4.12,0-8.241,0-3.529,0-7.059a1.342,1.342,0,0,1,0-.228A.829.829,0,0,1,2.2.553c.1.072.19.152.281.233q.467.412.931.826c.026.023.042.02.066,0Q3.99,1.149,4.505.689c.2-.174.39-.352.6-.515a.816.816,0,0,1,1.008,0c.081.063.159.129.236.2Q7.035.986,7.724,1.6c.022.019.036.032.065.006Q8.4,1.063,9.007.521c.133-.118.264-.237.4-.346a.822.822,0,0,1,1.023.008c.084.067.165.137.245.208q.679.607,1.356,1.215c.032.029.049.026.079,0Q12.685,1.1,13.259.6a.827.827,0,0,1,.654-.2.836.836,0,0,1,.707.656,1.135,1.135,0,0,1,.01.249q0,5.5,0,10.993,0,2.173,0,4.347a2.1,2.1,0,0,1,0,.245.835.835,0,0,1-1.012.694.974.974,0,0,1-.417-.234q-.545-.482-1.091-.965c-.027-.024-.042-.023-.069,0q-.28.257-.564.511-.466.416-.934.829a.822.822,0,0,1-.53.255l.065.021H9.75l.061-.017a.16.16,0,0,0-.024-.007.663.663,0,0,1-.369-.15c-.1-.079-.2-.161-.293-.246Q8.46,16.99,7.8,16.4c-.028-.025-.045-.029-.075,0q-.419.376-.841.749c-.239.212-.477.426-.719.634a.7.7,0,0,1-.462.2L5.751,18M1.717,1.23V16.762l.024-.019c.245-.216.489-.434.736-.649.159-.139.316-.281.483-.41a.785.785,0,0,1,.65-.145.944.944,0,0,1,.45.244L5.483,17.05l.119.1.047-.04q.363-.323.726-.646c.28-.248.558-.5.842-.741a.814.814,0,0,1,1-.061,3.588,3.588,0,0,1,.339.28q.552.488,1.1.981l.258.232.072-.065q.485-.434.971-.868c.191-.17.38-.34.576-.5a.81.81,0,0,1,.695-.183.892.892,0,0,1,.429.22l.84.737.3.264V1.234l-.044.035-.5.446c-.208.183-.414.369-.626.547a.827.827,0,0,1-1.093.011c-.076-.06-.149-.124-.221-.188L9.947.866C9.938.857,9.927.85,9.916.842L9.887.867q-.384.342-.769.684c-.271.24-.54.484-.816.718a.821.821,0,0,1-1.074.009c-.144-.116-.281-.24-.419-.363q-.556-.5-1.111-1L5.6.836,5.572.862c-.258.233-.515.466-.775.7s-.538.481-.813.715a.809.809,0,0,1-.695.184.951.951,0,0,1-.461-.243q-.4-.355-.8-.711L1.717,1.23" transform="translate(-0.854 0)" fill="#e1003e"/>
      <path id="Path_85776" data-name="Path 85776" d="M0,35.82c0,.029.008.057.008.086q0,1.4,0,2.8,0,2.1,0,4.2,0,2.118,0,4.236,0,2.074,0,4.148a.523.523,0,0,1-.007.06V35.82" transform="translate(0 -34.558)" fill="#e1003e"/>
      <path id="Path_85777" data-name="Path 85777" d="M391.824,51.025a.354.354,0,0,1-.006-.047q0-2,0-4,0-2.138,0-4.275,0-2.083,0-4.165,0-1.437,0-2.873c0-.03,0-.061.006-.091Z" transform="translate(-378.013 -34.318)" fill="#e1003e"/>
      <path id="Path_85778" data-name="Path 85778" d="M75.017,315.274h3.936a.51.51,0,0,1,.315.09.411.411,0,0,1,.1.552.427.427,0,0,1-.334.191,1.468,1.468,0,0,1-.149.01H71.152a1.28,1.28,0,0,1-.214-.019.41.41,0,0,1-.085-.782.731.731,0,0,1,.245-.04q1.959,0,3.919,0" transform="translate(-68.111 -304.166)" fill="#e1003e"/>
      <path id="Path_85779" data-name="Path 85779" d="M75.1,244.26h-3.91a.554.554,0,0,1-.342-.092.413.413,0,0,1-.009-.653.555.555,0,0,1,.314-.1c.019,0,.038,0,.057,0H79a.548.548,0,0,1,.353.1.416.416,0,0,1,.094.537.463.463,0,0,1-.427.206q-1.484,0-2.968,0H75.1" transform="translate(-68.19 -234.84)" fill="#e1003e"/>
      <path id="Path_85780" data-name="Path 85780" d="M73.2,172.386q-1.019,0-2.039,0a.512.512,0,0,1-.311-.089.413.413,0,0,1,0-.656.57.57,0,0,1,.354-.1q1.528,0,3.056,0c.307,0,.614,0,.92,0a.972.972,0,0,1,.239.028.408.408,0,0,1,.247.6.442.442,0,0,1-.415.217q-1.024,0-2.048,0" transform="translate(-68.194 -165.498)" fill="#e1003e"/>
    </g>
  </g>
</svg>
