<svg xmlns="http://www.w3.org/2000/svg" xmlns:xlink="http://www.w3.org/1999/xlink" width="16.61" height="16.582" viewBox="0 0 16.61 16.582">
  <defs>
    <clipPath id="clip-path">
      <rect id="Rectangle_7602" data-name="Rectangle 7602" width="16.61" height="16.582" fill="#e1003e"/>
    </clipPath>
  </defs>
  <g id="add-ons4" opacity="0.3">
    <g id="Group_18496" data-name="Group 18496" clip-path="url(#clip-path)">
      <path id="Path_85783" data-name="Path 85783" d="M16.61,6.059v.389a2.11,2.11,0,0,1-.689,1.1c-1.053,1.039-2.1,2.091-3.145,3.133a.394.394,0,0,0-.126.311c0,1.36,0,2.719,0,4.079a1.483,1.483,0,0,1-.464,1.116,1.69,1.69,0,0,1-.8.394H1.265A1.455,1.455,0,0,1,.3,15.99a4.772,4.772,0,0,1-.3-.671V1.266a.154.154,0,0,0,.022-.042A1.488,1.488,0,0,1,1.546,0C2.686.016,3.827,0,4.968,0c1.59,0,3.179,0,4.769,0a1.579,1.579,0,0,1,1.176.487q.617.62,1.239,1.236a1.609,1.609,0,0,1,.5,1.216c-.009,1.176,0,2.353,0,3.529v.2c.065-.06.1-.094.141-.131.424-.424.845-.85,1.273-1.271a1.447,1.447,0,0,1,2.267.145,3.12,3.12,0,0,1,.277.644m-4.931,5.77c-.139.064-.261.132-.39.176-.607.206-1.217.4-1.824.608a.507.507,0,0,1-.687-.681c.213-.621.413-1.246.63-1.865A1.013,1.013,0,0,1,9.633,9.7q.96-.976,1.936-1.936a.341.341,0,0,0,.113-.267c0-1.144,0-2.288,0-3.432v-.18H9.307a.489.489,0,0,1-.547-.549q0-1.093,0-2.185V.974H1.62c-.478,0-.646.166-.646.638q0,6.677,0,13.354c0,.476.167.644.64.644h9.422c.054,0,.108,0,.162,0a.487.487,0,0,0,.479-.493c0-1.1,0-2.19,0-3.287m.272-1.751,2.3-2.284-.642-.64-2.3,2.283.643.641M9.739,2.909H11.73a1.648,1.648,0,0,0-.206-.417c-.443-.463-.9-.912-1.358-1.363A.493.493,0,0,0,9.739.982Zm5.274,4.167.455-.461a.767.767,0,0,0,.053-.061.473.473,0,0,0-.021-.633.455.455,0,0,0-.629-.054c-.192.169-.355.37-.52.547l.662.662m-3.773,3.75-.668-.674a.855.855,0,0,0-.329.482c-.068.254-.164.5-.253.767.965-.278,1.053-.32,1.25-.575" transform="translate(0 0)" fill="#e1003e"/>
      <path id="Path_85784" data-name="Path 85784" d="M63.865,150.816q-1.7,0-3.4,0a.481.481,0,0,1-.487-.411.487.487,0,0,1,.358-.542.691.691,0,0,1,.176-.015h6.71a.487.487,0,1,1,0,.97H63.865" transform="translate(-58.024 -144.985)" fill="#e1003e"/>
      <path id="Path_85785" data-name="Path 85785" d="M62.891,210.7c-.81,0-1.62,0-2.43,0a.483.483,0,0,1-.134-.949.635.635,0,0,1,.175-.02h4.78a.487.487,0,1,1-.009.97H62.891" transform="translate(-58.029 -202.925)" fill="#e1003e"/>
      <path id="Path_85786" data-name="Path 85786" d="M62.89,270.584c-.81,0-1.62,0-2.43,0a.483.483,0,0,1-.137-.948.692.692,0,0,1,.191-.021h4.764a.487.487,0,1,1-.005.97H62.89" transform="translate(-58.025 -260.867)" fill="#e1003e"/>
      <path id="Path_85787" data-name="Path 85787" d="M62.96,329.49c.81,0,1.62,0,2.43,0a.483.483,0,0,1,.138.948.69.69,0,0,1-.191.021H60.573a.487.487,0,1,1,0-.97H62.96" transform="translate(-58.091 -318.801)" fill="#e1003e"/>
      <path id="Path_85788" data-name="Path 85788" d="M181.973,422.284c-.47,0-.939,0-1.409,0a.487.487,0,1,1,0-.97H183.4a.487.487,0,1,1,0,.97h-1.425" transform="translate(-174.197 -407.646)" fill="#e1003e"/>
    </g>
  </g>
</svg>
