<svg id="add-ons" xmlns="http://www.w3.org/2000/svg" width="22.598" height="22.62" viewBox="0 0 22.598 22.62">
  <g id="Group_20044" data-name="Group 20044" transform="translate(0 0)">
    <path id="Path_99898" data-name="Path 99898" d="M17.251,83.351h-6.2a2.9,2.9,0,0,1-1.285-.572.1.1,0,0,0-.155,0,2.911,2.911,0,0,1-1.285.572h-6.2c-.031-.052-.085-.044-.133-.053a2.426,2.426,0,0,1-1.517-.947A3.216,3.216,0,0,1,0,81.283V74.876a3.051,3.051,0,0,1,.567-1.155.087.087,0,0,0,0-.132A3,3,0,0,1,0,72.4V66c.049-.033.043-.087.054-.135a2.354,2.354,0,0,1,2.259-1.883c1.94-.029,3.882-.034,5.822,0a2.367,2.367,0,0,1,2.355,2.467c0,1.428.013,2.857,0,4.285a5.422,5.422,0,0,1-.224,2.342,2.527,2.527,0,0,1,.946-.225c1.958,0,3.916-.022,5.873.013a2.357,2.357,0,0,1,2.287,2.379q.008,2.848,0,5.7a2.419,2.419,0,0,1-1.689,2.294,1.582,1.582,0,0,0-.427.12m-12-17.761q-1.374,0-2.749,0a.81.81,0,0,0-.893.888q0,2.736,0,5.472a.806.806,0,0,0,.847.889q2.786.014,5.573,0a.8.8,0,0,0,.843-.867q0-2.761,0-5.523A.807.807,0,0,0,8,65.59q-1.374,0-2.749,0m-.01,8.878q-1.374,0-2.749,0a.808.808,0,0,0-.883.873q0,2.749,0,5.5a.808.808,0,0,0,.858.88q2.774.013,5.548,0a.808.808,0,0,0,.858-.879q0-2.749,0-5.5a.811.811,0,0,0-.883-.874q-1.374,0-2.749,0m8.891,0c-.9,0-1.8.023-2.7-.008a.878.878,0,0,0-.954.943c.016,1.79.006,3.581.007,5.371a.837.837,0,0,0,.946.946c.714,0,1.429,0,2.143,0,1.084,0,2.169,0,3.253,0a.823.823,0,0,0,.921-.868q.006-2.761,0-5.523a.807.807,0,0,0-.87-.861q-1.374,0-2.749,0" transform="translate(0 -60.731)" fill="#6e0d88"/>
    <path id="Path_99899" data-name="Path 99899" d="M250.471,8.446a4.993,4.993,0,0,1-.294.8,2.325,2.325,0,0,1-2.05,1.255q-2.9.042-5.8,0a2.4,2.4,0,0,1-2.347-2.412q-.006-2.837,0-5.673a2.359,2.359,0,0,1,2.277-2.39c1.966-.035,3.933-.03,5.9,0a2.351,2.351,0,0,1,2.259,1.883c.011.048,0,.1.054.134Zm-5.247-6.815q-1.374,0-2.749,0a.807.807,0,0,0-.882.873q0,2.749,0,5.5a.808.808,0,0,0,.858.879q2.774.013,5.548,0A.808.808,0,0,0,248.857,8q0-2.749,0-5.5a.811.811,0,0,0-.884-.873q-1.374,0-2.749,0" transform="translate(-227.873 0)" fill="#e1003e"/>
  </g>
</svg>
