<svg xmlns="http://www.w3.org/2000/svg" xmlns:xlink="http://www.w3.org/1999/xlink" width="354.428" height="161.17" viewBox="0 0 354.428 161.17">
  <defs>
    <clipPath id="clip-path">
      <rect id="Rectangle_7470" data-name="Rectangle 7470" width="354.428" height="161.17" transform="translate(0 0)" fill="none"/>
    </clipPath>
  </defs>
  <g id="dog" transform="translate(0 -0.001)" opacity="0.489">
    <g id="Group_18218" data-name="Group 18218" transform="translate(0 0.001)" clip-path="url(#clip-path)">
      <path id="Path_85540" data-name="Path 85540" d="M225.353,851.67c3.739,0,31.778,1.052,27.689,3.271,4.907,0,19.628-.467,22.081,1.168s-15.071,1.869-18.927,1.636c-4.206-.234-5.374.935-3.622,1.168s.234,1.4-4.44,1.168c-2.716-.136-19.893,4.227-92.31.01-29.574-1.722-55.412.082-57.467.02-4.907-.148-44.045-.849-47.433-.965s-16.123,0-14.487-.818,25.937-1.572,26.521-2.422.234-9.378,1.869-11.014,2.811,6.2,2.687,10.4c.584-10.515-1.636-39.839.7-43.227s6.075,19.628,5.374,38.438c1.752-6.893,4.907-12.034,6.893-12.968S78.029,852.6,76.16,855.409c9.23-2.337,40.131-4.313,28.665.035-9.4,2.389,42.508-.488,43.793-.956s45.2-2.13,49.526-.845-5.153-3.843-4.686-4.661,4.089-1.168,6.659,2.453c-1.4-3.271-2.22-7.36-1.869-8.061s3.271,2.921,3.972,5.958c.234-3.855-4.089-18.109-3.154-21.263s5.725,7.306,7.243,19.628c-.818-14.253-1.752-30.61,0-33.53s6.893,19.861,5.141,34.582c1.519-7.244,3.5-16.59,5.841-17.758s5.257,10.4,3.271,19.978c.584,1.753,1.636,3.038,1.986,1.051s2.8-11.1,5.608-12.5-.467,10.281-1.168,10.865-1.636,1.285-1.636,1.285" transform="translate(-33.229 -743.204)" fill="#e0e0e0"/>
      <path id="Path_85541" data-name="Path 85541" d="M3545.6,1149.171c0-9.674,2.667-17.516,5.957-17.516s5.957,7.842,5.957,17.516Z" transform="translate(-3246.286 -1036.121)" fill="#ced4d8"/>
      <path id="Path_85542" data-name="Path 85542" d="M3655.576,1185.262c0-7.836,2.16-14.188,4.825-14.188s4.825,6.352,4.825,14.188Z" transform="translate(-3346.974 -1072.213)" fill="#ced4d8"/>
      <path id="Path_85543" data-name="Path 85543" d="M2317.219,1727.711c-9.719,0-17.6,1.818-17.6,4.061s7.879,4.061,17.6,4.061,17.6-1.819,17.6-4.061-7.879-4.061-17.6-4.061" transform="translate(-2105.487 -1581.859)" fill="#e0e0e0"/>
      <path id="Path_85544" data-name="Path 85544" d="M2825.731,1777.053c-4.428,0-8.018,1.259-8.018,2.812s3.59,2.812,8.018,2.812,8.019-1.259,8.019-2.812-3.59-2.812-8.019-2.812" transform="translate(-2579.843 -1627.035)" fill="#e0e0e0"/>
      <path id="Path_85545" data-name="Path 85545" d="M2861.273,1233.552c7.707,0,13.954-1.492,13.954-3.332s-6.247-3.332-13.954-3.332-13.955,1.492-13.955,3.332,6.248,3.332,13.955,3.332" transform="translate(-2606.949 -1123.314)" fill="#ced4d8"/>
      <path id="Path_85546" data-name="Path 85546" d="M3251.084,1266.218c3.623,0,6.561-1.072,6.561-2.4s-2.937-2.4-6.561-2.4-6.561,1.072-6.561,2.4,2.938,2.4,6.561,2.4" transform="translate(-2970.622 -1154.939)" fill="#ced4d8"/>
      <path id="Path_85547" data-name="Path 85547" d="M1879.556,1257.454c15.989,0,28.95-2.425,28.95-5.415s-12.961-5.415-28.95-5.415-28.95,2.424-28.95,5.415,12.961,5.415,28.95,5.415" transform="translate(-1694.379 -1141.385)" fill="#e6e6e6"/>
      <path id="Path_85548" data-name="Path 85548" d="M1302.3,1291.3c9.2,0,16.662-1.166,16.662-2.6s-7.46-2.6-16.662-2.6-16.662,1.166-16.662,2.6,7.46,2.6,16.662,2.6" transform="translate(-1177.104 -1177.526)" fill="#ced4d8"/>
      <path id="Path_85549" data-name="Path 85549" d="M796.46,1355.177c-23.362,0-58.42,5.832-77.269,5.521-10.8-.178-22.84-1.564-35.615-1.564-44.918,0-81.33,6.947-81.33,15.516s36.413,15.516,81.33,15.516c24.106,0,45.6-2.557,60.488-5.738a30.828,30.828,0,0,1,9.8-.51,389.75,389.75,0,0,0,42.593,2.708c46.413,0,84.038-7.04,84.038-15.724s-37.625-15.724-84.038-15.724" transform="translate(-551.405 -1240.774)" fill="#e0e0e0"/>
      <path id="Path_85550" data-name="Path 85550" d="M535.816,1834.506c0,1.754-2.25,3.176-5.025,3.176s-5.025-1.422-5.025-3.176,2.25-3.176,5.025-3.176,5.025,1.422,5.025,3.176" transform="translate(-481.382 -1676.73)" fill="#e0e0e0"/>
      <path id="Path_85551" data-name="Path 85551" d="M528.425,1835.535c-2.891,0-5.243-1.523-5.243-3.394s2.352-3.394,5.243-3.394,5.243,1.523,5.243,3.394-2.352,3.394-5.243,3.394m0-6.352c-2.65,0-4.806,1.327-4.806,2.958s2.156,2.958,4.806,2.958,4.807-1.327,4.807-2.958-2.156-2.958-4.807-2.958" transform="translate(-479.015 -1674.365)" fill="#aab4ba"/>
      <path id="Path_85552" data-name="Path 85552" d="M369.957,1767.947a2.492,2.492,0,0,0,2.073-2.913c-.919-4.35-3.5-8.334-7.61-8.334-3.655,0-5.928.693-7.221,4.322-.779,2.187-1.822,6.248,1.874,6.665,3.258.367,7.532.882,10.882.26" transform="translate(-326.353 -1608.401)" fill="#e0e0e0"/>
      <path id="Path_85553" data-name="Path 85553" d="M363.957,1766.091a62.989,62.989,0,0,1-6.958-.519l-.305-.034a2.972,2.972,0,0,1-2.338-1.3c-.732-1.172-.637-3.073.282-5.652,1.331-3.736,3.731-4.467,7.426-4.467,4.443,0,6.954,4.394,7.823,8.507a2.56,2.56,0,0,1-.387,1.966,2.872,2.872,0,0,1-1.86,1.207,20.421,20.421,0,0,1-3.683.3m-1.892-11.538c-3.584,0-5.764.666-7.015,4.177-.872,2.447-.981,4.221-.323,5.274a2.56,2.56,0,0,0,2.017,1.1l.305.034c3.251.367,7.3.824,10.513.228h0a2.433,2.433,0,0,0,1.577-1.02,2.128,2.128,0,0,0,.323-1.633c-.833-3.945-3.214-8.161-7.4-8.161" transform="translate(-323.997 -1606.035)" fill="#aab4ba"/>
      <path id="Path_85554" data-name="Path 85554" d="M4074.978,1645.922a1.465,1.465,0,0,0,1.219-1.712c-.54-2.557-2.058-4.9-4.472-4.9-2.148,0-5.687,1.448-6.447,3.58-.458,1.285,1.132,2.631,3.305,2.876a23.537,23.537,0,0,0,6.4.153" transform="translate(-3722.017 -1500.923)" fill="#e0e0e0"/>
      <path id="Path_85555" data-name="Path 85555" d="M4070.467,1643.947a37.138,37.138,0,0,1-4.1-.306l-.177-.02a4.47,4.47,0,0,1-3.293-1.712,1.638,1.638,0,0,1-.193-1.454c.811-2.274,4.482-3.725,6.653-3.725,2.665,0,4.168,2.62,4.685,5.071a1.592,1.592,0,0,1-.241,1.224,1.777,1.777,0,0,1-1.151.748,12.075,12.075,0,0,1-2.182.175m-1.111-6.781c-2,0-5.506,1.37-6.242,3.435a1.2,1.2,0,0,0,.152,1.077,4.1,4.1,0,0,0,2.972,1.51l.177.02a22.552,22.552,0,0,0,6.154.135,1.34,1.34,0,0,0,.868-.561,1.159,1.159,0,0,0,.176-.891c-.483-2.284-1.854-4.725-4.258-4.725" transform="translate(-3719.647 -1498.557)" fill="#aab4ba"/>
      <path id="Path_85556" data-name="Path 85556" d="M3896.446,1627.321a2.492,2.492,0,0,0,2.073-2.913c-.918-4.35-3.5-8.334-7.609-8.334-3.655,0-9.676,2.464-10.969,6.092-.78,2.187,1.926,4.478,5.623,4.894,3.258.367,7.532.882,10.882.26" transform="translate(-3552.276 -1479.646)" fill="#e0e0e0"/>
      <path id="Path_85557" data-name="Path 85557" d="M3890.436,1625.466a63.052,63.052,0,0,1-6.958-.519l-.305-.034c-2.429-.274-4.584-1.39-5.491-2.843a2.635,2.635,0,0,1-.313-2.342c1.356-3.807,7.524-6.237,11.174-6.237,4.443,0,6.955,4.394,7.823,8.507a2.559,2.559,0,0,1-.387,1.966,2.872,2.872,0,0,1-1.86,1.206,20.444,20.444,0,0,1-3.684.3m-1.893-11.538c-3.441,0-9.49,2.372-10.764,5.947a2.212,2.212,0,0,0,.272,1.964c.839,1.345,2.869,2.381,5.17,2.64l.306.035c3.251.367,7.3.824,10.512.228a2.432,2.432,0,0,0,1.577-1.02,2.127,2.127,0,0,0,.323-1.634c-.833-3.945-3.214-8.161-7.4-8.161" transform="translate(-3549.908 -1477.281)" fill="#aab4ba"/>
      <path id="Path_85558" data-name="Path 85558" d="M98.785,1565.192a1.344,1.344,0,0,0,1.03-1.979,4.094,4.094,0,0,0-7-.035,1.344,1.344,0,0,0,1.05,1.981,27.416,27.416,0,0,0,4.921.034" transform="translate(-84.824 -1429.427)" fill="#e0e0e0"/>
      <path id="Path_85559" data-name="Path 85559" d="M94.291,1563.141c-1.021,0-2.045-.052-2.8-.13a1.575,1.575,0,0,1-1.24-.847,1.529,1.529,0,0,1,.023-1.458,4.312,4.312,0,0,1,7.382.038,1.562,1.562,0,0,1-1.2,2.3,21.582,21.582,0,0,1-2.163.1m2.118-.53.023.217-.023-.217a1.1,1.1,0,0,0,.87-.595,1.122,1.122,0,0,0-.008-1.063,3.876,3.876,0,0,0-6.62-.033,1.08,1.08,0,0,0-.015,1.044,1.14,1.14,0,0,0,.9.613,27.34,27.34,0,0,0,4.876.034" transform="translate(-82.47 -1427.062)" fill="#aab4ba"/>
      <path id="Path_85560" data-name="Path 85560" d="M10.395,1539.742a1.782,1.782,0,0,0,1.422-2.213A5.039,5.039,0,0,0,7.2,1533.5a4.961,4.961,0,0,0-4.514,3.682,2.11,2.11,0,0,0,1.816,2.746,24.725,24.725,0,0,0,5.9-.184" transform="translate(-2.36 -1404.04)" fill="#e0e0e0"/>
      <path id="Path_85561" data-name="Path 85561" d="M4.275,1537.874c-.755,0-1.493-.032-2.157-.1a2.344,2.344,0,0,1-1.743-1.059,2.287,2.287,0,0,1-.258-1.973,5.143,5.143,0,0,1,4.721-3.832,5.232,5.232,0,0,1,4.83,4.193,2,2,0,0,1-1.6,2.485h0a24.06,24.06,0,0,1-3.8.283m.563-6.525a4.716,4.716,0,0,0-4.307,3.533,1.853,1.853,0,0,0,.21,1.6,1.91,1.91,0,0,0,1.421.862A24.537,24.537,0,0,0,8,1537.161H8a1.563,1.563,0,0,0,1.247-1.941,4.8,4.8,0,0,0-4.408-3.871m3.2,6.027h0Z" transform="translate(0 -1401.674)" fill="#aab4ba"/>
      <path id="Path_85562" data-name="Path 85562" d="M1165.822,1123.99c-1.138-3.987-1.427-18.909-.951-23.124.989-8.771,2.8-9.858,3.84-1.45.577,4.666,1.082,15.947-1.729,24.573" transform="translate(-1066.332 -1001.337)" fill="#ced4d8"/>
      <path id="Path_85563" data-name="Path 85563" d="M1163.533,1121.842a.218.218,0,0,1-.21-.158c-1.167-4.09-1.412-19.19-.959-23.208.553-4.9,1.317-7.391,2.271-7.4.314,0,1.267-.006,2,5.944.643,5.206,1,16.26-1.738,24.668a.218.218,0,1,1-.415-.135c2.716-8.334,2.359-19.308,1.72-24.479-.667-5.4-1.475-5.561-1.567-5.561h0c-.39,0-1.217,1.48-1.84,7.009-.45,3.994-.212,18.987.945,23.039a.218.218,0,0,1-.15.27.214.214,0,0,1-.06.009" transform="translate(-1064.043 -998.971)" fill="#aab4ba"/>
      <path id="Path_85564" data-name="Path 85564" d="M1187.477,1387.125a10.407,10.407,0,0,1,6.479-6.361,3.44,3.44,0,0,1,1.566-.214,1.5,1.5,0,0,1,1.218.906,1.573,1.573,0,0,1-.589,1.647,4.819,4.819,0,0,1-1.684.766c-2.583.8-5.216,1.814-7.082,3.772" transform="translate(-1087.146 -1263.983)" fill="#ced4d8"/>
      <path id="Path_85565" data-name="Path 85565" d="M1185.019,1385.5a.218.218,0,0,1-.158-.368q.08-.084.162-.166a.218.218,0,0,1-.117-.271,10.664,10.664,0,0,1,6.616-6.5,3.706,3.706,0,0,1,1.667-.223,1.713,1.713,0,0,1,1.392,1.05,1.782,1.782,0,0,1-.656,1.887,4.9,4.9,0,0,1-1.726.8l-.033.01c-2.546.792-5.155,1.791-6.989,3.715a.217.217,0,0,1-.158.067m7.8-7.115a3.807,3.807,0,0,0-1.166.227,10.231,10.231,0,0,0-6.257,6,17.567,17.567,0,0,1,6.635-3.307l.033-.01a4.567,4.567,0,0,0,1.577-.715,1.367,1.367,0,0,0,.522-1.407,1.276,1.276,0,0,0-1.045-.762,2.034,2.034,0,0,0-.3-.021" transform="translate(-1084.78 -1261.622)" fill="#aab4ba"/>
      <path id="Path_85566" data-name="Path 85566" d="M1124.285,1301.59c-2.467-4.149-2.1-9.429-4.082-13.831-.133-.3-.35-.634-.674-.616s-.51.4-.6.719a12.533,12.533,0,0,0,4.89,13.659" transform="translate(-1024.047 -1178.482)" fill="#ced4d8"/>
      <path id="Path_85567" data-name="Path 85567" d="M1121.926,1299.444a.218.218,0,0,1-.188-.107l-.07-.119a.226.226,0,0,1-.03.063.219.219,0,0,1-.3.054,12.751,12.751,0,0,1-4.976-13.9c.2-.7.543-.864.8-.878.358-.018.654.231.885.745a28.524,28.524,0,0,1,1.741,6.369,22.743,22.743,0,0,0,2.33,7.441.218.218,0,0,1-.187.33M1117.192,1285h-.011c-.217.012-.345.356-.4.56a12.314,12.314,0,0,0,4.722,13.362,24.565,24.565,0,0,1-2.146-7.162,28.194,28.194,0,0,0-1.71-6.272c-.1-.224-.26-.488-.452-.488" transform="translate(-1021.687 -1176.118)" fill="#aab4ba"/>
      <path id="Path_85568" data-name="Path 85568" d="M1589.089,280.318a.322.322,0,0,1-.3-.434q.077-.209.155-.422a.322.322,0,0,1,.605.219q-.078.216-.156.427a.322.322,0,0,1-.3.21m.5-1.4a.322.322,0,0,1-.3-.426q.163-.478.324-.974a.322.322,0,1,1,.612.2q-.162.5-.328.984a.321.321,0,0,1-.3.218m.636-1.964a.322.322,0,0,1-.308-.416q.149-.485.294-.984a.322.322,0,1,1,.618.179q-.146.5-.3.993a.323.323,0,0,1-.308.228m.576-1.982a.322.322,0,0,1-.311-.407q.135-.491.265-.992a.322.322,0,1,1,.623.162q-.131.506-.268,1a.323.323,0,0,1-.31.237m.519-2a.322.322,0,0,1-.313-.4q.121-.5.238-1a.322.322,0,1,1,.627.144q-.117.508-.239,1.008a.322.322,0,0,1-.312.246m.463-2.012a.322.322,0,0,1-.315-.39q.108-.5.209-1.006a.322.322,0,1,1,.631.126q-.1.51-.211,1.015a.322.322,0,0,1-.314.254m.405-2.025a.317.317,0,0,1-.059-.005.322.322,0,0,1-.258-.375q.093-.5.179-1.012a.322.322,0,1,1,.635.108q-.087.512-.181,1.021a.322.322,0,0,1-.316.263m.345-2.036a.327.327,0,0,1-.049,0,.322.322,0,0,1-.269-.367q.078-.508.147-1.016a.322.322,0,0,1,.638.087q-.07.514-.149,1.026a.322.322,0,0,1-.318.273m.279-2.044-.038,0a.322.322,0,0,1-.281-.358q.061-.51.112-1.019a.322.322,0,0,1,.641.065q-.052.515-.114,1.031a.322.322,0,0,1-.319.284m.207-2.052h-.027a.322.322,0,0,1-.294-.347q.042-.513.073-1.023a.327.327,0,0,1,.341-.3.322.322,0,0,1,.3.341q-.031.516-.074,1.036a.322.322,0,0,1-.321.3m.126-2.06h-.013a.322.322,0,0,1-.309-.334q.021-.514.029-1.024a.322.322,0,0,1,.322-.317h.005a.322.322,0,0,1,.317.327q-.008.517-.029,1.039a.322.322,0,0,1-.321.309m.032-2.063a.322.322,0,0,1-.322-.319c0-.347-.011-.691-.024-1.023a.322.322,0,0,1,.31-.334.325.325,0,0,1,.333.31c.013.338.021.688.024,1.04a.322.322,0,0,1-.318.325Zm-.078-2.062a.322.322,0,0,1-.321-.3c-.023-.344-.052-.686-.086-1.017a.322.322,0,0,1,.641-.065c.034.339.064.688.088,1.039a.322.322,0,0,1-.3.343h-.022m-19.553-.223c-.225,0-.446-.007-.655-.021a.322.322,0,1,1,.042-.642q.468.031,1,.013a.322.322,0,1,1,.022.643q-.209.007-.408.007m1.425-.082a.322.322,0,0,1-.034-.642c.32-.034.658-.081,1-.137a.322.322,0,1,1,.1.635c-.358.059-.708.106-1.04.142l-.035,0m-3.08-.075a.325.325,0,0,1-.068-.007,4.847,4.847,0,0,1-1.047-.344.322.322,0,0,1,.275-.582,4.2,4.2,0,0,0,.908.3.322.322,0,0,1-.067.637m5.115-.254a.322.322,0,0,1-.065-.637c.321-.067.655-.144.994-.228a.322.322,0,1,1,.155.625c-.346.086-.688.164-1.017.233a.323.323,0,0,1-.066.007m2-.494a.322.322,0,0,1-.087-.632c.326-.092.653-.193.971-.3a.322.322,0,0,1,.2.611c-.328.109-.664.213-1,.308a.322.322,0,0,1-.088.012m-8.937-.159a.321.321,0,0,1-.231-.1,2.609,2.609,0,0,1-.605-.995.322.322,0,0,1,.61-.2,1.972,1.972,0,0,0,.457.751.322.322,0,0,1-.231.546m10.893-.494a.322.322,0,0,1-.117-.622c.316-.122.631-.254.937-.391a.322.322,0,1,1,.263.587c-.316.141-.641.277-.966.4a.32.32,0,0,1-.116.022m11.923-.271a.322.322,0,0,1-.318-.277c-.047-.338-.1-.676-.162-1a.322.322,0,1,1,.633-.117c.062.338.118.685.167,1.032a.322.322,0,0,1-.274.363.306.306,0,0,1-.045,0M1582.847,254a.322.322,0,0,1-.147-.608c.3-.154.6-.318.889-.486a.322.322,0,1,1,.324.556c-.3.174-.608.343-.92.5a.32.32,0,0,1-.146.035m-13.437-.553h-.014a.322.322,0,0,1-.308-.335,4.638,4.638,0,0,1,.186-1.089.322.322,0,1,1,.618.179,4.005,4.005,0,0,0-.162.937.322.322,0,0,1-.321.308m15.218-.486a.322.322,0,0,1-.178-.59c.282-.187.561-.383.827-.583a.322.322,0,0,1,.386.515c-.277.207-.565.411-.858.6a.32.32,0,0,1-.177.053m7.887-.418a.322.322,0,0,1-.313-.249c-.078-.336-.165-.666-.257-.981a.322.322,0,1,1,.618-.18c.1.326.185.668.266,1.015a.322.322,0,0,1-.24.387.327.327,0,0,1-.074.008m-6.238-.819a.322.322,0,0,1-.208-.567c.257-.218.51-.446.751-.677a.322.322,0,1,1,.446.464c-.251.241-.513.478-.78.7a.32.32,0,0,1-.208.076m-16.323-.252a.322.322,0,0,1-.291-.46,9.033,9.033,0,0,1,.518-.936.322.322,0,0,1,.545.343,8.365,8.365,0,0,0-.481.869.322.322,0,0,1-.291.184m21.98-.908a.322.322,0,0,1-.3-.212c-.117-.323-.243-.638-.375-.936a.322.322,0,1,1,.588-.261c.138.312.27.641.392.978a.322.322,0,0,1-.3.431m-4.172-.268a.322.322,0,0,1-.237-.54c.227-.247.449-.5.659-.766a.322.322,0,0,1,.5.4c-.219.272-.45.54-.686.8a.321.321,0,0,1-.237.1m-16.717-.572a.322.322,0,0,1-.254-.518c.21-.272.438-.545.679-.811a.322.322,0,1,1,.477.433c-.229.253-.447.512-.646.771a.321.321,0,0,1-.255.125m18.01-1.034a.322.322,0,0,1-.263-.507c.193-.274.379-.559.552-.845a.322.322,0,0,1,.551.334c-.181.3-.375.6-.576.881a.322.322,0,0,1-.264.137m2.041-.008a.322.322,0,0,1-.283-.168c-.162-.3-.337-.585-.518-.856a.322.322,0,1,1,.534-.359c.193.287.378.592.55.907a.322.322,0,0,1-.282.476m-18.666-.487a.322.322,0,0,1-.223-.555c.25-.239.515-.476.786-.7a.322.322,0,0,1,.413.494c-.26.217-.514.444-.754.674a.321.321,0,0,1-.222.089m17.514-1.218a.321.321,0,0,1-.247-.115,8.665,8.665,0,0,0-.68-.724.322.322,0,0,1,.443-.467c.175.166.346.342.511.525.105-.215.206-.432.3-.649a.322.322,0,1,1,.591.255c-.138.32-.29.64-.451.952a.328.328,0,0,1-.3.174.321.321,0,0,1-.171.049m-15.932-.107a.322.322,0,0,1-.191-.581c.281-.206.573-.407.866-.6a.322.322,0,1,1,.348.541c-.283.182-.563.375-.834.574a.321.321,0,0,1-.19.062m1.735-1.116a.322.322,0,0,1-.157-.6c.306-.171.62-.334.934-.484a.322.322,0,1,1,.278.581c-.3.144-.6.3-.9.465a.32.32,0,0,1-.157.041m12.7-.189a.321.321,0,0,1-.191-.063,7.945,7.945,0,0,0-.831-.536.322.322,0,1,1,.314-.562,8.611,8.611,0,0,1,.9.58.322.322,0,0,1-.191.581m2.493-.53a.322.322,0,0,1-.3-.428c.112-.318.212-.642.3-.963a.322.322,0,0,1,.621.169c-.091.335-.2.674-.313,1.007a.322.322,0,0,1-.3.215m-13.334-.171a.322.322,0,0,1-.12-.621c.326-.131.659-.251.989-.358a.322.322,0,0,1,.2.612c-.316.1-.635.218-.948.344a.322.322,0,0,1-.12.023m9.05-.3a.322.322,0,0,1-.122-.024,8.679,8.679,0,0,0-.938-.322.322.322,0,1,1,.174-.62,9.313,9.313,0,0,1,1.009.346.322.322,0,0,1-.122.62m-7.09-.33a.322.322,0,0,1-.077-.634c.343-.085.69-.157,1.032-.215a.322.322,0,1,1,.107.635c-.326.055-.657.124-.985.205a.325.325,0,0,1-.077.009m5.112-.229a.322.322,0,0,1-.055,0c-.32-.055-.654-.1-.993-.122a.322.322,0,1,1,.05-.642c.358.028.712.071,1.051.13a.322.322,0,0,1-.054.639m-3.082-.113a.322.322,0,0,1-.028-.643c.352-.031.707-.049,1.056-.051h0a.322.322,0,0,1,0,.644c-.331,0-.668.019-1,.048h-.029m9.885-.842a.329.329,0,0,1-.062-.006.322.322,0,0,1-.255-.377c.064-.329.116-.664.155-.995a.322.322,0,0,1,.64.075c-.041.347-.1.7-.162,1.043a.322.322,0,0,1-.316.261m.239-2.047h-.013a.322.322,0,0,1-.309-.334q.009-.244.009-.487,0-.261-.011-.519a.322.322,0,1,1,.643-.027q.011.271.012.546,0,.255-.01.511a.322.322,0,0,1-.322.309m-.088-2.059a.321.321,0,0,1-.319-.281c-.042-.333-.1-.665-.17-.989a.322.322,0,0,1,.629-.137c.074.341.134.693.179,1.044a.322.322,0,0,1-.279.36l-.041,0m-.439-2.013a.322.322,0,0,1-.307-.225c-.1-.32-.218-.635-.347-.938a.322.322,0,1,1,.592-.252c.137.322.261.657.368,1a.322.322,0,0,1-.307.419m-.808-1.894a.322.322,0,0,1-.282-.166,9.517,9.517,0,0,0-.527-.846.322.322,0,0,1,.528-.369,10.138,10.138,0,0,1,.563.9.322.322,0,0,1-.281.478m-1.181-1.686a.321.321,0,0,1-.242-.11,8.975,8.975,0,0,0-.7-.71.322.322,0,0,1,.434-.476,9.61,9.61,0,0,1,.747.762.322.322,0,0,1-.242.534m-28.788-.651a.322.322,0,0,1-.006-.644c.324-.006.666-.02,1.017-.042a.322.322,0,0,1,.039.643c-.36.022-.711.036-1.044.043h-.006m-1.031-.005h-.011c-.362-.012-.715-.034-1.05-.067a.322.322,0,1,1,.063-.641c.321.031.66.053,1.008.064a.322.322,0,0,1-.01.644m3.09-.117a.322.322,0,0,1-.029-.642q.5-.046,1.018-.107a.322.322,0,0,1,.075.639q-.526.062-1.034.109h-.03m-5.14-.089a.317.317,0,0,1-.057-.005c-.357-.065-.706-.145-1.035-.238a.322.322,0,1,1,.176-.619c.309.088.637.163.973.224a.322.322,0,0,1-.057.639m7.189-.149a.322.322,0,0,1-.043-.641q.5-.068,1.017-.146a.322.322,0,1,1,.1.637q-.52.078-1.026.147l-.044,0m2.041-.3a.322.322,0,0,1-.05-.64l1.016-.165a.322.322,0,0,1,.1.635q-.517.085-1.02.166a.329.329,0,0,1-.051,0m21.119-.071a.32.32,0,0,1-.189-.061,9.024,9.024,0,0,0-.837-.538.322.322,0,1,1,.318-.56,9.673,9.673,0,0,1,.9.577.322.322,0,0,1-.189.582m-32.327-.044a.322.322,0,0,1-.123-.025,8.461,8.461,0,0,1-.961-.47.322.322,0,0,1,.319-.559,7.858,7.858,0,0,0,.888.434.322.322,0,0,1-.123.619m13.244-.221a.322.322,0,0,1-.053-.639l1.017-.172a.322.322,0,0,1,.108.635l-1.017.172a.327.327,0,0,1-.054,0m2.034-.344a.322.322,0,0,1-.053-.639l1.019-.169a.322.322,0,0,1,.1.635l-1.017.169a.323.323,0,0,1-.054,0m2.036-.334a.322.322,0,0,1-.05-.64q.505-.08,1.021-.159a.322.322,0,0,1,.1.636q-.514.078-1.017.158a.319.319,0,0,1-.051,0m13.224-.075a.32.32,0,0,1-.128-.027,9.928,9.928,0,0,0-.934-.351.322.322,0,1,1,.2-.613,10.5,10.5,0,0,1,1,.373.322.322,0,0,1-.129.617m-32.323-.047a.32.32,0,0,1-.195-.066,8.522,8.522,0,0,1-.809-.7.322.322,0,0,1,.451-.459,7.859,7.859,0,0,0,.748.648.322.322,0,0,1-.2.578m21.139-.188a.322.322,0,0,1-.046-.64q.508-.073,1.025-.143a.322.322,0,0,1,.086.638q-.514.069-1.019.142a.314.314,0,0,1-.046,0m2.045-.276a.322.322,0,0,1-.04-.641q.51-.064,1.028-.123a.322.322,0,0,1,.073.64q-.515.058-1.021.122l-.04,0m7.18-.117a.325.325,0,0,1-.069-.007c-.321-.07-.653-.127-.988-.17a.322.322,0,1,1,.082-.639c.353.045.7.105,1.043.179a.322.322,0,0,1-.068.636m-5.13-.116a.322.322,0,0,1-.032-.642q.511-.052,1.031-.1a.322.322,0,1,1,.057.641q-.516.046-1.023.1l-.033,0m3.088-.148h-.016c-.328-.016-.665-.019-1.007-.011a.322.322,0,1,1-.016-.644c.358-.009.711-.005,1.054.011a.322.322,0,0,1-.015.643m-29.79-.593a.321.321,0,0,1-.25-.12c-.216-.268-.426-.557-.625-.859a.322.322,0,0,1,.538-.353c.186.285.384.557.587.808a.322.322,0,0,1-.25.524m-1.133-1.719a.322.322,0,0,1-.283-.169c-.162-.3-.319-.616-.468-.944a.322.322,0,0,1,.586-.266c.142.314.293.618.448.9a.322.322,0,0,1-.283.475m-.857-1.875a.322.322,0,0,1-.3-.2c-.126-.323-.247-.653-.36-.981a.322.322,0,1,1,.609-.208c.109.32.227.641.35.955a.322.322,0,0,1-.3.439m-.667-1.951a.322.322,0,0,1-.309-.231c-.1-.332-.189-.671-.273-1.009a.322.322,0,1,1,.625-.155c.082.329.171.659.266.982a.322.322,0,0,1-.309.413m-.5-2a.322.322,0,0,1-.315-.258c-.069-.338-.131-.683-.187-1.028a.322.322,0,0,1,.636-.1c.054.336.115.673.182,1a.322.322,0,0,1-.251.38.326.326,0,0,1-.065.007m-.327-2.036a.322.322,0,0,1-.319-.284c-.041-.343-.076-.693-.1-1.039a.322.322,0,1,1,.642-.051c.027.338.06.679.1,1.014a.322.322,0,0,1-.282.358l-.038,0m-.162-2.056a.322.322,0,0,1-.321-.309c-.014-.344-.021-.7-.022-1.044a.322.322,0,0,1,.321-.322h0a.322.322,0,0,1,.322.321c0,.34.008.683.021,1.019a.322.322,0,0,1-.309.335h-.013m0-2.063h-.011a.322.322,0,0,1-.311-.333c.012-.344.03-.695.054-1.042a.322.322,0,1,1,.642.045c-.024.34-.042.683-.053,1.019a.322.322,0,0,1-.321.311m.144-2.061-.034,0a.322.322,0,0,1-.287-.353c.036-.341.078-.69.126-1.037a.322.322,0,1,1,.638.088c-.047.34-.089.682-.123,1.016a.322.322,0,0,1-.32.289m.283-2.048a.33.33,0,0,1-.055,0,.322.322,0,0,1-.263-.372c.058-.341.123-.686.193-1.027a.322.322,0,0,1,.631.129c-.068.334-.132.673-.189,1.007a.322.322,0,0,1-.317.267m.414-2.027a.322.322,0,0,1-.314-.4c.079-.335.165-.676.255-1.013a.322.322,0,0,1,.622.167c-.089.331-.173.665-.251.994a.322.322,0,0,1-.313.248m.535-2a.322.322,0,0,1-.308-.414c.1-.329.2-.664.313-1a.322.322,0,1,1,.611.2c-.108.326-.211.655-.307.978a.322.322,0,0,1-.308.23m.647-1.964a.322.322,0,0,1-.3-.431c.116-.323.24-.651.366-.976a.322.322,0,0,1,.6.234c-.125.319-.246.642-.36.96a.322.322,0,0,1-.3.213m.752-1.925a.322.322,0,0,1-.3-.447c.134-.318.274-.639.416-.954a.322.322,0,0,1,.587.265c-.14.31-.278.626-.41.939a.322.322,0,0,1-.3.2m.85-1.883a.322.322,0,0,1-.29-.462q.226-.468.464-.931a.322.322,0,1,1,.573.294q-.234.456-.456.917a.322.322,0,0,1-.29.182m.942-1.836a.322.322,0,0,1-.282-.476q.248-.456.508-.906a.322.322,0,1,1,.558.321q-.255.443-.5.893a.322.322,0,0,1-.283.168m1.029-1.787a.322.322,0,0,1-.275-.489q.27-.444.549-.88a.322.322,0,0,1,.542.347q-.275.43-.541.867a.322.322,0,0,1-.275.155m1.111-1.734a.322.322,0,0,1-.266-.5q.29-.43.59-.852a.322.322,0,0,1,.525.373q-.295.416-.581.84a.322.322,0,0,1-.267.142m1.193-1.68a.322.322,0,0,1-.258-.514q.312-.418.631-.826a.322.322,0,0,1,.507.4q-.315.4-.622.814a.321.321,0,0,1-.258.129m1.273-1.624a.322.322,0,0,1-.248-.526q.332-.4.671-.795a.322.322,0,0,1,.487.421q-.334.386-.661.783a.321.321,0,0,1-.249.117m1.351-1.561a.322.322,0,0,1-.238-.538c.233-.256.472-.512.709-.76a.322.322,0,1,1,.465.445q-.352.368-.7.749a.321.321,0,0,1-.238.105m1.427-1.491a.322.322,0,0,1-.227-.55c.246-.244.5-.488.748-.723a.322.322,0,0,1,.441.469c-.246.232-.494.471-.736.711a.32.32,0,0,1-.227.093m1.5-1.414a.322.322,0,0,1-.214-.562c.26-.232.525-.461.787-.682a.322.322,0,0,1,.414.493c-.257.217-.517.442-.773.67a.32.32,0,0,1-.214.082m1.579-1.328a.322.322,0,0,1-.2-.574c.275-.218.553-.431.826-.634a.322.322,0,1,1,.384.517c-.268.2-.541.409-.811.622a.32.32,0,0,1-.2.07m1.656-1.231a.322.322,0,0,1-.184-.586c.288-.2.579-.4.867-.58a.322.322,0,1,1,.349.541c-.281.181-.566.372-.848.568a.321.321,0,0,1-.183.057m1.734-1.118a.322.322,0,0,1-.165-.6c.3-.179.607-.353.907-.517a.322.322,0,1,1,.308.565c-.293.16-.591.33-.886.505a.319.319,0,0,1-.164.045m1.812-.986a.322.322,0,0,1-.143-.611c.316-.156.635-.3.948-.442a.322.322,0,1,1,.259.589c-.3.134-.614.279-.922.43a.321.321,0,0,1-.142.033m1.888-.829a.322.322,0,0,1-.116-.622c.33-.127.662-.245.987-.351a.322.322,0,0,1,.2.612c-.315.1-.637.218-.956.34a.323.323,0,0,1-.115.021m1.96-.64a.322.322,0,0,1-.083-.633c.342-.091.686-.172,1.022-.241a.322.322,0,0,1,.129.631c-.324.066-.656.144-.985.232a.321.321,0,0,1-.083.011m7.133-.128a.32.32,0,0,1-.085-.011c-.319-.087-.649-.161-.978-.22a.322.322,0,1,1,.113-.634c.348.062.7.14,1.034.233a.322.322,0,0,1-.085.632m-5.114-.282a.322.322,0,0,1-.043-.641c.35-.048.7-.084,1.048-.107a.322.322,0,1,1,.042.642c-.33.022-.667.056-1,.1a.329.329,0,0,1-.044,0m3.086-.082h-.03c-.328-.03-.666-.047-1-.05a.322.322,0,0,1,0-.644h0c.355,0,.71.021,1.056.053a.322.322,0,0,1-.029.642" transform="translate(-1417.425 -166.09)" fill="#c7d8fd"/>
      <path id="Path_85569" data-name="Path 85569" d="M2549.688,1494.5c0,3.681-13.684,6.665-30.564,6.665s-36.361-3.539-36.361-7.22,19.481-6.109,36.361-6.109,30.564,2.984,30.564,6.665" transform="translate(-2273.17 -1362.232)" fill="#405b88"/>
      <path id="Path_85570" data-name="Path 85570" d="M2441.22,1288.2c-5.315-4.8-9-12.219-10.032-10.676-.606.91-4.512,11.941-4.721,15.621-.139,2.464-3.833,5.453-5.666,6.247-1.655-.647-2.255-.262-2.77.6-.6,1.5,1.715,8.4,7.929,3.986,2.572-2.057,4.158-3.6,4.158-3.6,1.543,2.572,8.187,3.086,18.988-.171-1.372-4.115-7.887-12-7.887-12" transform="translate(-2213.819 -1169.488)" fill="#d5e6f6"/>
      <path id="Path_85571" data-name="Path 85571" d="M2416.629,1300.374a4.127,4.127,0,0,1-2.6-.91c-1.8-1.414-2.479-4.156-2.044-5.243l.037-.074c.707-1.179,1.641-1.444,3.191-.887,1.816-.875,5.053-3.614,5.172-5.72.217-3.829,4.174-14.928,4.807-15.877a.922.922,0,0,1,.748-.436c.9-.026,1.823,1.155,3.847,3.83a51.261,51.261,0,0,0,6.21,7.186l.052.054c.269.325,6.592,8.008,7.978,12.166l.167.5-.507.153c-9.625,2.9-16.842,3.05-19.2.447-.641.594-1.973,1.8-3.771,3.234l-.023.018a7.119,7.119,0,0,1-4.064,1.557m-3.7-5.739a4.892,4.892,0,0,0,1.737,4.02c1.387,1.091,3.26.86,5.417-.669,2.513-2.011,4.093-3.543,4.109-3.558l.466-.453.334.557c1.281,2.135,7.3,2.865,17.874-.243-1.6-3.963-7.177-10.81-7.587-11.309a52.284,52.284,0,0,1-6.312-7.3c-1.085-1.435-2.424-3.206-2.941-3.405-.7,1.2-4.414,11.8-4.613,15.326-.154,2.72-4.028,5.847-5.975,6.69l-.195.084-.2-.077c-1.508-.59-1.808-.172-2.116.34" transform="translate(-2208.253 -1163.911)" fill="#405b89"/>
      <path id="Path_85572" data-name="Path 85572" d="M3271.288,1139.61a1.1,1.1,0,0,1-.893-.448c-1.027-1.352.186-6.1.582-7.521a.548.548,0,0,1,.528-.4h.03c.083,0,.169.007.256.007,4.784,0,17.4-6.646,19.558-13.238.57-1.739.392-2.187.355-2.254l-.03,0c-.677,0-2.375,1.433-3.017,2.3a3.339,3.339,0,0,1-2.486,1.367,1.946,1.946,0,0,1-1.636-.87,4.5,4.5,0,0,1-.61-2.559c0-3.571,3.546-6.823,7.44-6.823a7.357,7.357,0,0,1,2.814.563c1.861.767,3.7,3.876,3.44,8.13-.271,4.446-3.333,15.455-25.861,21.668a1.467,1.467,0,0,1-.471.083" transform="translate(-2993.941 -1015.531)" fill="#f3f4f6"/>
      <path id="Path_85573" data-name="Path 85573" d="M3285.405,1103.771a6.807,6.807,0,0,1,2.605.522c4.657,1.918,8.448,20.274-22.375,28.767a.93.93,0,0,1-.308.059c-1.808,0,.217-7.274.217-7.274.093.005.188.008.287.008,5.137,0,17.893-6.947,20.079-13.615.731-2.23.46-2.975-.2-2.975-.983,0-2.827,1.67-3.457,2.518a2.791,2.791,0,0,1-2.046,1.146c-.9,0-1.7-.729-1.7-2.881,0-3.228,3.2-6.275,6.892-6.275m0-1.1v0h0a8.326,8.326,0,0,0-5.576,2.218,7.136,7.136,0,0,0-2.412,5.153c0,3.69,2.139,3.977,2.794,3.977a3.833,3.833,0,0,0,2.926-1.589,8.8,8.8,0,0,1,2.074-1.849,8.937,8.937,0,0,1-.343,1.311c-.9,2.73-3.984,5.909-8.473,8.721-3.893,2.438-8.237,4.14-10.565,4.14-.078,0-.154,0-.226-.006l-.061,0a1.1,1.1,0,0,0-1.055.8c-.017.061-.422,1.519-.713,3.157-.582,3.265-.186,4.3.223,4.842a1.637,1.637,0,0,0,1.329.665,2.007,2.007,0,0,0,.631-.107c8.937-2.466,15.765-5.958,20.3-10.379,4.6-4.487,5.775-8.883,5.951-11.78.278-4.556-1.69-7.81-3.778-8.67a7.9,7.9,0,0,0-3.022-.6" transform="translate(-2987.981 -1009.588)" fill="#405b89"/>
      <path id="Path_85574" data-name="Path 85574" d="M2459.229,78.443a1.685,1.685,0,0,0-2.632-.832c-4.7,3.59-10.663,9.847-10.663,11.2,0,1.543,2.229,2.915,10.115,1.543,5.84-1.016,4.347-8.235,3.179-11.915" transform="translate(-2239.45 -70.741)" fill="#d5e6f6"/>
      <path id="Path_85575" data-name="Path 85575" d="M2444.964,85.842c-2.072,0-3.531-.349-4.359-1.045a2.019,2.019,0,0,1-.763-1.577c0-1.8,6.674-8.412,10.865-11.613a2.174,2.174,0,0,1,2-.351,2.206,2.206,0,0,1,1.437,1.436c.992,3.126,1.825,7.43.154,10.183a5.172,5.172,0,0,1-3.735,2.394,33.546,33.546,0,0,1-5.6.573m7.075-13.66a1.16,1.16,0,0,0-.708.243c-5.03,3.84-10.421,9.784-10.461,10.8a1,1,0,0,0,.4.789c.674.567,2.755,1.353,9.116.247a4.134,4.134,0,0,0,3.032-1.914c1.548-2.55.505-6.945-.255-9.338a1.16,1.16,0,0,0-.765-.766,1.182,1.182,0,0,0-.356-.055" transform="translate(-2233.871 -65.145)" fill="#405b89"/>
      <path id="Path_85576" data-name="Path 85576" d="M2593.667,202.814a7.259,7.259,0,0,1-1.029-.073,85.613,85.613,0,0,1-23.271-7.025.659.659,0,0,1-.071-.037c-7.366-4.461-5.118-17.117-2.272-33.14.458-2.578.931-5.243,1.38-7.963,2.367-14.359,3.19-32.614,3.916-48.721,1.1-24.342,1.744-32.859,4.688-32.859a1.433,1.433,0,0,1,.361.047.688.688,0,0,1,.156.062c12.732,6.967,34.365,25.524,42.593,44.968l.256.609c2.978,7.078,9.174,21.806,12.014,36.955,3.523,18.8.934,32.684-7.7,41.278-2.787,2.775-9.4,4.334-10.74,4.558a3.9,3.9,0,0,1-1.391.237,12.936,12.936,0,0,1-3.74-.834,16.546,16.546,0,0,0-5.013-1.043c-.114,0-.229,0-.344.007a11.853,11.853,0,0,0-4.035,1.313,14.087,14.087,0,0,1-5.761,1.662" transform="translate(-2347.85 -66.834)" fill="#f3f4f6"/>
      <path id="Path_85577" data-name="Path 85577" d="M2569.635,66.243a.732.732,0,0,1,.188.025c12.116,6.629,33.947,24.917,42.291,44.634,5.875,13.979,24.829,58.066,4.721,78.089-2.581,2.57-9.007,4.164-10.436,4.378a3.2,3.2,0,0,1-1.211.217c-2.312,0-5.324-1.877-8.752-1.877-.124,0-.247,0-.371.007-2.959.12-6.164,2.974-9.768,2.974a6.539,6.539,0,0,1-.932-.066,85.156,85.156,0,0,1-23.084-6.97c-8.115-4.915-3.737-21.2-.572-40.4,5.078-30.807,3.138-81,7.927-81.005m0-1.372h0c-1.971,0-2.654,2.561-2.912,3.525a47.535,47.535,0,0,0-1.106,7.077c-.585,5.843-.941,13.753-1.354,22.913-.726,16.087-1.548,34.32-3.908,48.639-.448,2.716-.921,5.379-1.378,7.955-1.428,8.038-2.661,14.981-2.7,20.725-.043,6.74,1.638,10.91,5.29,13.121a1.357,1.357,0,0,0,.141.075,86.3,86.3,0,0,0,23.459,7.08,7.947,7.947,0,0,0,1.127.08,14.824,14.824,0,0,0,6.043-1.723,11.445,11.445,0,0,1,3.781-1.253c.1,0,.209-.006.314-.006a15.786,15.786,0,0,1,4.8,1.01,13.4,13.4,0,0,0,3.949.867,4.661,4.661,0,0,0,1.567-.257c1.577-.274,8.139-1.842,11.048-4.738,8.8-8.764,11.455-22.858,7.886-41.891-2.854-15.221-9.069-29.994-12.056-37.094l-.255-.607c-4.793-11.326-13.54-21.3-20.034-27.672-7.391-7.253-15.937-13.844-22.862-17.633a1.37,1.37,0,0,0-.311-.124,2.112,2.112,0,0,0-.534-.069" transform="translate(-2340.479 -59.395)" fill="#405b89"/>
      <path id="Path_85578" data-name="Path 85578" d="M2628.284,165.008c17.843-35.126-9.3-64.936-16.874-71.444a9.822,9.822,0,0,0-2.427.029c-3.38,7.6-2.177,51.784-6.806,79.868-.553,3.358-1.143,6.624-1.7,9.759,11.673.111,22.579-7.812,27.8-18.213" transform="translate(-2380.948 -85.609)" fill="#bcc6ce"/>
      <path id="Path_85579" data-name="Path 85579" d="M2909.187,366.88c5.624-2.858,13.537-6.991,15.508-13.659l-7.541-9.39c-2.435,7.047-5.82,11.276-11.578,16.012Z" transform="translate(-2660.289 -314.805)" fill="#bcc6ce"/>
      <path id="Path_85580" data-name="Path 85580" d="M2902.984,319.83a29.067,29.067,0,0,0,12.349-16.245l-7.26-6.8a40.925,40.925,0,0,1-12.609,18.134Z" transform="translate(-2651.031 -271.727)" fill="#7d9cd1"/>
      <path id="Path_85581" data-name="Path 85581" d="M2993.979,450.541c-.509-.691,2.063-3.2,2.544-2.988s.636,2.5.747,3.166a.36.36,0,0,1-.393.416s-2.649-.256-2.9-.594" transform="translate(-2741.168 -409.759)" fill="#d5e6f6"/>
      <path id="Path_85582" data-name="Path 85582" d="M2994.824,449.266l-.056,0c-.822-.079-2.764-.3-3.035-.672-.309-.42.136-1.143.563-1.675.535-.665,1.733-1.819,2.214-1.6.408.181.584,1.064.785,2.736.028.237.053.442.075.575a.553.553,0,0,1-.547.643m-2.78-.907a10.087,10.087,0,0,0,2.762.518.171.171,0,0,0,.14-.052.16.16,0,0,0,.042-.139c-.023-.141-.049-.35-.077-.592-.068-.57-.276-2.3-.558-2.429a5.562,5.562,0,0,0-2.146,2.055c-.2.354-.218.562-.164.639m0,0h0Z" transform="translate(-2739.078 -407.695)" fill="#405b89"/>
      <path id="Path_85583" data-name="Path 85583" d="M3045.936,393.985c-.6-.611,1.585-3.463,2.091-3.32s.986,2.382,1.191,3.027a.36.36,0,0,1-.329.468s-2.658.124-2.952-.175" transform="translate(-2788.705 -357.681)" fill="#d5e6f6"/>
      <path id="Path_85584" data-name="Path 85584" d="M3045.631,392.3a4.124,4.124,0,0,1-1.918-.262c-.366-.372-.029-1.15.319-1.738.434-.735,1.46-2.048,1.963-1.9.429.121.73.97,1.167,2.6.062.231.115.43.156.558a.547.547,0,0,1-.073.483.553.553,0,0,1-.432.237c-.293.014-.728.029-1.182.029m-1.644-.536a10.092,10.092,0,0,0,2.808.119.168.168,0,0,0,.132-.072.162.162,0,0,0,.022-.144c-.043-.136-.1-.339-.161-.574-.149-.554-.6-2.241-.9-2.325a5.57,5.57,0,0,0-1.831,2.34c-.15.379-.135.586-.071.655m0,0h0Z" transform="translate(-2786.62 -355.597)" fill="#405b89"/>
      <path id="Path_85585" data-name="Path 85585" d="M3080.2,332.569c-.847-.138-1.2-3.552-.711-3.735s2.442.774,2.988,1.174a.36.36,0,0,1,.01.572s-1.873,2.057-2.287,1.989" transform="translate(-2819.314 -301.053)" fill="#d5e6f6"/>
      <path id="Path_85586" data-name="Path 85586" d="M3078.093,330.689l-.038,0c-.8-.131-1.029-2.02-1.066-2.4-.056-.574-.089-1.559.318-1.71.637-.236,2.725.872,3.17,1.2a.554.554,0,0,1,.03.868c-.708.777-1.935,2.043-2.414,2.043m-.552-3.761a.29.29,0,0,0-.1.014,4.839,4.839,0,0,0,.169,2.541c.174.563.37.791.5.819a9.747,9.747,0,0,0,2.12-1.927l.022-.021a.166.166,0,0,0,.063-.135.16.16,0,0,0-.068-.129,7.984,7.984,0,0,0-2.707-1.162" transform="translate(-2817.202 -298.979)" fill="#405b89"/>
      <path id="Path_85587" data-name="Path 85587" d="M2936.327,297.581l-.855-.8a40.954,40.954,0,0,1-10.083,15.862,29.108,29.108,0,0,0,10.937-15.06" transform="translate(-2678.43 -271.726)" fill="#a1bce2"/>
      <path id="Path_85588" data-name="Path 85588" d="M2256.885,113.522a26.993,26.993,0,0,1-16.028-5.379c-5.495-3.964-10.269-10.009-14.19-17.969a.686.686,0,0,1,.042-.679c2.2-3.351,5.679-8.327,9.364-13.6,7.5-10.726,16.84-24.075,17.28-26.607a.633.633,0,0,1,.028-.108c.465-1.336.217-4.334-.044-7.509-.488-5.907-1.041-12.6,2.021-15.192l.02-.017c1.323-1.035,6.631-4.039,11.127-4.039a9.245,9.245,0,0,1,1.155.07.689.689,0,0,1,.361.16,75.034,75.034,0,0,1,18.151,25.237,57.033,57.033,0,0,1,4.918,21.647,53.33,53.33,0,0,1-6.03,25.391c-5.586,11.118-16.909,18.59-28.173,18.59" transform="translate(-2038.628 -20.534)" fill="#f3f4f6"/>
      <path id="Path_85589" data-name="Path 85589" d="M2259.066,15.675a8.5,8.5,0,0,1,1.068.065c7.575,6.508,34.717,36.318,16.875,71.444-5.189,10.329-15.981,18.215-27.562,18.215-10.39,0-21.414-6.344-29.6-22.965,6.858-10.458,26.06-36.518,26.746-40.462,1.372-3.943-2.686-18.631,1.772-22.4,1.213-.949,6.368-3.893,10.7-3.894m0-1.372v0c-4.733,0-10.123,3.068-11.55,4.185l-.041.033c-3.331,2.819-2.763,9.7-2.262,15.772.245,2.963.5,6.028.081,7.227a1.42,1.42,0,0,0-.056.216c-.078.449-.79,2.294-5.7,9.694-3.295,4.962-7.447,10.9-11.462,16.638-3.688,5.273-7.172,10.253-9.375,13.613a1.371,1.371,0,0,0-.083,1.358c3.971,8.061,8.817,14.191,14.4,18.222a27.665,27.665,0,0,0,16.429,5.509A30.183,30.183,0,0,0,2266.4,101.3a36.339,36.339,0,0,0,11.838-13.5,54,54,0,0,0,6.1-25.709,57.706,57.706,0,0,0-4.975-21.907,75.353,75.353,0,0,0-9.8-16.319,65.686,65.686,0,0,0-8.528-9.164,1.372,1.372,0,0,0-.722-.32,9.9,9.9,0,0,0-1.24-.076" transform="translate(-2031.191 -13.096)" fill="#405b89"/>
      <path id="Path_85590" data-name="Path 85590" d="M2711.729,10.315c-1.286.486-.8,12,5.029,18.288,1.829,1.143,3.315,1.6,11.087-.686,4.115-1.143,8.8-2.172,6.058-4.8s-17.488-14.63-22.174-12.8" transform="translate(-2482.271 -9.272)" fill="#f3f4f6"/>
      <path id="Path_85591" data-name="Path 85591" d="M2710.734,21.138a6.132,6.132,0,0,1-3.607-1.081l-.1-.06-.077-.083c-5.239-5.65-6.335-15.394-5.65-18.309a1.83,1.83,0,0,1,.94-1.36c2.315-.9,6.437.676,12.6,4.817a94.29,94.29,0,0,1,10.473,8.165,2.624,2.624,0,0,1,1.024,2.537c-.456,1.795-3.3,2.571-6.588,3.47l-.857.236c-4.036,1.187-6.462,1.668-8.163,1.668m-2.6-2.471c1.39.865,2.558,1.433,10.294-.842l.877-.241c1.934-.528,5.169-1.412,5.38-2.24.035-.137-.091-.441-.55-.88a94.117,94.117,0,0,0-10.243-7.98c-7.151-4.8-9.913-4.949-10.868-4.694-.618,1.5-.108,11.163,5.11,16.877m-5.581-17.623h0Z" transform="translate(-2473.094 -0.001)" fill="#7d9cd1"/>
      <path id="Path_85592" data-name="Path 85592" d="M2242.51,709.781c10.5-10.44,6.4-20.212-.446-24.33-3.151,4.508-6.011,8.621-7.917,11.528a60.978,60.978,0,0,0,8.364,12.8" transform="translate(-2045.541 -627.586)" fill="#405b88"/>
      <path id="Path_85593" data-name="Path 85593" d="M2729.78,1234.782c-5.537,0-7.5-2.712-7.5-5.034,0-1.686,1.027-3.058,2.291-3.058h.049c12.439-2.529,16.332-19.173,18.2-27.181.138-.589.264-1.128.381-1.609a4.831,4.831,0,0,1,4.97-4.052c3.791,0,9.127,3.2,12.689,7.612,6.408,7.8,9.03,14.207,7.788,19.037-1.184,4.609-5.55,6.353-6.984,6.927l-.054.022a.727.727,0,0,1-.114.034c-.379.08-.824.187-1.3.3a27.752,27.752,0,0,1-6.357.976,9.4,9.4,0,0,1-4.993-1.246,1.344,1.344,0,0,0-.7-.2,1.433,1.433,0,0,0-1.154.6c-2.869,3.976-8.6,5.358-12.785,6.367l-.693.168-.053.011a23.226,23.226,0,0,1-3.682.324Z" transform="translate(-2492.465 -1093.064)" fill="#f3f4f6"/>
      <path id="Path_85594" data-name="Path 85594" d="M2740.74,1187.1c3.737,0,8.917,3.347,12.155,7.358,15.773,19.2,3.6,23.888,1.029,24.917a35.218,35.218,0,0,1-7.511,1.261,8.732,8.732,0,0,1-4.634-1.144,2.023,2.023,0,0,0-1.064-.3,2.116,2.116,0,0,0-1.71.888c-2.88,3.993-9.03,5.281-13.084,6.27a22.449,22.449,0,0,1-3.573.315c-8.658,0-7.4-6.721-5.211-6.72.032,0,.065,0,.1,0,13.887-2.743,17.488-22.288,19.2-29.318a4.134,4.134,0,0,1,4.3-3.529m0-1.372h0a5.654,5.654,0,0,0-3.534,1.109,6.005,6.005,0,0,0-2.1,3.466c-.118.486-.247,1.035-.383,1.616-.943,4.036-2.369,10.134-5.148,15.594-3.2,6.281-7.386,10-12.455,11.057a2.8,2.8,0,0,0-2.388,1.527,4.754,4.754,0,0,0,.093,4.673c.859,1.489,2.863,3.264,7.525,3.264a23.909,23.909,0,0,0,3.793-.333c.035-.006.071-.013.105-.021l.692-.167c4.289-1.034,10.162-2.45,13.18-6.632a.747.747,0,0,1,.6-.319.651.651,0,0,1,.345.1,10.071,10.071,0,0,0,5.352,1.347,28.3,28.3,0,0,0,6.517-.995c.467-.112.907-.218,1.277-.3a1.364,1.364,0,0,0,.227-.069l.054-.022c1.514-.605,6.123-2.447,7.394-7.392,1.3-5.052-1.368-11.661-7.922-19.642-3.156-3.908-8.709-7.863-13.219-7.864" transform="translate(-2485.032 -1085.626)" fill="#405b89"/>
      <path id="Path_85595" data-name="Path 85595" d="M6.465,1.542c-.3,1.057-1.273,2.364-3.395.727C1.8,1.36-1.658,3.482.949,6.694,2.464,7.967,7.071,9.786,8.768,1.663c.061-1.879-1.637-2.485-2.3-.121" transform="translate(228.21 86.706) rotate(-159)" fill="#405b88"/>
      <path id="Path_85596" data-name="Path 85596" d="M3106.817,771.712a147.153,147.153,0,0,0-6.85-23.277c-6.508-1.415-13.439,4.784-15.509,13.9-2.078,9.149,1.532,17.769,8.064,19.252,5.523,1.254,11.365-3,14.295-9.871" transform="translate(-2823.532 -685.068)" fill="#6e0d88"/>
      <path id="Path_85597" data-name="Path 85597" d="M2573.565,1186.634a7.185,7.185,0,0,0,4.57,1.668c4.213,0,7.629-3.723,7.629-8.315s-3.416-8.315-7.629-8.315a7.044,7.044,0,0,0-2.616.512,133.849,133.849,0,0,0-1.954,14.45" transform="translate(-2356.306 -1072.76)" fill="#6e0d88"/>
      <path id="Path_85598" data-name="Path 85598" d="M3097.857,1451.9c.631,2.355-2.92,1.8-6.121,2.66s-4.841,2.8-5.471.445,1.453-4.959,4.654-5.817,6.308.357,6.938,2.712" transform="translate(-2825.621 -1326.593)" fill="#6e0d88"/>
      <path id="Path_85599" data-name="Path 85599" d="M2768.049,1632.245a.343.343,0,0,1-.334-.269,3.273,3.273,0,0,1,.793-2.715,2.27,2.27,0,0,1,2.113-.669.343.343,0,0,1-.113.676,1.594,1.594,0,0,0-1.5.465,2.607,2.607,0,0,0-.621,2.094.343.343,0,0,1-.335.417" transform="translate(-2534.019 -1491.071)" fill="#405b89"/>
      <path id="Path_85600" data-name="Path 85600" d="M2739.4,1616.911a.343.343,0,0,1-.343-.343c0-.7,0-2.141.916-2.841a2.248,2.248,0,0,1,2.032-.233.343.343,0,1,1-.18.661,1.62,1.62,0,0,0-1.436.117c-.646.493-.646,1.756-.646,2.3a.343.343,0,0,1-.343.343" transform="translate(-2507.831 -1477.166)" fill="#405b89"/>
      <path id="Path_85601" data-name="Path 85601" d="M2723.156,1598.2a.343.343,0,0,1-.332-.431,2.482,2.482,0,0,1,1.236-1.643,4.213,4.213,0,0,1,2.981-.078.343.343,0,0,1-.228.647,3.574,3.574,0,0,0-2.436.038,1.8,1.8,0,0,0-.891,1.212.343.343,0,0,1-.331.255" transform="translate(-2492.954 -1461.088)" fill="#405b89"/>
      <path id="Path_85602" data-name="Path 85602" d="M2477.8,1565.611a.343.343,0,0,1-.321-.223,3.673,3.673,0,0,1,.115-2.858,2.574,2.574,0,0,1,1.854-1.256.343.343,0,0,1,.135.672,1.922,1.922,0,0,0-1.389.917,3,3,0,0,0-.072,2.284.343.343,0,0,1-.321.464" transform="translate(-2268.114 -1429.466)" fill="#405b89"/>
      <path id="Path_85603" data-name="Path 85603" d="M2435.028,1554.894a.342.342,0,0,1-.339-.294c-.174-1.216.112-3.65,2.438-4.156a.343.343,0,0,1,.146.67c-2.291.5-1.922,3.271-1.905,3.388a.344.344,0,0,1-.34.391" transform="translate(-2229.116 -1419.549)" fill="#405b89"/>
      <path id="Path_85604" data-name="Path 85604" d="M2622.62,1087.21c-2.057,6.629-8.375,12.131-16.759,14.845-1.843-.119-4.745,8.627,9.491,7.183,6.9-.275,18.812-11.856,20.412-26.029" transform="translate(-2384.446 -991.765)" fill="#f3f4f6"/>
      <path id="Path_85605" data-name="Path 85605" d="M2605.009,1102.644c-5.022,0-7.176-1.557-8.095-2.992a4.462,4.462,0,0,1-.1-4.569,2.054,2.054,0,0,1,1.554-1.154c8.2-2.681,14.253-8.045,16.214-14.364a.686.686,0,0,1,1.31.407c-2.1,6.77-8.532,12.488-17.2,15.295a.69.69,0,0,1-.255.032,2.568,2.568,0,0,0-.8,2.44c.4,2.726,4.238,3.988,10.265,3.377l.042,0c6.7-.267,18.216-11.761,19.758-25.421a.686.686,0,1,1,1.363.154,35.039,35.039,0,0,1-8.378,18.6c-4.128,4.8-8.979,7.882-12.666,8.04a30.036,30.036,0,0,1-3,.162" transform="translate(-2377.059 -984.325)" fill="#405b89"/>
      <path id="Path_85606" data-name="Path 85606" d="M3257.4,280.7a82.015,82.015,0,0,0-7.537-18.113q-1.373-2.431-2.91-4.762c-.332-.5-1.932.057-1.53.67a80.946,80.946,0,0,1,8.662,17.411q.919,2.589,1.661,5.237c.176.628,1.83.183,1.653-.443" transform="translate(-2971.385 -235.882)" fill="#7d9cd1"/>
      <path id="Path_85607" data-name="Path 85607" d="M3320.984,252.247a109.974,109.974,0,0,1,5.724,14.232c.173.537,1.82.072,1.653-.443a110.013,110.013,0,0,0-5.724-14.232c-.259-.534-1.868,0-1.653.443" transform="translate(-3040.611 -230.343)" fill="#7d9cd1"/>
      <path id="Path_85608" data-name="Path 85608" d="M2243.615,782.979a1.693,1.693,0,0,1-1.618-.9c-.413-.895.2-2.03,1.4-2.584a3.033,3.033,0,0,1,1.259-.29,1.693,1.693,0,0,1,1.618.9,1.6,1.6,0,0,1-.171,1.55,2.906,2.906,0,0,1-1.231,1.034,3.032,3.032,0,0,1-1.259.29" transform="translate(-2052.611 -713.429)" fill="#f3f4f6"/>
      <path id="Path_85609" data-name="Path 85609" d="M2237.208,772.458a1.033,1.033,0,0,1,1,.5c.248.537-.23,1.287-1.068,1.674a2.347,2.347,0,0,1-.971.227,1.032,1.032,0,0,1-1-.5c-.248-.537.23-1.287,1.068-1.674a2.352,2.352,0,0,1,.971-.227m0-1.372h0a3.721,3.721,0,0,0-1.547.353,3.6,3.6,0,0,0-1.522,1.288,2.277,2.277,0,0,0-.215,2.206,2.359,2.359,0,0,0,2.241,1.294,3.722,3.722,0,0,0,1.547-.353,3.594,3.594,0,0,0,1.522-1.288,2.275,2.275,0,0,0,.215-2.206,2.358,2.358,0,0,0-2.24-1.294" transform="translate(-2045.161 -705.991)" fill="#405b89"/>
      <path id="Path_85610" data-name="Path 85610" d="M2932.425,22.125a3.66,3.66,0,0,1-4.464,2.775c-2.4-.392-4.708-4.045-4.708-4.045s3.348-2.731,5.749-2.34,3.711,1.846,3.423,3.609" transform="translate(-2676.474 -16.917)" fill="#d5e6f6"/>
      <path id="Path_85611" data-name="Path 85611" d="M2923.966,21.675a5.233,5.233,0,0,1-.843-.069c-2.521-.411-4.839-4.042-4.937-4.2l-.158-.251.229-.187c.142-.115,3.492-2.821,6.015-2.411a5.02,5.02,0,0,1,2.91,1.392,3.023,3.023,0,0,1,.789,2.6,3.645,3.645,0,0,1-1.583,2.42,4.329,4.329,0,0,1-2.422.7m-5.045-4.371c.563.814,2.439,3.336,4.31,3.641a3.862,3.862,0,0,0,2.785-.527,2.937,2.937,0,0,0,1.3-1.971,2.337,2.337,0,0,0-.617-2.037,4.368,4.368,0,0,0-2.529-1.189c-1.873-.306-4.452,1.489-5.243,2.083" transform="translate(-2671.69 -13.293)" fill="#405b89"/>
      <path id="Path_85612" data-name="Path 85612" d="M2255.219,210.285a3.75,3.75,0,0,1-.23-5.382c1.559-1.946,5.981-2.166,5.981-2.166s.752,4.363-.806,6.31-3.516,2.382-4.945,1.238" transform="translate(-2063.694 -185.622)" fill="#d5e6f6"/>
      <path id="Path_85613" data-name="Path 85613" d="M2253.331,207.459a3.088,3.088,0,0,1-1.948-.7,3.727,3.727,0,0,1-1.359-2.626,4.629,4.629,0,0,1,1.078-3.226c1.634-2.04,6.039-2.282,6.226-2.291l.3-.015.05.292c.032.184.759,4.535-.875,6.576a5.135,5.135,0,0,1-2.7,1.894,3.237,3.237,0,0,1-.765.093m3.728-8.148c-1,.091-4.215.5-5.434,2.017a3.968,3.968,0,0,0-.933,2.757,3.017,3.017,0,0,0,1.11,2.155,2.4,2.4,0,0,0,2.136.476,4.481,4.481,0,0,0,2.338-1.662c1.22-1.522.913-4.745.782-5.743" transform="translate(-2060.067 -181.838)" fill="#405b89"/>
      <path id="Path_85614" data-name="Path 85614" d="M2366.916,338.33a2.638,2.638,0,0,1-.161-3.785c1.1-1.369,4.206-1.523,4.206-1.523s.529,3.068-.567,4.437-2.473,1.675-3.478.871" transform="translate(-2166.3 -304.909)" fill="#d5e6f6"/>
      <path id="Path_85615" data-name="Path 85615" d="M2364.583,335.32a2.27,2.27,0,0,1-1.431-.512,2.985,2.985,0,0,1-.213-4.255c1.176-1.469,4.318-1.641,4.45-1.648l.3-.015.05.292c.022.131.541,3.234-.636,4.7a3.709,3.709,0,0,1-1.955,1.366,2.379,2.379,0,0,1-.561.068m-1.013-1.034a1.593,1.593,0,0,0,1.416.316,3.057,3.057,0,0,0,1.591-1.134c.736-.919.666-2.884.543-3.869-.781.078-2.86.375-3.659,1.373a2.3,2.3,0,0,0,.109,3.314" transform="translate(-2162.745 -301.125)" fill="#405b89"/>
      <path id="Path_85616" data-name="Path 85616" d="M2560.143,297.58a2.887,2.887,0,1,1-2.887-2.887,2.887,2.887,0,0,1,2.887,2.887" transform="translate(-2338.73 -269.815)" fill="#405b89"/>
      <path id="Path_85617" data-name="Path 85617" d="M2720.618,297.58a2.887,2.887,0,1,1-2.887-2.887,2.887,2.887,0,0,1,2.887,2.887" transform="translate(-2485.658 -269.815)" fill="#405b89"/>
      <path id="Path_85618" data-name="Path 85618" d="M1943.391,61.5c2.765-3.77,9.048-13.069,3.9-16.463-3.142-1.382-5.781-1.257-6.032.88s.251,11.059,2.136,15.583" transform="translate(-1777.32 -40.405)" fill="#bbdbe9"/>
      <path id="Path_85619" data-name="Path 85619" d="M1783.522,253.579s-11.31-.754-13.7-.377-2.89,4.9-2.011,6.912c.563,1.287,2.513,2.639,6.786.628s8.922-7.163,8.922-7.163" transform="translate(-1618.205 -231.73)" fill="#bbdbe9"/>
      <path id="Path_85620" data-name="Path 85620" d="M1928.831,208.271c2.4,1.77,3.125,6.268.778,9.453s-6.873,3.851-9.276,2.081-2.448-5.787-.1-8.972,6.2-4.332,8.6-2.562" transform="translate(-1756.543 -189.928)" fill="#d5e6f6"/>
      <path id="Path_85621" data-name="Path 85621" d="M1918.1,215.887a5.9,5.9,0,0,1-3.518-1.061,5.3,5.3,0,0,1-2.036-4.355,8.932,8.932,0,0,1,1.828-5.32c2.507-3.4,6.68-4.6,9.3-2.668,2.56,1.886,3.482,6.63.885,10.156a8.03,8.03,0,0,1-4.924,3.093,7.887,7.887,0,0,1-1.538.155m2.631-13.331a7.279,7.279,0,0,0-5.547,3.192,7.926,7.926,0,0,0-1.632,4.713,4.321,4.321,0,0,0,1.627,3.557c2.134,1.572,6.343,1.052,8.573-1.974s1.462-7.178-.671-8.75a3.9,3.9,0,0,0-2.35-.736" transform="translate(-1751.091 -184.544)" fill="#405b89"/>
      <path id="Path_85622" data-name="Path 85622" d="M1924.553,286.359a3.728,3.728,0,1,1-3.728-3.728,3.728,3.728,0,0,1,3.728,3.728" transform="translate(-1755.257 -258.772)" fill="#fff"/>
      <path id="Path_85623" data-name="Path 85623" d="M1915.373,285.138a4.231,4.231,0,1,1,4.231-4.231,4.236,4.236,0,0,1-4.231,4.231m0-7.456a3.225,3.225,0,1,0,3.225,3.225,3.229,3.229,0,0,0-3.225-3.225" transform="translate(-1749.804 -253.319)" fill="#405b89"/>
      <path id="Path_85624" data-name="Path 85624" d="M1969.146,297.74a1.215,1.215,0,1,1-1.215-1.215,1.215,1.215,0,0,1,1.215,1.215" transform="translate(-1800.688 -271.493)" fill="#405b89"/>
      <path id="Path_85625" data-name="Path 85625" d="M1993.029,203.989a3.728,3.728,0,1,1-3.728-3.728,3.728,3.728,0,0,1,3.728,3.728" transform="translate(-1817.952 -183.355)" fill="#fff"/>
      <path id="Path_85626" data-name="Path 85626" d="M1983.85,202.769a4.231,4.231,0,1,1,4.231-4.231,4.236,4.236,0,0,1-4.231,4.231m0-7.456a3.225,3.225,0,1,0,3.225,3.226,3.229,3.229,0,0,0-3.225-3.226" transform="translate(-1812.5 -177.904)" fill="#405b89"/>
      <path id="Path_85627" data-name="Path 85627" d="M2037.624,215.37a1.215,1.215,0,1,1-1.215-1.215,1.215,1.215,0,0,1,1.215,1.215" transform="translate(-1863.384 -196.076)" fill="#405b89"/>
      <line id="Line_1025" data-name="Line 1025" x2="0.084" y2="3.854" transform="translate(170.972 30.143)" fill="#d5e6f6"/>
      <path id="Path_85628" data-name="Path 85628" d="M2017.176,353.491a.754.754,0,0,1-.754-.738l-.083-3.854a.754.754,0,1,1,1.508-.033l.084,3.854a.754.754,0,0,1-.738.77h-.017" transform="translate(-1846.12 -318.74)" fill="#405b89"/>
      <line id="Line_1026" data-name="Line 1026" x2="3.435" y2="0.084" transform="translate(174.407 25.703)" fill="#d5e6f6"/>
      <path id="Path_85629" data-name="Path 85629" d="M2061.218,297.122h-.019l-3.435-.084a.754.754,0,1,1,.037-1.508l3.435.084a.754.754,0,0,1-.018,1.508" transform="translate(-1883.375 -270.582)" fill="#405b89"/>
      <line id="Line_1027" data-name="Line 1027" x2="2.597" y2="2.513" transform="translate(172.899 28.467)" fill="#d5e6f6"/>
      <path id="Path_85630" data-name="Path 85630" d="M2042.515,332.3a.752.752,0,0,1-.524-.212l-2.6-2.513a.754.754,0,0,1,1.049-1.084l2.6,2.513a.754.754,0,0,1-.524,1.3" transform="translate(-1867.019 -300.569)" fill="#405b89"/>
      <path id="Path_85631" data-name="Path 85631" d="M2035.237,25.168l-.95-.329a4.02,4.02,0,0,0-.422-3.035,2.619,2.619,0,0,0-.973-1.159.119.119,0,0,0,.027,0V19.642c.6,0,1.166.671,1.451,1.07a5.2,5.2,0,0,1,.867,4.456" transform="translate(-1861.276 -17.984)" fill="#bbdbe9"/>
      <path id="Path_85632" data-name="Path 85632" d="M2061.714,17.5h-1a5.628,5.628,0,0,0-1.216-3.1l.757-.662a6.608,6.608,0,0,1,1.464,3.766" transform="translate(-1885.632 -12.576)" fill="#bbdbe9"/>
      <path id="Path_85633" data-name="Path 85633" d="M1743.51,230.269a2.227,2.227,0,0,1-.007-1.8,5.2,5.2,0,0,1,3.057-3.356l.3.958a4.022,4.022,0,0,0-2.183,2.15,2.622,2.622,0,0,0-.349,1.473.107.107,0,0,0-.014-.023Z" transform="translate(-1596.14 -206.106)" fill="#bbdbe9"/>
      <path id="Path_85634" data-name="Path 85634" d="M1720.892,224.554l-.983-.212a6.6,6.6,0,0,1,2.146-3.424l.6.807a5.625,5.625,0,0,0-1.764,2.829" transform="translate(-1574.715 -202.269)" fill="#bbdbe9"/>
    </g>
  </g>
</svg>
