<svg xmlns="http://www.w3.org/2000/svg" xmlns:xlink="http://www.w3.org/1999/xlink" width="12.469" height="12.275" viewBox="0 0 12.469 12.275">
  <defs>
    <clipPath id="clip-path">
      <rect id="Rectangle_8359" data-name="Rectangle 8359" width="12.469" height="12.275" fill="#707070"/>
    </clipPath>
  </defs>
  <g id="edit" clip-path="url(#clip-path)">
    <path id="Path_99904" data-name="Path 99904" d="M49.185,9.98a.735.735,0,0,1-.872-.779c.024-.452.078-.9.119-1.352.01-.108.026-.216.031-.324a1.1,1.1,0,0,1,.365-.734Q51.969,3.655,55.106.516a1.627,1.627,0,0,1,2.374,0,5.73,5.73,0,0,1,.5.533,1.558,1.558,0,0,1-.065,1.989c-.05.058-.1.114-.158.168q-3.052,3.052-6.1,6.107a1.644,1.644,0,0,1-1.158.559c-.461.016-.92.077-1.318.112m.013-.889c.486-.044.949-.09,1.413-.127a.442.442,0,0,0,.292-.148q2.535-2.539,5.074-5.074a1.155,1.155,0,0,1,.112-.089L54.65,2.215c-.008.007-.023.018-.035.03q-2.6,2.6-5.206,5.211a.279.279,0,0,0-.072.152c-.029.233-.051.468-.072.7-.023.252-.043.5-.066.781M56.726,3c.167-.167.335-.331.5-.5a.7.7,0,0,0,.028-.97,6.6,6.6,0,0,0-.489-.49.669.669,0,0,0-.852-.053c-.226.176-.421.391-.619.578L56.726,3" transform="translate(-46.995 0.001)" fill="#707070"/>
    <path id="Path_99905" data-name="Path 99905" d="M6.235,418.355H11.97a.445.445,0,0,1,.494.5.426.426,0,0,1-.353.362,1.288,1.288,0,0,1-.19.011q-5.688,0-11.375,0A.817.817,0,0,1,.28,419.2a.419.419,0,0,1-.274-.475.442.442,0,0,1,.4-.366c.049,0,.1,0,.149,0H6.235" transform="translate(0 -406.958)" fill="#707070"/>
  </g>
</svg>
