<svg xmlns="http://www.w3.org/2000/svg" xmlns:xlink="http://www.w3.org/1999/xlink" width="771.054" height="146.839" viewBox="0 0 771.054 146.839">
  <defs>
    <linearGradient id="linear-gradient" x1="0.5" x2="0.5" y2="2.799" gradientUnits="objectBoundingBox">
      <stop offset="0" stop-color="#6e0d88"/>
      <stop offset="1" stop-color="#e1003e"/>
    </linearGradient>
  </defs>
  <g id="Group_16448" data-name="Group 16448" transform="translate(-2367.473 -1270.655)">
    <path id="Union_86" data-name="Union 86" d="M.649,68.6H.266v-.185L0,68.285H.266V37a37,37,0,0,1,37-37H733.973a37,37,0,0,1,37,37V68.285h.082l-.082.035V68.6h-.649a965.038,965.038,0,0,1-382.159,78.241C168.157,146.83,11.879,73.974.649,68.6Z" transform="translate(2367.472 1270.655)" fill="url(#linear-gradient)"/>
    <g id="Layer_2" data-name="Layer 2" transform="matrix(-0.777, 0.629, -0.629, -0.777, 2471.584, 1343.939)">
      <g id="Layer_1" data-name="Layer 1" transform="translate(-0.002 -0.018)">
        <path id="Path_78850" data-name="Path 78850" d="M16.65,4.084a8.9,8.9,0,0,1-2.984,12.259A8.972,8.972,0,0,1,1.287,13.619a8.9,8.9,0,0,1,3.1-12.233,8.83,8.83,0,0,1,12.268,2.7" transform="translate(0.002 0.018)" fill="#fdec07"/>
        <path id="Path_78851" data-name="Path 78851" d="M290.231,345.54a5.846,5.846,0,1,1-7.961-1.753,5.784,5.784,0,0,1,7.961,1.753" transform="translate(-260.235 -319.305)" fill="#fdec07"/>
        <path id="Path_78852" data-name="Path 78852" d="M434.023,650.283a4.1,4.1,0,1,1-5.532-1.214,4.018,4.018,0,0,1,5.532,1.214" transform="translate(-397.122 -603.805)" fill="#fdec07"/>
      </g>
    </g>
    <g id="Layer_2-2" data-name="Layer 2" transform="matrix(0.695, 0.719, -0.719, 0.695, 3079.79, 1303.536)">
      <g id="Layer_1-2" data-name="Layer 1" transform="translate(0 0)">
        <path id="Path_78850-2" data-name="Path 78850" d="M16.651,13.654A8.9,8.9,0,0,0,13.668,1.395,8.973,8.973,0,0,0,1.289,4.118a8.9,8.9,0,0,0,3.1,12.233,8.83,8.83,0,0,0,12.268-2.7" transform="translate(0 34.873)" fill="#fdec07"/>
        <path id="Path_78851-2" data-name="Path 78851" d="M10.756,8.824A5.784,5.784,0,0,0,8.793.911,5.74,5.74,0,0,0,.826,2.659a5.8,5.8,0,0,0,1.969,7.917,5.842,5.842,0,0,0,7.961-1.751" transform="translate(19.24 17.569)" fill="#fdec07"/>
        <path id="Path_78852-2" data-name="Path 78852" d="M7.54,6.151A4.018,4.018,0,0,0,6.177.649a4.043,4.043,0,0,0-5.6,1.175,4.042,4.042,0,0,0,1.433,5.54A4.019,4.019,0,0,0,7.542,6.15" transform="translate(29.361)" fill="#fdec07"/>
      </g>
    </g>
  </g>
</svg>