<svg xmlns="http://www.w3.org/2000/svg" width="15.638" height="17.633" viewBox="0 0 15.638 17.633">
  <path id="Icon-weather-stars" d="M9.24,9.464a4.245,4.245,0,0,0,2.965-1.358,4.228,4.228,0,0,0,1.219-3.03,4.228,4.228,0,0,0,1.219,3.03,4.287,4.287,0,0,0,2.974,1.358,4.281,4.281,0,0,0-2.115.656,4.439,4.439,0,0,0-1.524,1.6,4.344,4.344,0,0,0-.554,2.152A4.423,4.423,0,0,0,9.24,9.464Zm3.067,9.948a3.3,3.3,0,0,0,3.15-3.3,3.3,3.3,0,0,0,3.141,3.3,3.3,3.3,0,0,0-3.141,3.3,3.181,3.181,0,0,0-.914-2.282A3.236,3.236,0,0,0,12.307,19.412Zm6.29-4.378a3.284,3.284,0,0,0,3.131-3.307,3.3,3.3,0,0,0,3.15,3.3,3.3,3.3,0,0,0-3.15,3.3A3.267,3.267,0,0,0,18.6,15.033Z" transform="translate(-9.24 -5.076)" fill="#fff"/>
</svg>
