<svg xmlns="http://www.w3.org/2000/svg" width="21.283" height="18.091" viewBox="0 0 21.283 18.091">
  <g id="map" transform="translate(0.5 0.489)">
    <g id="Group_20007" data-name="Group 20007" transform="translate(0 0)">
      <path id="Path_99870" data-name="Path 99870" d="M20.283,5.9v8.79a.652.652,0,0,1-.411.31q-2.184.712-4.365,1.434c-.666.221-1.341.419-2,.672h-.238c-.042-.018-.082-.04-.125-.054q-3.055-1.006-6.109-2.015a.509.509,0,0,0-.343.018q-2.1.691-4.2,1.383c-.661.219-1.319.445-1.979.668H.281A.527.527,0,0,1,0,16.567Q.009,9.629,0,2.692c0-.386.06-.471.418-.589q3.1-1.02,6.205-2.043a.8.8,0,0,1,.536,0q3.016,1,6.035,1.992a.573.573,0,0,0,.382,0q3.026-1,6.054-2c.336-.111.457-.07.648.218V2.651c-.012.015-.026.029-.037.046a.4.4,0,0,1-.461.219.412.412,0,0,1-.293-.44c0-.165,0-.33,0-.495V.949l-.2.063c-1.768.582-3.536,1.168-5.306,1.743a.245.245,0,0,0-.208.283q.007,6.451,0,12.9v.21c.079-.024.141-.043.2-.063q2.652-.873,5.306-1.743c.147-.048.2-.1.2-.268q-.01-3.948,0-7.9a1.36,1.36,0,0,1,.007-.217.393.393,0,0,1,.693-.191,1.344,1.344,0,0,1,.092.127M.8,16.15c.08-.025.143-.043.2-.063q2.653-.873,5.307-1.743a.234.234,0,0,0,.2-.27Q6.5,7.622,6.5,1.17A.362.362,0,0,0,6.475.957l-.17.055C4.537,1.594,2.769,2.18,1,2.755a.245.245,0,0,0-.207.283Q.8,9.489.8,15.941ZM7.3.949c0,.063-.006.1-.006.141q0,6.511,0,13.022a.192.192,0,0,0,.159.22q1.755.57,3.507,1.15l2.033.67c0-.055.009-.093.009-.131Q13,9.5,13,2.979c0-.137-.057-.175-.169-.212-.832-.27-1.662-.547-2.494-.82L7.3.949" transform="translate(0 0)" fill="#1a1818" stroke="#000" stroke-width="1"/>
      <path id="Path_99871" data-name="Path 99871" d="M492.019,98.14c-.027.036-.053.073-.081.108a.368.368,0,0,1-.433.141.373.373,0,0,1-.273-.386.366.366,0,0,1,.28-.362.37.37,0,0,1,.443.166c.021.033.044.064.066.1Z" transform="translate(-471.736 -93.747)" fill="#1a1818" stroke="#000" stroke-width="1"/>
    </g>
  </g>
</svg>
