<svg id="meeting" xmlns="http://www.w3.org/2000/svg" xmlns:xlink="http://www.w3.org/1999/xlink" width="17.411" height="19.229" viewBox="0 0 17.411 19.229">
  <defs>
    <clipPath id="clip-path">
      <rect id="Rectangle_8295" data-name="Rectangle 8295" width="17.411" height="19.229" fill="#6e0d88"/>
    </clipPath>
  </defs>
  <g id="Group_19929" data-name="Group 19929" clip-path="url(#clip-path)">
    <path id="Path_99831" data-name="Path 99831" d="M17.411,5.775v9.081c-.07.312-.133.626-.21.937A4.178,4.178,0,0,1,15.05,18.61a5.891,5.891,0,0,1-2.832.619c-2.356-.007-4.712.006-7.067-.009a7.93,7.93,0,0,1-1.521-.148,4.252,4.252,0,0,1-2.588-1.528,4.693,4.693,0,0,1-1.022-2.9C-.017,11.828.009,9.011.007,6.194a5.461,5.461,0,0,1,.28-1.724A4.2,4.2,0,0,1,1.668,2.415,4.442,4.442,0,0,1,3.737,1.5c.237-.039.472-.088.705-.133,0-.15.009-.276,0-.4A.847.847,0,0,1,5.028,0h.126a.408.408,0,0,0,.083.039.634.634,0,0,1,.548.676,6.293,6.293,0,0,0,0,.635H11.6V1.192c0-.153,0-.306,0-.46A.74.74,0,0,1,12.223,0h.084c.013.013.025.035.04.038a.658.658,0,0,1,.588.727c0,.167-.009.335.005.5a.2.2,0,0,0,.112.15c.265.054.537.08.8.133a4.264,4.264,0,0,1,1.971.949,4.321,4.321,0,0,1,1.423,2.513c.051.255.108.508.163.762M1.356,6.318l.032.032c.055,0,.111.007.166.007H15.864c.055,0,.111,0,.166-.007l.032-.032c-.038-.325-.062-.652-.117-.974A2.831,2.831,0,0,0,14.05,2.992a10.283,10.283,0,0,0-1.114-.273c0,.277.014.493,0,.707a.662.662,0,0,1-.677.63A.69.69,0,0,1,11.6,3.43c-.005-.235,0-.469,0-.7H5.781c0,.235-.014.458,0,.678a.679.679,0,0,1-.594.649.669.669,0,0,1-.7-.5c-.042-.256-.048-.518-.071-.8-.2.032-.4.056-.594.1a2.941,2.941,0,0,0-1.44.7A3.571,3.571,0,0,0,1.356,6.318M1.346,7.7c0,.953-.005,1.887,0,2.82.01,1.461.005,2.923.058,4.383a3.462,3.462,0,0,0,.327,1.219,2.868,2.868,0,0,0,2.747,1.721c2.669.065,5.341.021,8.011.024a4.6,4.6,0,0,0,1.389-.213,2.859,2.859,0,0,0,1.8-1.545,4.915,4.915,0,0,0,.384-2.137c.024-2.029.008-4.059.008-6.088,0-.06-.006-.12-.009-.185Z" transform="translate(0)" fill="#6e0d88"/>
    <path id="Path_99832" data-name="Path 99832" d="M32.328,150.661l.032.032-.032-.032" transform="translate(-30.972 -144.343)" fill="#6e0d88"/>
    <path id="Path_99833" data-name="Path 99833" d="M382.238,150.7l.032-.032-.032.032" transform="translate(-366.208 -144.348)" fill="#6e0d88"/>
    <path id="Path_99834" data-name="Path 99834" d="M186.866,316.87a.862.862,0,0,1-.877-.9.834.834,0,0,1,.81-.865.87.87,0,0,1,.982.934.9.9,0,0,1-.915.83" transform="translate(-178.189 -301.889)" fill="#e1003e"/>
    <path id="Path_99835" data-name="Path 99835" d="M261.422,242.27a.879.879,0,1,1,.065-1.756.848.848,0,0,1,.846.868.86.86,0,0,1-.91.888" transform="translate(-249.615 -230.428)" fill="#e1003e"/>
    <path id="Path_99836" data-name="Path 99836" d="M261.413,317.049a.891.891,0,0,1-.878-.907c0-.538.361-.848.976-.852a.827.827,0,0,1,.814.867.863.863,0,0,1-.912.892" transform="translate(-249.609 -302.068)" fill="#e1003e"/>
    <path id="Path_99837" data-name="Path 99837" d="M111.818,241.174a.855.855,0,0,1,.917-.873.887.887,0,1,1-.108,1.77.863.863,0,0,1-.808-.9" transform="translate(-107.126 -230.221)" fill="#e1003e"/>
    <path id="Path_99838" data-name="Path 99838" d="M186.811,242.158a.862.862,0,0,1-.9-.877.871.871,0,0,1,.914-.883.886.886,0,0,1,.879.89.876.876,0,0,1-.9.87" transform="translate(-178.119 -230.316)" fill="#e1003e"/>
    <path id="Path_99839" data-name="Path 99839" d="M112.626,315.313c.59,0,.886.333.893.972a.885.885,0,0,1-1.765-.13.829.829,0,0,1,.872-.843" transform="translate(-107.066 -302.09)" fill="#e1003e"/>
  </g>
</svg>
