<svg xmlns="http://www.w3.org/2000/svg" width="22.504" height="17.249" viewBox="0 0 22.504 17.249">
  <g id="my-meeting" transform="translate(-1109.656 -1181.901)">
    <g id="Group_19985" data-name="Group 19985" transform="translate(1109.806 1182)">
      <g id="Group_19986" data-name="Group 19986">
        <path id="Path_99851" data-name="Path 99851" d="M0,145.271c.025.059,0,.125.029.191,0-.043.009-.079.009-.114a3.014,3.014,0,0,1,.219-1.037A4.14,4.14,0,0,1,2.4,141.968c.019-.009.04-.017.058-.028s.055-.009.056-.034-.033-.03-.051-.043a2.912,2.912,0,0,1,.775-5.128,2.8,2.8,0,0,1,1.865,0,2.864,2.864,0,0,1,1.746,1.623,2.709,2.709,0,0,1,.226,1.352,2.891,2.891,0,0,1-.666,1.649,3.162,3.162,0,0,1-.573.526l-.025.019c.11.054.22.1.324.156a4.179,4.179,0,0,1,1.888,2.114,3.935,3.935,0,0,1,.292,1.27c.029.489.008.978.014,1.468,0,.11,0,.22,0,.33a.418.418,0,0,1-.373.389,1.159,1.159,0,0,1-.135.008H.724a1.642,1.642,0,0,1-.389-.018.407.407,0,0,1-.312-.305c0-.012,0-.035-.023-.019Zm4.164,1.5h1.62q.81,0,1.62,0c.045,0,.057-.01.057-.056q0-.55,0-1.1a2.731,2.731,0,0,0-.025-.362,3.191,3.191,0,0,0-.57-1.422,3.264,3.264,0,0,0-1.357-1.112,3.338,3.338,0,0,0-1.842-.248,3.029,3.029,0,0,0-.858.253,3.282,3.282,0,0,0-1.94,2.962c0,.323,0,.646,0,.97,0,.114,0,.113.115.113H4.164M6.221,139.5a2.056,2.056,0,1,0-2.1,2.048,2.054,2.054,0,0,0,2.1-2.048" transform="translate(0 -130.643)" fill="#6e0d88" stroke="#6e0d88" stroke-width="0.3"/>
        <path id="Path_99852" data-name="Path 99852" d="M325.039,141.977a2.952,2.952,0,0,1,.426.215,4.2,4.2,0,0,1,2.1,3.651c0,.468,0,.935,0,1.4a.442.442,0,0,1-.31.436.805.805,0,0,1-.247.024h-5.3q-1.008,0-2.016,0a.428.428,0,0,1-.428-.263.5.5,0,0,1-.035-.207c0-.538-.007-1.076,0-1.614a3.825,3.825,0,0,1,.212-1.134,4.146,4.146,0,0,1,.994-1.612,4.2,4.2,0,0,1,1.281-.882c.01,0,.021-.007.027-.017a2.889,2.889,0,0,1-1.268-2.5,2.782,2.782,0,0,1,.936-2.045,2.917,2.917,0,1,1,3.624,4.553m-1.644,4.857h0q1.623,0,3.246,0c.045,0,.053-.014.052-.055,0-.271,0-.542,0-.813a5.206,5.206,0,0,0-.028-.611,3.031,3.031,0,0,0-.316-1.029,3.278,3.278,0,0,0-3.137-1.821,3.171,3.171,0,0,0-1.313.346,3.256,3.256,0,0,0-1.428,1.412,3,3,0,0,0-.369,1.349c-.01.392,0,.784-.006,1.176,0,.036.01.045.046.045H323.4m0-5.216a2.054,2.054,0,1,0-2.06-2.044,2.067,2.067,0,0,0,2.06,2.044" transform="translate(-305.357 -130.708)" fill="#6e0d88" stroke="#6e0d88" stroke-width="0.3"/>
        <path id="Path_99853" data-name="Path 99853" d="M161.726,0c.94,0,1.879,0,2.819,0a1.386,1.386,0,0,1,1.313.961,1.433,1.433,0,0,1,.075.468q0,2.1,0,4.2a1.418,1.418,0,0,1-1.224,1.4,1.98,1.98,0,0,1-.248.016h-2.6a.1.1,0,0,1-.022,0,.27.27,0,0,0-.271.11c-.475.481-.954.957-1.431,1.435a.52.52,0,0,1-.253.159.437.437,0,0,1-.508-.338.953.953,0,0,1-.014-.183c0-.376,0-.751,0-1.127,0-.042-.009-.056-.054-.056-.146,0-.293,0-.439,0a1.393,1.393,0,0,1-.974-.457,1.438,1.438,0,0,1-.381-1.029c0-1.374,0-2.748,0-4.122A1.421,1.421,0,0,1,158.581.043,1.282,1.282,0,0,1,158.9,0h2.83M160.24,7.278c.014-.017.024-.032.036-.045.3-.3.593-.592.886-.892a.529.529,0,0,1,.4-.169c.979,0,1.958,0,2.938,0a.535.535,0,0,0,.566-.557q0-.94,0-1.88c0-.78,0-1.56,0-2.34a.519.519,0,0,0-.251-.459.659.659,0,0,0-.369-.084c-1.277.005-2.554-.007-3.832.007-.508.006-1.015,0-1.523,0-.072,0-.145,0-.217,0a.523.523,0,0,0-.488.456,2.244,2.244,0,0,0-.005.3q0,1.72,0,3.44c0,.186,0,.372,0,.558a.537.537,0,0,0,.071.28.528.528,0,0,0,.467.276c.287,0,.574,0,.862,0a.423.423,0,0,1,.443.405c.015.209.006.419.005.628,0,.019-.01.039.015.066" transform="translate(-150.668 -0.001)" fill="#e1003e" stroke="#e1003e" stroke-width="0.2"/>
        <path id="Path_99854" data-name="Path 99854" d="M245.954,251.957a.43.43,0,1,1,.437-.429.434.434,0,0,1-.437.429" transform="translate(-234.856 -240.188)" fill="#6e0d88" stroke="#6e0d88" stroke-width="0.3"/>
        <path id="Path_99855" data-name="Path 99855" d="M194.965,251.1a.429.429,0,1,1-.434.421.431.431,0,0,1,.434-.421" transform="translate(-186.078 -240.191)" fill="#6e0d88" stroke="#6e0d88" stroke-width="0.3"/>
        <path id="Path_99856" data-name="Path 99856" d="M297.153,251.1a.434.434,0,0,1,.428.434.429.429,0,0,1-.857,0,.433.433,0,0,1,.429-.432" transform="translate(-283.831 -240.19)" fill="#6e0d88" stroke="#6e0d88" stroke-width="0.3"/>
      </g>
    </g>
  </g>
</svg>
