<svg xmlns="http://www.w3.org/2000/svg" xmlns:xlink="http://www.w3.org/1999/xlink" width="26" height="16" viewBox="0 0 26 16">
  <defs>
    <clipPath id="clip-path">
      <rect id="Rectangle_8303" data-name="Rectangle 8303" width="26" height="16" transform="translate(0 -0.468)" fill="#6e0d88"/>
    </clipPath>
  </defs>
  <g id="my-team" transform="translate(0 0.468)">
    <g id="Group_19962" data-name="Group 19962" clip-path="url(#clip-path)">
      <path id="Path_99840" data-name="Path 99840" d="M380.537,216.518a.892.892,0,0,0-.037.1.847.847,0,0,1-.736.639.886.886,0,0,1-.918-.587,1.108,1.108,0,0,1-.052-.267,1.672,1.672,0,0,0-.173-.57,1.625,1.625,0,0,0-.877-.8,1.661,1.661,0,0,0-.643-.128c-.624,0-1.247,0-1.871,0a1.609,1.609,0,0,0-.558.114.845.845,0,0,1-1.065-.375.781.781,0,0,1-.122-.466.871.871,0,0,1,.683-.808c.169-.034.337-.073.507-.1a3.218,3.218,0,0,1,.322-.047c.126-.011.252-.016.379-.016.615,0,1.23,0,1.846,0a3,3,0,0,1,.771.12,3.451,3.451,0,0,1,2.5,2.731c.005.027,0,.056,0,.082s.024.021.037.032Z" transform="translate(-354.464 -202.348)" fill="#6e0d88"/>
      <path id="Path_99841" data-name="Path 99841" d="M0,216.166l.034,0a2.11,2.11,0,0,1,.12-.568,3.463,3.463,0,0,1,2.272-2.24,3.113,3.113,0,0,1,.681-.14c.117-.01.236-.014.354-.014.628,0,1.256-.006,1.884.006a4.385,4.385,0,0,1,.616.081c.151.024.3.057.45.093a.8.8,0,0,1,.479.355.869.869,0,0,1-.49,1.317.815.815,0,0,1-.551-.036,1.3,1.3,0,0,0-.532-.11c-.7,0-1.392-.007-2.087.007a1.416,1.416,0,0,0-.729.256,1.763,1.763,0,0,0-.677.828,1.867,1.867,0,0,0-.106.474.852.852,0,0,1-.646.757.791.791,0,0,1-.519-.024.867.867,0,0,1-.53-.609c0-.008-.016-.013-.024-.019v-.41" transform="translate(0 -202.342)" fill="#6e0d88"/>
      <path id="Path_99842" data-name="Path 99842" d="M249.243.049c0-.016,0-.033,0-.049h.458q0,.022,0,.044l-.459,0" transform="translate(-236.55)" fill="#6e0d88"/>
      <path id="Path_99843" data-name="Path 99843" d="M359.143,304.336l0,.034H359c0-.009,0-.018,0-.028l.142-.006" transform="translate(-340.718 -288.838)" fill="#6e0d88"/>
      <path id="Path_99844" data-name="Path 99844" d="M174.875.874l.459,0c.155.01.313.009.465.034a5.97,5.97,0,0,1,.653.141,4.157,4.157,0,0,1,1.728.986,4.224,4.224,0,0,1,1.126,1.729,4.32,4.32,0,0,1,.139.483,3.593,3.593,0,0,1,.075.5,5.637,5.637,0,0,1,.025.725,4.386,4.386,0,0,1-.1.691,4.206,4.206,0,0,1-.615,1.44,4.336,4.336,0,0,1-3.054,1.9,5.125,5.125,0,0,1-.865.035,2.5,2.5,0,0,1-.389-.051,3.785,3.785,0,0,1-.551-.13,6.239,6.239,0,0,1-.794-.336,4.222,4.222,0,0,1-1.726-1.679,3.792,3.792,0,0,1-.259-.52A5.228,5.228,0,0,1,171,6.164a3.7,3.7,0,0,1-.1-.6c-.017-.241-.008-.484,0-.726a2.569,2.569,0,0,1,.1-.607,4.421,4.421,0,0,1,.153-.523,5.212,5.212,0,0,1,.321-.679,4.246,4.246,0,0,1,2.327-1.926,6.618,6.618,0,0,1,.7-.19,3.217,3.217,0,0,1,.38-.043m-2.261,4.412a2.594,2.594,0,0,0,2.8,2.514,2.516,2.516,0,0,0,1.683-.788,2.555,2.555,0,0,0,.71-2.148,2.606,2.606,0,0,0-5.19.423" transform="translate(-162.182 -0.826)" fill="#e1003e"/>
      <path id="Path_99845" data-name="Path 99845" d="M361.88,51.745a3.465,3.465,0,0,1,3.466,3.2,3.476,3.476,0,1,1-6.007-2.091,3.445,3.445,0,0,1,2.541-1.107m.08,1.743a1.733,1.733,0,0,0-1.806,1.929,1.647,1.647,0,0,0,.465.991,1.738,1.738,0,0,0,3-1.3,1.7,1.7,0,0,0-1.657-1.623" transform="translate(-340.153 -49.109)" fill="#e1003e"/>
      <path id="Path_99846" data-name="Path 99846" d="M16.852,55.213a3.505,3.505,0,0,1,1-2.439,3.336,3.336,0,0,1,2.244-1.047,3.386,3.386,0,0,1,2.7,1.017,3.47,3.47,0,0,1-.026,4.925,3.465,3.465,0,0,1-4.816.041,3.455,3.455,0,0,1-1.1-2.5m3.48-1.749a1.631,1.631,0,0,0-1.285.569,1.709,1.709,0,0,0-.443,1.341,1.675,1.675,0,0,0,.512,1.047,1.734,1.734,0,0,0,2.483-.04,1.667,1.667,0,0,0,.466-1.332,1.709,1.709,0,0,0-1.733-1.586" transform="translate(-15.994 -49.084)" fill="#e1003e"/>
      <path id="Path_99847" data-name="Path 99847" d="M148.243,207.186l-.142.006a.886.886,0,0,1-.876-.684,2.454,2.454,0,0,1-.053-.345,2.46,2.46,0,0,0-.23-.762,2.97,2.97,0,0,0-1.6-1.521,2.132,2.132,0,0,0-.672-.174c-.224-.015-.448-.042-.673-.043-.847,0-1.693,0-2.54,0a2.918,2.918,0,0,0-1.829.649,2.96,2.96,0,0,0-.932,1.256,2.858,2.858,0,0,0-.182.713.865.865,0,0,1-.5.718.787.787,0,0,1-.559.065.881.881,0,0,1-.6-.522.824.824,0,0,1-.056-.442,4.494,4.494,0,0,1,.184-.835,4.733,4.733,0,0,1,2.442-2.8,6.006,6.006,0,0,1,.681-.269,3.577,3.577,0,0,1,.459-.125,3.276,3.276,0,0,1,.45-.065c.244-.016.489-.026.733-.027q1.235,0,2.47,0a4.376,4.376,0,0,1,.622.042c.223.033.443.092.662.146a4.281,4.281,0,0,1,1.237.542,4.6,4.6,0,0,1,1.684,1.838,5.109,5.109,0,0,1,.3.711,5.344,5.344,0,0,1,.162.665,2.387,2.387,0,0,1,.05.447.777.777,0,0,1-.423.723,1.778,1.778,0,0,1-.259.1" transform="translate(-129.818 -191.688)" fill="#6e0d88"/>
    </g>
  </g>
</svg>
