<svg xmlns="http://www.w3.org/2000/svg" xmlns:xlink="http://www.w3.org/1999/xlink" width="42.177" height="42.177" viewBox="0 0 42.177 42.177">
  <defs>
    <clipPath id="clip-path">
      <rect id="Rectangle_6497" data-name="Rectangle 6497" width="25.068" height="25.704" fill="none"/>
    </clipPath>
    <clipPath id="clip-path-3">
      <rect id="Rectangle_6495" data-name="Rectangle 6495" width="0.853" height="0.509" fill="none"/>
    </clipPath>
  </defs>
  <g id="plan-active" transform="translate(-705.526 -153)">
    <path id="Path_99841" data-name="Path 99841" d="M6.6,0H35.572a6.6,6.6,0,0,1,6.6,6.6V35.572a6.6,6.6,0,0,1-6.6,6.6H6.6a6.6,6.6,0,0,1-6.6-6.6V6.6A6.6,6.6,0,0,1,6.6,0Z" transform="translate(705.526 153)" fill="#eaeffc"/>
    <g id="Group_19923" data-name="Group 19923" transform="translate(713.689 160.885)">
      <g id="Group_16368" data-name="Group 16368" clip-path="url(#clip-path)">
        <g id="Group_16367" data-name="Group 16367">
          <g id="Group_16366" data-name="Group 16366" clip-path="url(#clip-path)">
            <path id="Path_83185" data-name="Path 83185" d="M13.432,111.711a2.746,2.746,0,0,1-2.934,1.222,2.572,2.572,0,0,1-1.9-2.508,2.43,2.43,0,0,1,2.148-2.252,2.766,2.766,0,0,1,2.6,1.654,1.777,1.777,0,0,1,.056,1.58Z" transform="translate(-6.974 -87.765)" fill="#685434"/>
            <path id="Path_83186" data-name="Path 83186" d="M75.466,99.4c0,.251-.073,1.258-.11,1.506a.345.345,0,0,1-.038.129.353.353,0,0,1-.1.1,1.271,1.271,0,0,1-.486.248.643.643,0,0,1-.547-.16.176.176,0,0,1-.049-.066.207.207,0,0,1-.006-.086q.033-.474.067-.948c.34-.056.7-.714,1.04-.741Z" transform="translate(-60.105 -80.634)" fill="#f6a472"/>
            <path id="Path_83187" data-name="Path 83187" d="M73.714,104.655l-.576.57a.4.4,0,0,1-.26.149c-.286,0-.312-.534-.6-.553-.175-.012-.281.185-.333.352a1.069,1.069,0,0,0-.026.758.866.866,0,0,0,.621.432c.255.056.52.047.78.079.345.043.679.158,1.026.18a3.092,3.092,0,0,0,1.314-.265c.183-.072.388-.183.413-.377a.4.4,0,0,0-.2-.364,1.365,1.365,0,0,0-.412-.147,5.65,5.65,0,0,1-1.746-.777Z" transform="translate(-58.27 -84.916)" fill="#363644"/>
            <path id="Path_83188" data-name="Path 83188" d="M38.288,61.349q1.691.281,3.367.647a2.346,2.346,0,0,1,1.306.594,1.83,1.83,0,0,1,.338.629,6.652,6.652,0,0,1,.209,2.8,25.883,25.883,0,0,0-.238,2.818,3.205,3.205,0,0,1-1.7.288c.1-1.51-.329-2.52-.235-4.031a.2.2,0,0,0-.011-.1c-.036-.072-.137-.073-.217-.062a15.379,15.379,0,0,1-5.778-.214,1.625,1.625,0,0,1-1.235-.852,1.442,1.442,0,0,1-.058-.493,4.514,4.514,0,0,1,.091-.828.458.458,0,0,1,.089-.22.481.481,0,0,1,.273-.122,14.763,14.763,0,0,0,3.11-1.1Z" transform="translate(-27.599 -49.578)" fill="#931c19"/>
            <path id="Path_83189" data-name="Path 83189" d="M35.684,12.609a.537.537,0,0,0-.11.629,2.444,2.444,0,0,1,.133.225.365.365,0,0,1-.429.488.919.919,0,0,0,.676.286.735.735,0,0,0,.618-.371,1.855,1.855,0,0,0,.127-.42,2.2,2.2,0,0,1,.462-.891Z" transform="translate(-28.606 -10.187)" fill="#7f4924"/>
            <path id="Path_83190" data-name="Path 83190" d="M50.833,37.49c.749.982,2.164,1.124,3.205,1.791a7.037,7.037,0,0,0,1.242.795,10.173,10.173,0,0,0,1.315.25c.116.027.261.132.194.231a.2.2,0,0,1-.111.064,2.121,2.121,0,0,1-1.973-.053l-4.32-1.958.389-1.044Z" transform="translate(-40.856 -30.419)" fill="#cc784a"/>
            <path id="Path_83191" data-name="Path 83191" d="M70.482,100.621c0,.251-.073,1.258-.11,1.506a.339.339,0,0,1-.038.129.351.351,0,0,1-.1.1,1.271,1.271,0,0,1-.486.248.643.643,0,0,1-.547-.16.177.177,0,0,1-.049-.066.21.21,0,0,1-.006-.086q.033-.474.067-.948c.34-.056.7-.714,1.04-.741Z" transform="translate(-56.063 -81.626)" fill="#f6a472"/>
            <path id="Path_83192" data-name="Path 83192" d="M34.128,77.713a2.893,2.893,0,0,1-.052.631.424.424,0,0,1-.107.24.457.457,0,0,1-.3.083,18.535,18.535,0,0,1-1.969-.041c-.868-.065-1.73-.191-2.589-.337a2.05,2.05,0,0,1-1.055-.4.72.72,0,0,1-.11-1.009,1.016,1.016,0,0,1,.723-.191,11.883,11.883,0,0,1,3.487.549,5.6,5.6,0,0,0,1.188.3,1.434,1.434,0,0,1,.865.2Z" transform="translate(-22.529 -62.227)" fill="#363644"/>
            <path id="Path_83193" data-name="Path 83193" d="M16.454,114.254a1.78,1.78,0,0,1-1.9.792,1.668,1.668,0,0,1-1.229-1.626,1.575,1.575,0,0,1,1.393-1.46,1.793,1.793,0,0,1,1.685,1.073,1.152,1.152,0,0,1,.036,1.024Z" transform="translate(-10.802 -90.84)"/>
            <path id="Path_83194" data-name="Path 83194" d="M100.52,112.383a1.786,1.786,0,0,1-.389.923.967.967,0,0,1-.311.284.438.438,0,0,1-.408.01.456.456,0,0,1-.2-.423,1.341,1.341,0,0,1,.142-.468.417.417,0,0,1,.062-.108.4.4,0,0,1,.185-.1,3.784,3.784,0,0,1,.814-.172Z" transform="translate(-80.448 -91.142)" fill="#363644"/>
            <path id="Path_83195" data-name="Path 83195" d="M104.182,109.818a2.954,2.954,0,1,0-2.962-2.954,2.961,2.961,0,0,0,2.962,2.954m0-5.249a2.295,2.295,0,1,1-2.3,2.295,2.3,2.3,0,0,1,2.3-2.295" transform="translate(-82.076 -84.312)"/>
            <path id="Path_83196" data-name="Path 83196" d="M103.535,83.594a.433.433,0,0,1,.517-.391h.005a.624.624,0,0,1,.408.308,1.23,1.23,0,0,1,.108.506l.029.421a1.175,1.175,0,0,1-.011.35c-.027.114-.1.153-.207.2a.632.632,0,0,1-.3.1.58.58,0,0,1-.389-.134.539.539,0,0,1-.111-.269,2.671,2.671,0,0,1-.052-1.075Z" transform="translate(-83.926 -67.503)" fill="#363644"/>
            <path id="Path_83197" data-name="Path 83197" d="M106.866,83.35a4.858,4.858,0,0,1,.051,1.814h0a.406.406,0,0,0,.447-.359,2.537,2.537,0,0,0-.2-1.3.468.468,0,0,0-.119-.179.182.182,0,0,0-.2-.027Z" transform="translate(-86.638 -67.574)" fill="#e15046"/>
            <path id="Path_83198" data-name="Path 83198" d="M13.718,89.412a5.6,5.6,0,0,0-1.237-.092H10.789a1.409,1.409,0,0,0-.474.054.476.476,0,0,0-.32.328.214.214,0,0,0,.05.2.292.292,0,0,0,.162.058,10.985,10.985,0,0,1,2.574.255,1.539,1.539,0,0,0-.035.864.3.3,0,0,0,.079.157c.1.083.241.033.364,0a.985.985,0,0,1,.976.319.252.252,0,0,0,.112.1.154.154,0,0,0,.173-.132.444.444,0,0,0-.046-.237l-.71-1.79Z" transform="translate(-8.1 -72.473)" fill="#363644"/>
            <path id="Path_83199" data-name="Path 83199" d="M8.335,110.866a2.954,2.954,0,1,0-2.962-2.954,2.961,2.961,0,0,0,2.962,2.954m0-5.249a2.295,2.295,0,1,1-2.3,2.295,2.3,2.3,0,0,1,2.3-2.295" transform="translate(-4.357 -85.162)"/>
            <path id="Path_83200" data-name="Path 83200" d="M33.117,61.911q1.691.281,3.367.647a2.346,2.346,0,0,1,1.306.594,1.83,1.83,0,0,1,.338.629,6.652,6.652,0,0,1,.209,2.8A25.88,25.88,0,0,0,38.1,69.4a3.205,3.205,0,0,1-1.7.288c.1-1.51-.329-2.52-.235-4.031a.2.2,0,0,0-.011-.1c-.035-.072-.137-.073-.217-.062a15.379,15.379,0,0,1-5.778-.214,1.625,1.625,0,0,1-1.235-.852,1.442,1.442,0,0,1-.058-.493,4.531,4.531,0,0,1,.091-.828.461.461,0,0,1,.089-.22.481.481,0,0,1,.273-.122,14.762,14.762,0,0,0,3.11-1.1Z" transform="translate(-23.406 -50.034)" fill="#e15046"/>
            <path id="Path_83201" data-name="Path 83201" d="M39.96,75.84a12.07,12.07,0,0,0,1.359-2.33,1.815,1.815,0,0,0,.206-.814,1.866,1.866,0,0,0-.147-.561,18.058,18.058,0,0,0-.923-2.02,2.213,2.213,0,0,1-.286-.716,1.522,1.522,0,0,1,.557-1.266.583.583,0,0,1,.5-.2.6.6,0,0,1,.261.175,7.587,7.587,0,0,1,1.465,2.371,4.249,4.249,0,0,1,.354,1.042c.144.9-1.355,3.877-2.145,5.353a1.645,1.645,0,0,1-1.433.868l-6.4.07a1.756,1.756,0,0,1-1.092-.366L31.017,76.5a2.189,2.189,0,0,1-.832-1.434l-.06-.432L29,73.09a1.025,1.025,0,0,1-.183-.781l.05-.29a1.029,1.029,0,0,1,1.067-.85L34.5,71.4l.2.18a1.165,1.165,0,0,1,.392.871v.23a1.163,1.163,0,0,1-.146.565l-.449.808,1.091,2.06,2.3.458a2.135,2.135,0,0,0,2.065-.736" transform="translate(-23.35 -55.11)" fill="#685434"/>
            <path id="Path_83202" data-name="Path 83202" d="M82.247,58.519a4.112,4.112,0,0,1-.855-1.662,1.031,1.031,0,0,0-.106-.431.942.942,0,0,0-.546-.336.633.633,0,0,0-.715.118.564.564,0,0,0-.245.26.293.293,0,0,0,.3.364c.277-.031.423-.447.7-.408.175.025.263.221.315.389a6.3,6.3,0,0,0,.837,2l.04-.116Z" transform="translate(-64.681 -45.461)" fill="#685434"/>
            <path id="Path_83203" data-name="Path 83203" d="M84.9,53.14a1.622,1.622,0,0,1-.037-.523.271.271,0,0,0,0-.11c-.031-.1-.156-.118-.257-.122q-.26-.01-.52-.008c-.037,0-.08,0-.1.036a.106.106,0,0,0-.009.055q.007.252.014.5a1.97,1.97,0,0,1,.881.088Z" transform="translate(-68.095 -42.498)" fill="#363644"/>
            <path id="Path_83204" data-name="Path 83204" d="M85.233,49.24a4.032,4.032,0,0,0,.059-.64.123.123,0,0,0-.013-.07.126.126,0,0,0-.076-.042l-.369-.1q0,.427.005.854l.425,0Z" transform="translate(-68.788 -39.258)" fill="#363644"/>
            <path id="Path_83205" data-name="Path 83205" d="M77.345,36.023a.565.565,0,0,0,0-.51,1.673,1.673,0,0,0-.311-.427l-.847-.939a.3.3,0,0,0,.163-.266.887.887,0,0,0-.062-.32l-.157-.482a.216.216,0,0,0-.031-.063c-.076-.1-.176-.057-.248,0a1.045,1.045,0,0,0-.37.841.387.387,0,0,0,.38.387.547.547,0,0,1,.277.082,1.1,1.1,0,0,1,.211.193l.55.6a1.848,1.848,0,0,1,.32.424.623.623,0,0,1,.036.515Z" transform="translate(-61.209 -26.738)" fill="#363644"/>
            <path id="Path_83206" data-name="Path 83206" d="M85.261,32.181a7.288,7.288,0,0,0-.213,1.7.514.514,0,0,0,.479-.139.852.852,0,0,0,.219-.8,1.451,1.451,0,0,0-.474-.757Z" transform="translate(-68.962 -26.111)" fill="#363644"/>
            <path id="Path_83207" data-name="Path 83207" d="M86.514,39.829l-.218,1.85c-.06.013-.081-.076-.074-.136q.1-.861.119-1.729Z" transform="translate(-69.914 -32.305)" fill="#363644"/>
            <path id="Path_83208" data-name="Path 83208" d="M50.5,91.48a4.19,4.19,0,0,1-.9.158,4.238,4.238,0,0,1-.451,0,.814.814,0,0,0-.4.02.313.313,0,0,0-.127.138c-.034.063-.062.13-.091.2q-.095.209-.185.419c-.121.283-.24.568-.342.859a.728.728,0,0,0-.047.213.47.47,0,0,0,.042.2c.029.069.068.135.1.2l.116.212.45.826.231.425c.072.133.141.268.218.4a.421.421,0,0,0,.12.137.426.426,0,0,0,.182.061c.153.022.308.035.462.045a9.136,9.136,0,0,0,1.855-.056l.226-.033c.05-.008.029-.084-.021-.076a9.113,9.113,0,0,1-1.8.1q-.224-.01-.448-.031-.111-.01-.222-.023a.432.432,0,0,1-.181-.051.373.373,0,0,1-.116-.141c-.036-.064-.07-.129-.106-.193l-.219-.4-.441-.809-.219-.4a.8.8,0,0,1-.15-.393.723.723,0,0,1,.052-.215c.025-.069.052-.138.078-.207q.08-.208.165-.414t.178-.418c.058-.131.112-.266.18-.393a.221.221,0,0,1,.128-.121A.516.516,0,0,1,49,91.712c.145.011.291.016.437.012a4.27,4.27,0,0,0,.873-.112c.071-.017.142-.035.212-.056a.039.039,0,0,0-.021-.076" transform="translate(-38.882 -74.225)" fill="#c2b38c"/>
            <path id="Path_83209" data-name="Path 83209" d="M35.454,90.955c.13.018.282.081.3.21a.225.225,0,0,1-.119.2.635.635,0,0,1-.24.067c-.3.041-.609.067-.915.079a1.113,1.113,0,0,1-.372-.03.41.41,0,0,1-.273-.237.158.158,0,0,1-.009-.087c.014-.062.078-.1.137-.121a7.367,7.367,0,0,1,1.5-.086" transform="translate(-27.422 -73.794)" fill="#f59f18"/>
            <path id="Path_83210" data-name="Path 83210" d="M101.049,95.806a.653.653,0,0,1,.779.032,1.855,1.855,0,0,1,.5.668c.506.961.98,1.939,1.45,2.918a4.841,4.841,0,0,1,.277.66c.049.158.064.365-.077.452-.178.111-.385-.087-.5-.263-.655-1.019-1.62-3.369-1.722-3.49-.032-.038-.036-.1-.074-.127a.307.307,0,0,0-.152-.051c-.349-.056-.585.054-.873-.151a.145.145,0,0,1-.063-.072.143.143,0,0,1,.016-.093,1.748,1.748,0,0,1,.4-.576Z" transform="translate(-81.565 -77.642)" fill="#685434"/>
            <path id="Path_83211" data-name="Path 83211" d="M101.906,100.355a3.68,3.68,0,0,1,2.62.767c.039.031.071.1.024.118l-5.121,1.824.39-.853a5.194,5.194,0,0,1,.553-.849,2.775,2.775,0,0,1,1.355-.962.993.993,0,0,1,.18-.045" transform="translate(-80.623 -81.413)" fill="#f59f18"/>
            <path id="Path_83212" data-name="Path 83212" d="M86.193,68.563a1.784,1.784,0,0,0-.247.895,2.569,2.569,0,0,0,.272.968l.84,2.012c.068.163.142.325.2.491a.782.782,0,0,1,.03.5,3.9,3.9,0,0,1-.192.475q-.106.24-.22.476c-.3.623-.636,1.227-.979,1.827l-.262.455a3.881,3.881,0,0,1-.237.38.982.982,0,0,1-.327.293,1.226,1.226,0,0,1-.466.116c-.077.006-.154.01-.231.012-.051,0-.051.081,0,.079a1.441,1.441,0,0,0,.878-.232,2.5,2.5,0,0,0,.532-.748c.351-.608.7-1.219,1.015-1.847.157-.312.306-.629.443-.95A1.708,1.708,0,0,0,87.4,73.3a1,1,0,0,0-.1-.488c-.277-.68-.566-1.355-.848-2.032l-.216-.517a3.145,3.145,0,0,1-.174-.493,1.575,1.575,0,0,1,.091-.95,1.819,1.819,0,0,1,.108-.219.039.039,0,0,0-.068-.04" transform="translate(-68.386 -55.616)" fill="#c2b38c"/>
            <path id="Path_83213" data-name="Path 83213" d="M23.315,116.073a4.032,4.032,0,0,0-2.219.443,5.886,5.886,0,0,1-.522.278,2.706,2.706,0,0,1-.943.164,19.456,19.456,0,0,1-2.57-.133.4.4,0,0,1-.254-.085.391.391,0,0,1-.086-.242.768.768,0,0,1,.058-.486c.156-.257.521-.259.822-.247a22.5,22.5,0,0,0,4.316-.5.433.433,0,0,1,.482.14c.232.227.684.44.915.667" transform="translate(-13.548 -93.512)" fill="#685434"/>
            <path id="Path_83214" data-name="Path 83214" d="M6.633,105.828a.406.406,0,0,1-.164.053l-2.857.284a.252.252,0,0,1-.138-.012.255.255,0,0,1-.1-.14l-.467-1.1c-.037-.087-.083-.183-.174-.212a.313.313,0,0,0-.185.016,2.74,2.74,0,0,0-1.268.839,1.462,1.462,0,0,1-.423.409A1.24,1.24,0,0,1,.141,106a.212.212,0,0,1-.064-.018c-.14-.068-.066-.22.037-.265a1.029,1.029,0,0,1,.265-.04c.385-.055.6-.457.815-.778a3.078,3.078,0,0,1,1.955-1.278,6.046,6.046,0,0,1,1.187-.064,2.809,2.809,0,0,1,.741.076,2.461,2.461,0,0,1,.846.5,4.734,4.734,0,0,1,.858,1.147.406.406,0,0,1-.148.554" transform="translate(0 -84.022)" fill="#f59f18"/>
            <path id="Path_83215" data-name="Path 83215" d="M56.71,116.777a.312.312,0,0,0-.187.173.2.2,0,0,0-.015.158c.045.115.206.115.328.1a14.724,14.724,0,0,1,1.7-.157.126.126,0,0,0-.043-.174.369.369,0,0,0-.2-.044l-1.419-.052Z" transform="translate(-45.812 -94.751)" fill="#f59f18"/>
            <path id="Path_83216" data-name="Path 83216" d="M65.306,116.449a3.717,3.717,0,0,1,.416.995.175.175,0,0,1-.247.067.506.506,0,0,1-.181-.222l-.4-.746a.076.076,0,0,1-.012-.038.065.065,0,0,1,.019-.038.277.277,0,0,1,.439.064Z" transform="translate(-52.613 -94.434)" fill="#363644"/>
            <path id="Path_83217" data-name="Path 83217" d="M74.538,117.262a.418.418,0,0,1,.314.043.157.157,0,0,1,.066.152c-.022.121-.172.144-.29.144l-1.665,0a.643.643,0,0,1-.336-.062l0,0a.157.157,0,0,1,.089-.289c.475.008,1.744.028,1.824.018" transform="translate(-58.83 -95.131)" fill="#e15046"/>
            <path id="Path_83218" data-name="Path 83218" d="M52.532,101.254a1.1,1.1,0,0,1-1.146.121c-.045-.022-.085.046-.04.068a1.193,1.193,0,0,0,.993.017,1.115,1.115,0,0,0,.248-.15c.04-.032-.016-.087-.056-.056" transform="translate(-41.618 -82.15)" fill="#c2b38c"/>
            <path id="Path_83219" data-name="Path 83219" d="M24.177,94.25l.2.008a1.479,1.479,0,0,0,.062.986.186.186,0,0,1-.243-.055.536.536,0,0,1-.086-.257,1.009,1.009,0,0,1,.058-.687Z" transform="translate(-19.524 -76.47)" fill="#e15046"/>
            <path id="Path_83220" data-name="Path 83220" d="M111.671,114.535a.909.909,0,1,0,.909-.906.907.907,0,0,0-.909.906" transform="translate(-90.55 -92.198)"/>
            <path id="Path_83221" data-name="Path 83221" d="M101.858,96.367l-.346.56c-.027.043.041.083.068.04l.346-.56c.027-.043-.042-.083-.068-.04" transform="translate(-82.307 -78.176)" fill="#c2b38c"/>
            <path id="Path_83222" data-name="Path 83222" d="M31.5,86.243c-.057.453-.388.856-.328,1.326a1.4,1.4,0,0,0,.312.641c.169.228.34.455.51.682l1.022,1.368,1.026,1.373a4.6,4.6,0,0,0,.451.554,1.032,1.032,0,0,0,.536.306.722.722,0,0,0,.154.009c.051,0,.051-.081,0-.079-.446.023-.753-.4-.99-.72l-1.006-1.346L32.181,89.01l-.5-.673a2.336,2.336,0,0,1-.391-.624c-.15-.452.159-.878.264-1.3a1.459,1.459,0,0,0,.03-.166c.006-.05-.073-.05-.079,0" transform="translate(-25.272 -69.947)" fill="#c2b38c"/>
            <path id="Path_83223" data-name="Path 83223" d="M68.729,105.878l-.576.57a.4.4,0,0,1-.26.149c-.286,0-.312-.534-.6-.553-.175-.012-.281.185-.333.352a1.069,1.069,0,0,0-.026.758.867.867,0,0,0,.621.431c.255.056.52.048.78.079.345.043.679.158,1.026.18a3.092,3.092,0,0,0,1.314-.265c.183-.072.388-.183.413-.377a.4.4,0,0,0-.2-.364,1.359,1.359,0,0,0-.412-.147,5.654,5.654,0,0,1-1.746-.777Z" transform="translate(-54.228 -85.908)" fill="#8ca3c4"/>
            <path id="Path_83224" data-name="Path 83224" d="M16.949,108.485l.284.848c.016.048.092.027.076-.021l-.284-.848c-.016-.048-.092-.027-.076.021" transform="translate(-13.741 -87.985)" fill="#9b5e0e"/>
            <path id="Path_83225" data-name="Path 83225" d="M18.136,108.148a6.677,6.677,0,0,1,.24.777c.012.049.088.028.076-.021a6.642,6.642,0,0,0-.24-.777c-.018-.047-.094-.027-.076.021" transform="translate(-14.704 -87.712)" fill="#9b5e0e"/>
            <path id="Path_83226" data-name="Path 83226" d="M19.715,108.827l.169.485c.017.048.093.027.076-.021l-.169-.485c-.016-.048-.093-.027-.076.021" transform="translate(-15.984 -88.262)" fill="#9b5e0e"/>
            <path id="Path_83227" data-name="Path 83227" d="M27.634,106.264a2.375,2.375,0,0,1,.965.927,2.276,2.276,0,0,1,.162.348c.017.047.094.027.076-.021a2.457,2.457,0,0,0-.829-1.112,2.354,2.354,0,0,0-.334-.21c-.045-.023-.085.044-.04.068" transform="translate(-22.391 -86.163)" fill="#9b5e0e"/>
            <path id="Path_83228" data-name="Path 83228" d="M29.883,109.683l.325.488c.028.042.1,0,.068-.04l-.325-.488c-.028-.042-.1,0-.068.04" transform="translate(-24.226 -88.949)" fill="#9b5e0e"/>
            <path id="Path_83229" data-name="Path 83229" d="M104.681,105.926l1.244-.458,1.244-.458.7-.258c.047-.017.027-.094-.021-.076l-1.244.458-1.244.458-.7.258c-.047.017-.027.093.021.076" transform="translate(-84.843 -84.931)" fill="#9b5e0e"/>
            <path id="Path_83230" data-name="Path 83230" d="M112.76,105.072l.717-.324c.046-.021.006-.089-.04-.068l-.717.325c-.046.021-.006.089.04.068" transform="translate(-91.384 -84.933)" fill="#9b5e0e"/>
            <path id="Path_83231" data-name="Path 83231" d="M112.759,103.425l.491-.223a.039.039,0,0,0,.014-.054.04.04,0,0,0-.054-.014l-.491.223a.039.039,0,0,0-.014.054.04.04,0,0,0,.054.014" transform="translate(-91.384 -83.678)" fill="#9b5e0e"/>
            <path id="Path_83232" data-name="Path 83232" d="M117.886,101.662a3.4,3.4,0,0,1,.845.268c.046.021.086-.046.04-.068a3.477,3.477,0,0,0-.864-.276c-.05-.009-.071.067-.021.076" transform="translate(-95.566 -82.425)" fill="#9b5e0e"/>
            <path id="Path_83233" data-name="Path 83233" d="M67.222,111.766a5.244,5.244,0,0,0,1.608.458c.287.043.575.083.863.111a2.441,2.441,0,0,0,.858-.037,1.211,1.211,0,0,0,.678-.431c.03-.041-.038-.08-.068-.04a1.107,1.107,0,0,1-.581.38,2.212,2.212,0,0,1-.823.054c-.28-.025-.559-.064-.836-.1a8.16,8.16,0,0,1-.8-.151,4.056,4.056,0,0,1-.856-.309c-.045-.023-.085.045-.04.068" transform="translate(-54.492 -90.627)" fill="#fff"/>
            <path id="Path_83234" data-name="Path 83234" d="M83.992,110.657a1.137,1.137,0,0,0-.489.672.04.04,0,0,0,.076.021,1.055,1.055,0,0,1,.452-.625c.043-.027,0-.1-.04-.068" transform="translate(-67.709 -89.781)" fill="#fff"/>
            <path id="Path_83235" data-name="Path 83235" d="M67.207,109.081a1.331,1.331,0,0,1,.461.641c.016.048.092.027.076-.021a1.421,1.421,0,0,0-.5-.688c-.041-.031-.08.038-.04.068" transform="translate(-54.482 -88.446)" fill="#fff"/>
            <path id="Path_83236" data-name="Path 83236" d="M77.6,107.771l-.4.478c-.033.038.023.094.056.056l.4-.478c.033-.038-.023-.094-.056-.056" transform="translate(-62.592 -87.434)" fill="#fff"/>
            <path id="Path_83237" data-name="Path 83237" d="M79.307,108.444l-.358.357a.039.039,0,0,0,.056.056l.358-.357a.039.039,0,0,0-.056-.056" transform="translate(-64.007 -87.981)" fill="#fff"/>
            <path id="Path_83238" data-name="Path 83238" d="M80.385,108.976a1.949,1.949,0,0,1-.38.419.04.04,0,0,0,0,.056.04.04,0,0,0,.056,0,2.021,2.021,0,0,0,.393-.435c.028-.042-.04-.082-.068-.04" transform="translate(-64.864 -88.407)" fill="#fff"/>
            <path id="Path_83239" data-name="Path 83239" d="M40.86,103.149a1.271,1.271,0,0,0,.474-.077,1.132,1.132,0,0,1,.472-.073.041.041,0,0,0,.049-.028.04.04,0,0,0-.028-.048,1.143,1.143,0,0,0-.483.063,1.3,1.3,0,0,1-.484.083c-.05,0-.05.074,0,.079" transform="translate(-33.101 -83.506)" fill="#c2b38c"/>
            <path id="Path_83240" data-name="Path 83240" d="M59.222,112.629a6.641,6.641,0,0,1,.924-.412c.047-.017.027-.093-.021-.076a6.755,6.755,0,0,0-.943.42c-.045.024,0,.092.04.068" transform="translate(-47.973 -90.988)" fill="#c2b38c"/>
            <path id="Path_83241" data-name="Path 83241" d="M96.206,95.091a3.418,3.418,0,0,0,.694-.039c.05-.008.029-.084-.021-.076a3.332,3.332,0,0,1-.673.036c-.051,0-.051.076,0,.079" transform="translate(-77.979 -77.063)" fill="#c2b38c"/>
            <path id="Path_83242" data-name="Path 83242" d="M43.8,115.949a.721.721,0,0,1,.272.638c-.005.05.074.05.079,0a.8.8,0,0,0-.311-.707c-.04-.031-.08.038-.04.068" transform="translate(-35.503 -94.018)" fill="#c2b38c"/>
            <path id="Path_83243" data-name="Path 83243" d="M18.315,120.184a.316.316,0,0,0-.023.309.3.3,0,0,0,.257.17.307.307,0,0,0,.173-.039.039.039,0,0,0-.04-.068.228.228,0,0,1-.3-.332.04.04,0,0,0-.014-.054.04.04,0,0,0-.054.014" transform="translate(-14.808 -97.501)" fill="#c2b38c"/>
            <path id="Path_83244" data-name="Path 83244" d="M32.782,119.509l.156.716c.011.05.087.029.076-.021l-.156-.716c-.011-.049-.087-.028-.076.021" transform="translate(-26.581 -96.928)" fill="#c2b38c"/>
            <path id="Path_83245" data-name="Path 83245" d="M34.81,121.066l.069.259a.04.04,0,0,0,.076-.021l-.07-.259a.039.039,0,0,0-.076.021" transform="translate(-28.225 -98.191)" fill="#c2b38c"/>
            <path id="Path_83246" data-name="Path 83246" d="M36.914,120.7v.162a.039.039,0,0,0,.079,0V120.7a.039.039,0,0,0-.079,0" transform="translate(-29.932 -97.903)" fill="#c2b38c"/>
            <path id="Path_83247" data-name="Path 83247" d="M40.106,6.43c.025.343.074,1.358.074,1.358l.8.02-.718.344a1.068,1.068,0,0,0-.063.25c-.006.337.091.717-.12.98-.263.329-1.32.131-1.32.131l-.507,1.136s-1-.555-1.311-.793c-.049-.038.513-1.126.693-1.646a.359.359,0,0,1-.534.005.435.435,0,0,1,.02-.558.566.566,0,0,1,.562-.147,12.655,12.655,0,0,0,.022-1.35Z" transform="translate(-29.954 -4.998)" fill="#f6a472"/>
            <path id="Path_83248" data-name="Path 83248" d="M28.887,25.8c.931.385,1.619,1.558,2.482,2.077a4.714,4.714,0,0,1-.348.953.613.613,0,0,0-1.03.183,1.217,1.217,0,0,0,.026.727q.3,1.233.666,2.451a5.972,5.972,0,0,1-.867.036c-.507.081-.828.564-1.152.961a3.475,3.475,0,0,1-1.193.975,2.138,2.138,0,0,1-1.513.142c.178-1.558-.524-3.1-.457-4.668a8.264,8.264,0,0,1,2.037-4.514c.289.157.5-.666.954.689Z" transform="translate(-20.674 -20.296)" fill="#fdd730"/>
            <path id="Path_83249" data-name="Path 83249" d="M38.781,34.82A1.621,1.621,0,0,0,38,36.695a.6.6,0,0,0,.121.23.716.716,0,0,0,.244.151,9.386,9.386,0,0,0,1.843.591,2.092,2.092,0,0,1,.59.179,4.073,4.073,0,0,1,.5.392,3.088,3.088,0,0,0,1.116.484,12.9,12.9,0,0,0,2.371.4.828.828,0,0,1,.341.073c.077.042.138.108.215.15a.851.851,0,0,0,.731-.1c.233-.106.532-.189.722-.018s.236.509.471.481c0-.1.008-.19.012-.285a.131.131,0,1,0,.218-.058l.047,0a.185.185,0,0,0,.2-.207.927.927,0,0,0-.707-.685,7.728,7.728,0,0,0-1.272-.047c-1.185-.088-2.091-1.044-3.143-1.593-.81-.423-1.73-.611-2.52-1.071a5.933,5.933,0,0,1-1.108-.87Z" transform="translate(-30.756 -28.253)" fill="#f6a472"/>
            <path id="Path_83250" data-name="Path 83250" d="M39.393,35.351l-1.236,2.1-1.88-1.006a1.194,1.194,0,0,1-.289-.192.673.673,0,0,1-.1-.69,2.119,2.119,0,0,1,.483-.932c.254-.263.12-.709.559-.7a4.991,4.991,0,0,1,1.548.582,5.621,5.621,0,0,1,.828.643c.058.051.121.12.093.177Z" transform="translate(-29.061 -27.53)" fill="#fdd730"/>
            <path id="Path_83251" data-name="Path 83251" d="M36.231,23.426a6.1,6.1,0,0,1,1.788,1.181.376.376,0,0,1-.082.585.168.168,0,0,1-.108.028.466.466,0,0,1-.183-.094L36.054,23.98a.208.208,0,0,1-.077-.081.186.186,0,0,1,0-.117,1,1,0,0,1,.183-.362c.013-.016.032-.034.052-.03s.02.045,0,.04Z" transform="translate(-29.166 -18.978)" fill="#e1003e"/>
            <path id="Path_83252" data-name="Path 83252" d="M45.753,33.525A12.609,12.609,0,0,1,47.069,34.7q.174.179.342.364l-.006-.048a12.135,12.135,0,0,0-.934,1.565q-.114.229-.218.462c-.02.046.047.086.068.04a12.124,12.124,0,0,1,.867-1.6q.138-.215.285-.424a.04.04,0,0,0-.006-.048A12.622,12.622,0,0,0,46.2,33.783q-.192-.161-.39-.313a.041.041,0,0,0-.056,0,.039.039,0,0,0,0,.056" transform="translate(-37.09 -27.148)" fill="#363644"/>
            <path id="Path_83253" data-name="Path 83253" d="M47.3,40.46a11.837,11.837,0,0,0-1.007,1.618q-.125.242-.238.488c-.021.046.047.086.068.04a11.859,11.859,0,0,1,.931-1.663q.152-.225.313-.444c.03-.041-.038-.08-.068-.04" transform="translate(-37.341 -32.815)" fill="#363644"/>
            <path id="Path_83254" data-name="Path 83254" d="M31.825,41.976q.511.413,1.028.817t1.044.8q.3.223.593.444c.041.03.08-.038.04-.068q-.525-.389-1.043-.787t-1.027-.8q-.29-.23-.578-.463c-.039-.032-.1.024-.056.056" transform="translate(-25.795 -34.006)" fill="#363644"/>
            <path id="Path_83255" data-name="Path 83255" d="M31.965,44.278l.488.04c.051,0,.051-.075,0-.079l-.488-.04c-.051,0-.05.075,0,.079" transform="translate(-25.888 -35.863)" fill="#363644"/>
            <path id="Path_83256" data-name="Path 83256" d="M34.99,61.621a2.737,2.737,0,0,0-.788.049,1.416,1.416,0,0,0-.364.138,1.248,1.248,0,0,0-.311.251c-.1.107-.185.224-.28.334s-.189.212-.289.312a5.769,5.769,0,0,1-.644.558q-.191.143-.394.269c-.119.074-.29.2-.437.128-.046-.022-.086.046-.04.068a.429.429,0,0,0,.4-.055c.125-.07.245-.151.363-.233a5.89,5.89,0,0,0,.669-.542,6.447,6.447,0,0,0,.585-.636,1.743,1.743,0,0,1,.3-.31,1.19,1.19,0,0,1,.342-.174,2.431,2.431,0,0,1,.892-.081c.051,0,.051-.076,0-.079" transform="translate(-25.48 -49.993)" fill="#363644"/>
            <path id="Path_83257" data-name="Path 83257" d="M32.241,59.905l.04.422a.041.041,0,0,0,.04.039.04.04,0,0,0,.039-.039l-.04-.422a.04.04,0,0,0-.039-.039.04.04,0,0,0-.04.039" transform="translate(-26.143 -48.575)" fill="#363644"/>
            <path id="Path_83258" data-name="Path 83258" d="M34.016,61.435a.571.571,0,0,0,.018.377.041.041,0,0,0,.049.028.04.04,0,0,0,.028-.048.5.5,0,0,1-.018-.335.039.039,0,0,0-.076-.021" transform="translate(-27.563 -49.826)" fill="#363644"/>
            <path id="Path_83259" data-name="Path 83259" d="M31.6,65.93a.427.427,0,0,1,.025.241.04.04,0,0,0,.076.021.5.5,0,0,0-.025-.283.041.041,0,0,0-.049-.028.04.04,0,0,0-.028.048" transform="translate(-25.624 -53.455)" fill="#363644"/>
            <path id="Path_83260" data-name="Path 83260" d="M85.347,56.974a1.426,1.426,0,0,1,.366.492.04.04,0,0,0,.068-.04,1.484,1.484,0,0,0-.379-.508c-.038-.033-.094.022-.056.056" transform="translate(-69.194 -46.175)" fill="#7f4924"/>
            <path id="Path_83261" data-name="Path 83261" d="M86.869,55.8a1.5,1.5,0,0,1,.324.532c.017.048.093.027.076-.021a1.59,1.59,0,0,0-.344-.566c-.035-.037-.091.019-.056.056" transform="translate(-70.43 -45.221)" fill="#7f4924"/>
            <path id="Path_83262" data-name="Path 83262" d="M84.87,55.95a2.951,2.951,0,0,1,.511-.322c.045-.023.005-.091-.04-.068a3.037,3.037,0,0,0-.527.335.04.04,0,0,0,0,.056.04.04,0,0,0,.056,0" transform="translate(-68.763 -45.077)" fill="#7f4924"/>
            <path id="Path_83263" data-name="Path 83263" d="M56.863,48.539a.235.235,0,0,0,.322.189.04.04,0,0,0,.014-.054.041.041,0,0,0-.054-.014c.008,0,0,0,0,0l-.011,0-.01,0h-.043c.007,0,0,0,0,0l-.01,0-.019-.005-.009,0h0l-.019-.01L57,48.634l0,0h0l-.009-.008-.014-.014-.006-.008c.006.007,0,0,0,0l-.01-.016,0-.009s0-.009,0,0a.194.194,0,0,1-.006-.018l0-.011c0-.01,0,0,0,0a.039.039,0,0,0-.079,0" transform="translate(-46.108 -39.352)" fill="#7f4924"/>
            <path id="Path_83264" data-name="Path 83264" d="M39.029,14.593l.284.238a.041.041,0,0,0,.056,0,.04.04,0,0,0,0-.056l-.284-.238a.04.04,0,0,0-.056,0,.04.04,0,0,0,0,.056" transform="translate(-31.638 -11.787)" fill="#7f4924"/>
            <path id="Path_83265" data-name="Path 83265" d="M38.735,15.53l0-.005,0,0,.012-.013.025-.023,0,0,.006,0,.015-.009.032-.017h0l.009,0,.016-.005.033-.008h.028l.036,0A.039.039,0,0,0,39,15.4a.041.041,0,0,0-.04-.039.319.319,0,0,0-.291.132.04.04,0,0,0,.014.054.041.041,0,0,0,.054-.014" transform="translate(-31.349 -12.459)" fill="#7f4924"/>
            <g id="Group_16365" data-name="Group 16365" transform="translate(7.954 4.427)" opacity="0.46">
              <g id="Group_16364" data-name="Group 16364">
                <g id="Group_16363" data-name="Group 16363" clip-path="url(#clip-path-3)">
                  <path id="Path_83266" data-name="Path 83266" d="M42.91,23.562l-.853-.087.659.509Z" transform="translate(-42.057 -23.474)" fill="#7f4924"/>
                </g>
              </g>
            </g>
            <path id="Path_83267" data-name="Path 83267" d="M49.888,14.109a.153.153,0,1,1-.149-.191.174.174,0,0,1,.149.191" transform="translate(-40.211 -11.293)"/>
            <path id="Path_83268" data-name="Path 83268" d="M50.176,18.752a.339.339,0,0,0,.487.227.039.039,0,0,0-.04-.068.259.259,0,0,1-.371-.179A.04.04,0,0,0,50.2,18.7a.04.04,0,0,0-.028.048" transform="translate(-40.685 -15.175)" fill="#7f4924"/>
            <path id="Path_83269" data-name="Path 83269" d="M48.487,10.692a.787.787,0,0,1-.05.354.687.687,0,0,0-.673-.059.608.608,0,0,1,.655-.312Z" transform="translate(-38.73 -8.652)" fill="#7f4924"/>
            <path id="Path_83270" data-name="Path 83270" d="M36.91,2.331a1.316,1.316,0,0,0,.532.942A2.354,2.354,0,0,1,37.293,1.6a.206.206,0,0,1,.053-.1c.075-.066.189,0,.275.046a2.15,2.15,0,0,0,1.145.185l.309-.007.244-.006a.955.955,0,0,0,.415-.072.325.325,0,0,0,.19-.343c-.054-.214-.344-.243-.566-.225.27-.069.582-.177.659-.443A.536.536,0,0,0,39.6.025a1.23,1.23,0,0,0-.8.13,3.488,3.488,0,0,1-.764.306c.019-.17-.16-.3-.327-.336a.938.938,0,0,0-1.033.516.424.424,0,0,0-.558.236.423.423,0,0,0,.3.527.613.613,0,0,0-.333.574,1.8,1.8,0,0,0,.179.675,1.042,1.042,0,0,1,.535-.228Z" transform="translate(-29.261 0)" fill="#0b0b0b"/>
            <path id="Path_83271" data-name="Path 83271" d="M68.438,100.377a5.419,5.419,0,0,1,1.268-.308c.123-.018.247-.034.37-.05a.041.041,0,0,0,.04-.039.04.04,0,0,0-.04-.039,8.548,8.548,0,0,0-1.3.238,3.7,3.7,0,0,0-.356.123c-.047.019-.026.095.021.076" transform="translate(-55.456 -81.091)" fill="#931c19"/>
            <path id="Path_83272" data-name="Path 83272" d="M67.154,78.818a1.811,1.811,0,0,1,.608-.758c.041-.029,0-.1-.04-.068a1.882,1.882,0,0,0-.636.786c-.02.046.048.086.068.04" transform="translate(-54.394 -63.276)" fill="#931c19"/>
            <path id="Path_83273" data-name="Path 83273" d="M67.8,78.777a5.21,5.21,0,0,1,.778-.933c.037-.035-.019-.091-.056-.056a5.3,5.3,0,0,0-.79.949c-.028.043.04.082.068.04" transform="translate(-54.914 -63.108)" fill="#931c19"/>
            <path id="Path_83274" data-name="Path 83274" d="M42.707,68.024a1.476,1.476,0,0,1-.12.973c-.023.045.045.085.068.04A1.561,1.561,0,0,0,42.783,68c-.011-.049-.087-.028-.076.021" transform="translate(-34.528 -55.154)" fill="#931c19"/>
            <path id="Path_83275" data-name="Path 83275" d="M39.509,72.116a2.25,2.25,0,0,0,1.777.33c.348-.045.695-.109,1.046-.119a4.065,4.065,0,0,1,.927.079,4.132,4.132,0,0,1,1.68.755,1.435,1.435,0,0,1,.559.707,2.29,2.29,0,0,1,.071.5q.019.278.037.555l.146,2.2.019.275c0,.05.082.051.079,0q-.074-1.112-.148-2.224-.019-.278-.037-.556c-.012-.175-.019-.352-.042-.526a1.285,1.285,0,0,0-.138-.46,1.436,1.436,0,0,0-.289-.356,3.656,3.656,0,0,0-.763-.529,4.23,4.23,0,0,0-1.786-.492,5.316,5.316,0,0,0-1,.066,2.914,2.914,0,0,1-1.9-.13,1.255,1.255,0,0,1-.18-.126c-.039-.033-.095.023-.056.056" transform="translate(-32.026 -58.461)" fill="#931c19"/>
            <path id="Path_83276" data-name="Path 83276" d="M76,103.484a1.168,1.168,0,0,0,.062.434c.016.048.093.027.076-.021a1.108,1.108,0,0,1-.059-.413c0-.051-.076-.051-.079,0" transform="translate(-61.627 -83.935)" fill="#7f4924"/>
            <path id="Path_83277" data-name="Path 83277" d="M85.293,32.181a2.72,2.72,0,0,1-.1,1.7.1.1,0,0,1-.153,0c-.017-.018-.02.025-.022,0a9.9,9.9,0,0,1-.025-1.041c.007-.229.052-.564.26-.66Z" transform="translate(-68.911 -26.111)" fill="#f59f18"/>
            <path id="Path_83278" data-name="Path 83278" d="M75.953,32.869a1.19,1.19,0,0,1-.23,1.084.208.208,0,0,1-.1.076c-.111.027-.187-.111-.2-.224a.958.958,0,0,1,.516-.936Z" transform="translate(-61.152 -26.67)" fill="#f59f18"/>
            <path id="Path_83279" data-name="Path 83279" d="M85.024,51.878a.938.938,0,0,1,.281-.038.039.039,0,1,0,0-.079,1.01,1.01,0,0,0-.3.041.039.039,0,1,0,.021.076" transform="translate(-68.902 -41.999)" fill="#c2b38c"/>
            <path id="Path_83280" data-name="Path 83280" d="M85.364,50.53l.228-.034a.039.039,0,0,0,.028-.048.041.041,0,0,0-.049-.028l-.228.034a.039.039,0,0,0-.028.048.041.041,0,0,0,.049.028" transform="translate(-69.178 -40.91)" fill="#c2b38c"/>
            <path id="Path_83281" data-name="Path 83281" d="M85.533,49.473l.13-.033a.04.04,0,0,0,.028-.048.04.04,0,0,0-.049-.028l-.13.033a.04.04,0,0,0-.028.048.04.04,0,0,0,.049.028" transform="translate(-69.315 -40.053)" fill="#c2b38c"/>
            <path id="Path_83282" data-name="Path 83282" d="M88.1,36.142l.034.227a.04.04,0,0,0,.048.028.041.041,0,0,0,.028-.048l-.034-.227a.04.04,0,0,0-.048-.028.041.041,0,0,0-.028.048" transform="translate(-71.433 -29.285)" fill="#c2b38c"/>
            <path id="Path_83283" data-name="Path 83283" d="M77.966,38.393a.577.577,0,0,0,.308-.349c.015-.048-.061-.069-.076-.021a.5.5,0,0,1-.272.3.039.039,0,0,0-.014.054.04.04,0,0,0,.054.014" transform="translate(-63.172 -30.829)" fill="#c2b38c"/>
            <path id="Path_83284" data-name="Path 83284" d="M47.57,2.67c.061-.168.136-.372.329-.422a.206.206,0,0,1,.221.062.185.185,0,0,1-.221.284v.068c.1-.06.295-.1.375.019.048.074.036.212-.066.231l.021.076a.25.25,0,0,1,.243.088l-.01-.038a.194.194,0,0,1-.207.1.583.583,0,0,1-.285-.157c-.039-.032-.1.024-.056.056.144.118.339.252.525.138a.227.227,0,0,0,.084-.087.066.066,0,0,0,.01-.063.186.186,0,0,0-.051-.052.331.331,0,0,0-.274-.064c-.05.01-.029.085.021.076.15-.028.186-.225.117-.34-.1-.169-.342-.137-.486-.054a.04.04,0,0,0,0,.068.278.278,0,0,0,.294-.044.26.26,0,0,0,.069-.281.264.264,0,0,0-.237-.177.394.394,0,0,0-.3.127.992.992,0,0,0-.191.362c-.017.048.059.068.076.021" transform="translate(-38.509 -1.752)" fill="#3f1f09"/>
            <path id="Path_83285" data-name="Path 83285" d="M41.417,3.262c.007-.082.129-.095.185-.059.1.063.071.214.023.3-.021.038.031.081.062.048a.221.221,0,0,1,.341.28l.068.04a.1.1,0,0,1,.164-.02c.034.038.089-.018.056-.056a.182.182,0,0,0-.288.036.039.039,0,0,0,.068.04.3.3,0,0,0-.465-.375l.062.048c.069-.125.088-.337-.064-.413a.2.2,0,0,0-.292.134c0,.051.075.05.079,0" transform="translate(-33.52 -2.52)" fill="#3f1f09"/>
            <path id="Path_83286" data-name="Path 83286" d="M51.928,1.6c.106-.048.235.084.2.189a.04.04,0,0,0,.058.045.1.1,0,0,1,.131.01.1.1,0,0,1-.009.127c-.036.035.019.091.056.056a.17.17,0,0,0-.218-.261l.058.045a.222.222,0,0,0-.072-.232.224.224,0,0,0-.243-.045.04.04,0,0,0-.014.054.041.041,0,0,0,.054.014" transform="translate(-42.058 -1.228)" fill="#3f1f09"/>
            <path id="Path_83287" data-name="Path 83287" d="M39.041,6.51a.959.959,0,0,0,.124.572.04.04,0,0,0,.068-.04.886.886,0,0,1-.113-.532c.005-.05-.074-.05-.079,0" transform="translate(-31.653 -5.252)" fill="#3f1f09"/>
            <path id="Path_83288" data-name="Path 83288" d="M40.5,7.714a.376.376,0,0,0,.069.331.04.04,0,0,0,.056,0,.04.04,0,0,0,0-.056.3.3,0,0,1-.049-.255.039.039,0,1,0-.076-.021" transform="translate(-32.831 -6.235)" fill="#3f1f09"/>
            <path id="Path_83289" data-name="Path 83289" d="M37.846,10.426a.156.156,0,0,0,.069.214.131.131,0,0,0,.071.014.044.044,0,0,0,.028-.012.041.041,0,0,0,.012-.028c0-.019-.018-.042-.04-.039h-.022c.013,0,0,0,0,0l-.013,0h0l-.007,0-.012-.008c.011.007,0,0,0,0l0,0-.009-.01c0-.005.006.008,0,0l0-.006-.007-.013s0-.009,0,0l0-.008a.108.108,0,0,1,0-.013s0,0,0-.006,0,0,0,0a.109.109,0,0,1,0-.014s0-.011,0,0,0,0,0-.006,0-.009,0-.013c0,.012,0,0,0,0l0-.007a.04.04,0,0,0-.014-.054.04.04,0,0,0-.054.014" transform="translate(-30.672 -8.444)" fill="#3f1f09"/>
            <path id="Path_83290" data-name="Path 83290" d="M37.094,4.251a.182.182,0,0,0-.165.17.167.167,0,0,0,.141.169.172.172,0,0,0,.131-.025.039.039,0,0,0-.04-.068l-.017.011-.005,0s.007,0,0,0l-.012,0-.01,0h-.027l-.01,0-.021-.007c.009,0,0,0,0,0l-.009,0-.01-.006h0l0,0-.014-.014c0-.005,0,.006,0,0l-.006-.01s0-.01,0,0l0-.01a.107.107,0,0,1,0-.011s0-.007,0,0,0,0,0-.006a.16.16,0,0,1,0-.021c0,.01,0,0,0,0l0-.012s0-.012,0-.007,0,0,0,0l0-.005a.229.229,0,0,1,.012-.02s0,0,0,0l.005-.006.009-.008s.011-.008,0,0l.01-.007.011-.006h0l.006,0,.013,0h0c-.009,0,0,0,0,0a.039.039,0,1,0,0-.079" transform="translate(-29.945 -3.449)" fill="#3f1f09"/>
            <path id="Path_83291" data-name="Path 83291" d="M40.093,4.766l-.06.131a.04.04,0,0,0,.006.048.284.284,0,0,0,.145.075.039.039,0,1,0,.021-.076l-.034-.009-.015-.005h0l-.007,0-.029-.017-.007,0h0l-.014-.013.006.048.06-.131a.039.039,0,1,0-.068-.04" transform="translate(-32.457 -3.852)" fill="#3f1f09"/>
            <path id="Path_83292" data-name="Path 83292" d="M43.3,1.162a.283.283,0,0,1,.388.192c.01.05.086.029.076-.021a.363.363,0,0,0-.5-.239c-.045.023-.005.091.04.068" transform="translate(-35.059 -0.86)" fill="#3f1f09"/>
            <path id="Path_83293" data-name="Path 83293" d="M37.992,18.277l.006.006s0-.005,0,0L38,18.3l0,.006c0,.006,0,0,0,0s0,.01,0,.015,0,.009,0,.014,0,.009,0,0,0,0,0,0,0,.02,0,.03,0-.01,0,0v.007s0,.009,0,.014-.005.018,0,.008a.06.06,0,0,1-.006.013L38,18.418l0,0,0,0-.011.011-.005,0s0,0,0,0a.039.039,0,1,0,.04.068.2.2,0,0,0,.034-.287.039.039,0,0,0-.056.056" transform="translate(-30.776 -14.775)" fill="#3f1f09"/>
          </g>
        </g>
      </g>
    </g>
  </g>
</svg>
