<svg xmlns="http://www.w3.org/2000/svg" xmlns:xlink="http://www.w3.org/1999/xlink" width="97.857" height="68.224" viewBox="0 0 97.857 68.224">
  <defs>
    <clipPath id="clip-path">
      <rect id="Rectangle_8336" data-name="Rectangle 8336" width="30.387" height="51.282" fill="none"/>
    </clipPath>
    <clipPath id="clip-path-2">
      <path id="Path_99873" data-name="Path 99873" d="M59.345,227.429a7.543,7.543,0,0,0-1.825,5.481,9,9,0,0,1,1.074-1.028.12.12,0,0,1,.189.116c-.114.737-.016,2.948,3.789,6.7,3.805-3.757,3.9-5.968,3.789-6.7a.12.12,0,0,1,.189-.116,8.99,8.99,0,0,1,1.074,1.028,7.543,7.543,0,0,0-1.825-5.481Z" transform="translate(-57.492 -227.429)" fill="none"/>
    </clipPath>
    <linearGradient id="linear-gradient" x1="-0.922" y1="1" x2="-0.905" y2="1" gradientUnits="objectBoundingBox">
      <stop offset="0" stop-color="#f7bd6f"/>
      <stop offset="0.006" stop-color="#f7bd6f"/>
      <stop offset="0.451" stop-color="#f29857"/>
      <stop offset="1" stop-color="#ed6637"/>
    </linearGradient>
    <clipPath id="clip-path-4">
      <rect id="Rectangle_8334" data-name="Rectangle 8334" width="6.52" height="4.767" fill="none"/>
    </clipPath>
  </defs>
  <g id="rocket-big" transform="translate(-3310.223 689.282)">
    <path id="Union_133" data-name="Union 133" d="M4319.825-774.772h-19.771a7.99,7.99,0,0,1-.859.046,8.107,8.107,0,0,1-.849-.046h-9.164a8.1,8.1,0,0,1-.85.046,7.975,7.975,0,0,1-.859-.046h-12.081a7.975,7.975,0,0,1-.859.046,8.1,8.1,0,0,1-.849-.046H4267.7c-.3.031-.616.046-.93.046s-.623-.016-.929-.046h-22.8q-.458.046-.93.046a9.037,9.037,0,0,1-9.106-8.965,9.037,9.037,0,0,1,9.106-8.966h.009c-.005-.125-.009-.25-.009-.377a9.036,9.036,0,0,1,9.1-8.966,9.092,9.092,0,0,1,8.725,6.4,7.864,7.864,0,0,1,2.845-.53,7.84,7.84,0,0,1,4.19,1.2,9.078,9.078,0,0,1,8.9-7.068,9.09,9.09,0,0,1,8.724,6.4,7.865,7.865,0,0,1,2.846-.53,7.817,7.817,0,0,1,6.317,3.182,7.817,7.817,0,0,1,6.317-3.182,7.865,7.865,0,0,1,2.846.53,9.091,9.091,0,0,1,8.723-6.4,9.037,9.037,0,0,1,9.106,8.966c0,.127,0,.252-.01.377h.01a9.037,9.037,0,0,1,9.106,8.966,9.037,9.037,0,0,1-9.106,8.965C4320.442-774.725,4320.131-774.741,4319.825-774.772Z" transform="translate(-922.281 153.167)" fill="#fff" stroke="rgba(0,0,0,0)" stroke-miterlimit="10" stroke-width="1"/>
    <g id="Group_20029" data-name="Group 20029" transform="translate(3346.353 -689.282)">
      <g id="Group_20028" data-name="Group 20028" clip-path="url(#clip-path)">
        <g id="Group_20022" data-name="Group 20022" transform="translate(10.114 40.009)">
          <g id="Group_20021" data-name="Group 20021" clip-path="url(#clip-path-2)">
            <rect id="Rectangle_8333" data-name="Rectangle 8333" width="10.687" height="11.273" transform="translate(-0.264 0)" fill="url(#linear-gradient)"/>
          </g>
        </g>
        <g id="Group_20027" data-name="Group 20027">
          <g id="Group_20026" data-name="Group 20026" clip-path="url(#clip-path)">
            <path id="Path_99874" data-name="Path 99874" d="M77.658,213.129v0s-4.133,3.28,0,8.93v0c4.133-5.65,0-8.93,0-8.93" transform="translate(-62.483 -175.636)" fill="#ffe697"/>
            <path id="Path_99875" data-name="Path 99875" d="M81.121,225.049h0s-2.47,1.96,0,5.337h0c2.47-3.377,0-5.337,0-5.337" transform="translate(-65.945 -185.459)" fill="#fff"/>
            <path id="Path_99876" data-name="Path 99876" d="M59.9,219.011l.469.905a1.162,1.162,0,0,0,1.032.628h6.226a1.162,1.162,0,0,0,1.032-.628l.469-.905Z" transform="translate(-49.363 -180.483)" fill="#949494"/>
            <path id="Path_99877" data-name="Path 99877" d="M59.9,219.011l.469.905a1.162,1.162,0,0,0,1.032.628h6.226a1.162,1.162,0,0,0,1.032-.628l.469-.905Z" transform="translate(-49.363 -180.483)" fill="none" stroke="#424242" stroke-miterlimit="10" stroke-width="2"/>
            <path id="Path_99878" data-name="Path 99878" d="M52.342,209.251l.6,1.166a1.5,1.5,0,0,0,1.329.808H62.3a1.5,1.5,0,0,0,1.329-.808l.6-1.166Z" transform="translate(-43.134 -172.44)" fill="#4d4d4d"/>
            <path id="Path_99879" data-name="Path 99879" d="M52.342,209.251l.6,1.166a1.5,1.5,0,0,0,1.329.808H62.3a1.5,1.5,0,0,0,1.329-.808l.6-1.166Z" transform="translate(-43.134 -172.44)" fill="none" stroke="#424242" stroke-miterlimit="10" stroke-width="2"/>
            <path id="Path_99880" data-name="Path 99880" d="M101.477,158.474s10.117,3.475,9.473,13.642c0,0-8.518-8.678-13.154-6.821Z" transform="translate(-80.593 -130.595)" fill="#e02424"/>
            <path id="Path_99881" data-name="Path 99881" d="M9.5,158.474S-.613,161.949.03,172.116c0,0,8.518-8.678,13.153-6.821Z" transform="translate(-0.001 -130.595)" fill="#e02424"/>
            <path id="Path_99882" data-name="Path 99882" d="M68.172,8.442A31.977,31.977,0,0,0,63.258,0l0,.012V0a31.943,31.943,0,0,0-4.878,8.351,20.808,20.808,0,0,1,9.8.091" transform="translate(-48.107)" fill="#e02424"/>
            <path id="Path_99883" data-name="Path 99883" d="M54.337,45.325h0l-.135-.346a20.128,20.128,0,0,0-9.8-.091l-.172.437h0c-4.473,11.58-2.445,24.151-1.726,27.7a1.226,1.226,0,0,0,1.2.981H54.859a1.226,1.226,0,0,0,1.2-.981c.719-3.549,2.747-16.12-1.725-27.7" transform="translate(-34.138 -36.538)" fill="#fff"/>
            <path id="Path_99884" data-name="Path 99884" d="M69.683,81.751a4.15,4.15,0,1,1-4.15-4.15,4.15,4.15,0,0,1,4.15,4.15" transform="translate(-50.585 -63.95)" fill="#043146"/>
            <circle id="Ellipse_1851" data-name="Ellipse 1851" cx="4.15" cy="4.15" r="4.15" transform="translate(10.799 13.651)" fill="none" stroke="#424242" stroke-miterlimit="10" stroke-width="2"/>
            <path id="Path_99885" data-name="Path 99885" d="M74.414,87.413a3.175,3.175,0,1,1-3.175-3.175,3.175,3.175,0,0,1,3.175,3.175" transform="translate(-56.09 -69.419)" fill="#7c7c7c"/>
            <circle id="Ellipse_1852" data-name="Ellipse 1852" cx="3.175" cy="3.175" r="3.175" transform="translate(11.974 14.819)" fill="none" stroke="#424242" stroke-miterlimit="10" stroke-width="2"/>
            <path id="Path_99886" data-name="Path 99886" d="M73.384,86.455a3.145,3.145,0,1,1-3.145-3.145,3.145,3.145,0,0,1,3.145,3.145" transform="translate(-55.29 -68.654)" fill="#3ec2e5"/>
            <circle id="Ellipse_1853" data-name="Ellipse 1853" cx="3.145" cy="3.145" r="3.145" transform="translate(11.803 14.656)" fill="none" stroke="#424242" stroke-miterlimit="10" stroke-width="2"/>
            <g id="Group_20025" data-name="Group 20025" transform="translate(11.627 14.48)" opacity="0.08">
              <g id="Group_20024" data-name="Group 20024">
                <g id="Group_20023" data-name="Group 20023" clip-path="url(#clip-path-4)">
                  <path id="Path_99887" data-name="Path 99887" d="M70.439,83.842a3.142,3.142,0,0,1,2.828,1.776,3.143,3.143,0,1,0-5.857,2.206,3.136,3.136,0,0,1,3.029-3.982" transform="translate(-66.917 -83.134)"/>
                  <path id="Path_99888" data-name="Path 99888" d="M70.439,83.842a3.142,3.142,0,0,1,2.828,1.776,3.143,3.143,0,1,0-5.857,2.206,3.136,3.136,0,0,1,3.029-3.982Z" transform="translate(-66.917 -83.134)" fill="none" stroke="#424242" stroke-miterlimit="10" stroke-width="2"/>
                </g>
              </g>
            </g>
            <path id="Path_99889" data-name="Path 99889" d="M79.31,165.673a17.93,17.93,0,0,0,0,14.387,17.93,17.93,0,0,0,0-14.387" transform="translate(-64.116 -136.528)" fill="#e02424"/>
          </g>
        </g>
      </g>
    </g>
  </g>
</svg>
