<svg xmlns="http://www.w3.org/2000/svg" xmlns:xlink="http://www.w3.org/1999/xlink" width="27.692" height="33.95" viewBox="0 0 27.692 33.95">
  <defs>
    <clipPath id="clip-path">
      <rect id="Rectangle_8318" data-name="Rectangle 8318" width="27.692" height="30.178" fill="#6e0d88"/>
    </clipPath>
  </defs>
  <g id="seat" transform="translate(-1383 -1712.05)">
    <g id="Group_19982" data-name="Group 19982" transform="translate(1383 1715.822)">
      <g id="Group_19981" data-name="Group 19981" clip-path="url(#clip-path)">
        <path id="Path_99850" data-name="Path 99850" d="M5.714,30.177A1.372,1.372,0,0,1,4.729,28.8a3.6,3.6,0,0,1,1.1-2.526,3.5,3.5,0,0,1,2.484-1.049q1.974-.015,3.948,0c.233,0,.3-.062.293-.293-.012-1.1-.014-2.2,0-3.3,0-.258-.082-.3-.316-.3-1.473.01-2.946,0-4.419.009a2.586,2.586,0,0,1-1.652-.507.551.551,0,0,0-.359-.094,6.325,6.325,0,0,1-1.64-.092,2.645,2.645,0,0,1-2.013-2.731c-.006-.963-.009-1.925,0-2.888,0-.234-.056-.341-.294-.4A2.531,2.531,0,0,1,0,12.284,1.725,1.725,0,0,1,1.7,10.443c.441-.018.884-.018,1.326,0A1.71,1.71,0,0,1,4.712,12.2c.011,1.866,0,3.733.007,5.6,0,.123-.081.326.1.349s.429.12.589-.119a1.464,1.464,0,0,1,1.317-.633c1.836,0,3.673-.007,5.509.007.27,0,.337-.076.316-.328a4.836,4.836,0,0,1,0-.765c.016-.216-.044-.285-.272-.281-.785.015-1.571.007-2.357.005A3.408,3.408,0,0,1,6.5,12.045c.207-1.525.348-3.06.518-4.59.043-.39.08-.781.128-1.17.044-.349.258-.546.529-.5s.4.279.359.637q-.284,2.544-.558,5.089A5.608,5.608,0,0,0,7.4,13.06a2.484,2.484,0,0,0,2.512,2.084c2.612.012,5.225.021,7.837,0a2.536,2.536,0,0,0,2.511-3.111c-.2-1.536-.346-3.08-.521-4.62-.168-1.481-.3-2.968-.528-4.439a2.394,2.394,0,0,0-2.5-2.083q-2.887-.021-5.775,0A2.527,2.527,0,0,0,8.363,3.411c-.029.352-.073.7-.118,1.053a.439.439,0,0,1-.491.433.412.412,0,0,1-.383-.5,8.247,8.247,0,0,1,.408-2.365,3.389,3.389,0,0,1,3-2.03q3.049-.011,6.1,0a3.412,3.412,0,0,1,3.279,3.04c.21,2.049.457,4.094.686,6.141.121,1.082.253,2.163.351,3.247a3.374,3.374,0,0,1-3.253,3.594c-.854.012-1.709.008-2.563,0-.184,0-.265.039-.254.241a6.7,6.7,0,0,1,0,.854c-.016.229.07.274.283.274,1.836-.008,3.673,0,5.509,0a1.551,1.551,0,0,1,1.113.377.924.924,0,0,1,.194.218c.154.285.414.174.629.157.138-.011.079-.178.079-.275q.006-2.711,0-5.422a1.793,1.793,0,0,1,2.017-2.009c.285,0,.57,0,.854,0a1.723,1.723,0,0,1,1.843,1.567.8.8,0,0,0,.049.137V12.2a1.326,1.326,0,0,0-.053.2,2.509,2.509,0,0,1-1.9,2.246c-.2.054-.235.142-.234.322.007,1.012.01,2.024,0,3.035a2.643,2.643,0,0,1-2.011,2.644,5.61,5.61,0,0,1-1.581.092.786.786,0,0,0-.515.161,1.932,1.932,0,0,1-1.084.417c-.863.031-1.728.022-2.592.017a.4.4,0,0,1-.412-.411.429.429,0,0,1,.4-.461,1.967,1.967,0,0,1,.235-.005c.668,0,1.336.008,2,0a1.619,1.619,0,0,0,1.632-1.335c.1-.578-.112-.834-.7-.834q-7.042,0-14.083,0c-.628,0-.867.324-.7.936a1.635,1.635,0,0,0,1.688,1.235q3.963,0,7.925,0a2.6,2.6,0,0,1,.294.005.441.441,0,0,1,.407.458.419.419,0,0,1-.416.416,4.727,4.727,0,0,1-.618,0c-.214-.018-.261.069-.26.268.008,1.11.011,2.22,0,3.33,0,.236.071.294.3.293,1.306-.009,2.613-.022,3.918,0a3.557,3.557,0,0,1,3.127,1.88,3.445,3.445,0,0,1,.447,1.389,1.4,1.4,0,0,1-.991,1.678h-.589a1.5,1.5,0,0,1-.995-1.381,1.006,1.006,0,0,0-1.041-.991c-1.325-.022-2.65-.009-3.975-.016-.161,0-.2.068-.2.213.007.265.008.53,0,.8a1.3,1.3,0,0,1-.921,1.324c-.024.008-.04.036-.06.055h-.589a1.408,1.408,0,0,1-1-1.594c.017-.2,0-.412,0-.618,0-.126-.044-.174-.17-.174-1.365.007-2.73,0-4.094.023a.994.994,0,0,0-.968.94A1.455,1.455,0,0,1,6.3,30.177Zm4.774-4.069c-.731.037-1.624-.055-2.516.05a2.785,2.785,0,0,0-2.337,2.725.368.368,0,0,0,.353.4.36.36,0,0,0,.4-.314.921.921,0,0,0,.031-.173,1.98,1.98,0,0,1,2.015-1.9c1.492-.023,2.985-.01,4.478,0,.355,0,.516.18.519.534,0,.471-.005.943,0,1.414.006.274.189.471.408.445a.391.391,0,0,0,.37-.444q-.006-.663,0-1.326c0-.46.165-.624.62-.625,1.434,0,2.867,0,4.3,0a2.161,2.161,0,0,1,1,.218,2.05,2.05,0,0,1,1.132,1.8.361.361,0,0,0,.408.368.37.37,0,0,0,.361-.423,2.862,2.862,0,0,0-.269-1.135,2.757,2.757,0,0,0-2.6-1.608c-1.424-.017-2.848,0-4.271,0-.538,0-.677-.139-.678-.679q0-1.8,0-3.594c0-.5,0-.486-.494-.5-.231-.007-.3.058-.293.291.012,1.3.006,2.593.005,3.889,0,.452-.144.593-.6.594-.727,0-1.453,0-2.341,0M3.829,12.963c0-.308.008-.554,0-.8a.786.786,0,0,0-.655-.794,5.723,5.723,0,0,0-1.642,0,.788.788,0,0,0-.643.8,1.676,1.676,0,0,0,.181.737,1.772,1.772,0,0,0,1.789.94c.312-.011.72.1.91-.055s.035-.589.062-.836m20.017-.079h-.011c0,.255.005.51,0,.764,0,.145.036.212.2.208.362-.011.726.011,1.087-.009a1.69,1.69,0,0,0,1.611-1.307.864.864,0,0,0-.674-1.181,6.193,6.193,0,0,0-1.524,0,.754.754,0,0,0-.68.73c-.019.263,0,.529,0,.793m.767,3.626V15.273c0-.55,0-.539-.54-.544-.2,0-.249.063-.247.251.009.648.006,1.3,0,1.944,0,.432.007.865-.025,1.294a.837.837,0,0,1-.765.8c-.466-.007-.636.2-.669.611a.089.089,0,0,1-.011.027c-.072.152,0,.193.142.187s.256,0,.382-.01a1.765,1.765,0,0,0,1.729-1.885c.008-.481,0-.962,0-1.443m-21.558.062c0,.451,0,.9,0,1.354A1.762,1.762,0,0,0,4.8,19.843c.532.047.512.05.422-.454-.045-.249-.126-.33-.385-.335A.958.958,0,0,1,3.831,18c0-.913,0-1.825,0-2.738,0-.544,0-.534-.539-.538-.2,0-.244.068-.24.253.011.53,0,1.06,0,1.59m11.159.144c0-.7,0-.692-.564-.69-.194,0-.228.073-.22.24.012.234,0,.47,0,.705,0,.421,0,.4.413.428.324.025.412-.1.37-.39a2.106,2.106,0,0,1,0-.294" transform="translate(-0.001 0.001)" fill="#6e0d88"/>
      </g>
    </g>
    <path id="Icon_ionic-ios-add-circle" data-name="Icon ionic-ios-add-circle" d="M7.351,3.375a3.976,3.976,0,1,0,3.976,3.976A3.975,3.975,0,0,0,7.351,3.375ZM9.08,7.656H7.656V9.08a.306.306,0,0,1-.612,0V7.656H5.621a.306.306,0,0,1,0-.612H7.045V5.621a.306.306,0,0,1,.612,0V7.045H9.08a.306.306,0,0,1,0,.612Z" transform="translate(1395.625 1708.675)" fill="#e1003e"/>
  </g>
</svg>
