<svg xmlns="http://www.w3.org/2000/svg" xmlns:xlink="http://www.w3.org/1999/xlink" width="17" height="17" viewBox="0 0 17 17">
  <defs>
    <clipPath id="clip-path">
      <rect id="Rectangle_8" data-name="Rectangle 8" width="17" height="17" fill="none"/>
    </clipPath>
  </defs>
  <g id="setting" transform="translate(0.115 0.115)">
    <g id="Group_4" data-name="Group 4" transform="translate(-0.115 -0.115)" clip-path="url(#clip-path)">
      <path id="Path_6" data-name="Path 6" d="M9.261,16.995H7.734a.947.947,0,0,0-.092-.033,1.525,1.525,0,0,1-1.207-1.222,4.883,4.883,0,0,1-.038-.56.186.186,0,0,0-.082-.134c-.324-.137-.653-.263-1.025-.41a3.456,3.456,0,0,1-.266.3,1.541,1.541,0,0,1-2.045.044,10.013,10.013,0,0,1-.961-.961A1.538,1.538,0,0,1,2.07,11.96a3.867,3.867,0,0,1,.293-.261c-.134-.324-.267-.6-.364-.9-.055-.165-.125-.224-.3-.213a1.555,1.555,0,0,1-1.328-.546A1.879,1.879,0,0,1,0,9.261V7.734c.013-.042.026-.083.037-.125A1.574,1.574,0,0,1,.954,6.521,2,2,0,0,1,1.783,6.4a.212.212,0,0,0,.165-.083c.14-.323.265-.653.406-1.007-.077-.072-.174-.154-.261-.246a1.545,1.545,0,0,1-.045-2.121,11.7,11.7,0,0,1,.9-.9,1.544,1.544,0,0,1,2.084.034,3.881,3.881,0,0,1,.262.293C5.62,2.23,5.9,2.1,6.192,2A.25.25,0,0,0,6.4,1.7,1.555,1.555,0,0,1,6.95.371,1.9,1.9,0,0,1,7.734,0H9.261a.316.316,0,0,0,.06.027,1.524,1.524,0,0,1,1.244,1.244,4.7,4.7,0,0,1,.034.544.184.184,0,0,0,.083.133c.324.137.653.264,1.018.409.066-.075.144-.177.236-.264a1.544,1.544,0,0,1,2.12-.046,11.356,11.356,0,0,1,.9.9,1.546,1.546,0,0,1-.033,2.084,3.708,3.708,0,0,1-.294.261c.134.324.267.6.364.9.055.165.125.224.3.213a1.553,1.553,0,0,1,1.339.559,1.908,1.908,0,0,1,.361.772V9.261c-.013.042-.026.083-.038.125a1.522,1.522,0,0,1-1.106,1.146,4.483,4.483,0,0,1-.656.066.209.209,0,0,0-.149.084c-.138.324-.264.653-.411,1.021a3.685,3.685,0,0,1,.289.257,1.54,1.54,0,0,1,.053,2.057,9.849,9.849,0,0,1-.961.961,1.537,1.537,0,0,1-2.057-.055,3.694,3.694,0,0,1-.26-.294c-.3.127-.566.242-.833.346s-.274.1-.271.386a1.513,1.513,0,0,1-.7,1.366,3.718,3.718,0,0,1-.634.268m-.769-1c.177,0,.354,0,.531,0a.568.568,0,0,0,.572-.584c0-.221,0-.443,0-.664A.5.5,0,0,1,10,14.2a6.437,6.437,0,0,0,1.463-.609.5.5,0,0,1,.663.088c.163.158.319.322.482.48a.555.555,0,0,0,.815.007q.377-.363.74-.739a.555.555,0,0,0,0-.815c-.157-.164-.321-.32-.479-.483a.494.494,0,0,1-.1-.661,6.461,6.461,0,0,0,.615-1.478.5.5,0,0,1,.536-.4c.227,0,.454,0,.68,0A.559.559,0,0,0,16,9.046q.018-.547,0-1.1A.561.561,0,0,0,15.41,7.4c-.216,0-.431,0-.647,0a.511.511,0,0,1-.564-.429,6.37,6.37,0,0,0-.6-1.432.5.5,0,0,1,.1-.688c.155-.158.315-.311.468-.471a.555.555,0,0,0,0-.815q-.364-.375-.739-.739a.554.554,0,0,0-.815,0c-.163.158-.32.322-.482.48a.5.5,0,0,1-.662.091A6.373,6.373,0,0,0,9.99,2.787.5.5,0,0,1,9.6,2.264c0-.227,0-.454,0-.68A.564.564,0,0,0,9.026,1C8.677.99,8.329.991,7.98,1a.566.566,0,0,0-.58.592c0,.221,0,.443,0,.664a.5.5,0,0,1-.4.536A6.464,6.464,0,0,0,5.521,3.4a.491.491,0,0,1-.65-.086c-.163-.157-.32-.322-.483-.48a.559.559,0,0,0-.839,0q-.355.349-.7.7a.56.56,0,0,0,0,.851c.158.162.323.319.48.483a.481.481,0,0,1,.091.621,6.6,6.6,0,0,0-.632,1.525.49.49,0,0,1-.505.375c-.232,0-.465,0-.7,0A.561.561,0,0,0,1,7.956c-.01.359-.009.719,0,1.079a.562.562,0,0,0,.578.56c.232,0,.465,0,.7,0a.494.494,0,0,1,.512.387,6.416,6.416,0,0,0,.62,1.494.492.492,0,0,1-.091.649c-.157.163-.322.32-.48.482a.556.556,0,0,0,0,.827q.358.369.727.728a.558.558,0,0,0,.827,0c.163-.158.32-.322.482-.48a.494.494,0,0,1,.649-.091,6.479,6.479,0,0,0,1.494.62.5.5,0,0,1,.387.513c0,.227,0,.454,0,.68a.571.571,0,0,0,.594.6c.166,0,.332,0,.5,0" transform="translate(0.005 0.005)" fill="#1a1818"/>
      <path id="Path_7" data-name="Path 7" d="M148.167,144.461a3.7,3.7,0,1,1-3.7,3.713,3.712,3.712,0,0,1,3.7-3.713m.005,1.008a2.695,2.695,0,1,0,2.7,2.7,2.685,2.685,0,0,0-2.7-2.7" transform="translate(-139.671 -139.66)" fill="#1a1818"/>
    </g>
  </g>
</svg>
