<svg xmlns="http://www.w3.org/2000/svg" width="52.205" height="52.001" viewBox="0 0 52.205 52.001">
  <g id="tile-icon6" transform="translate(0 0)" opacity="0.1">
    <g id="Group_19995" data-name="Group 19995">
      <path id="Path_99857" data-name="Path 99857" d="M51.814,24.185c-.1.032-.09.128-.121.2a2.055,2.055,0,0,1-2.269,1.293,2.033,2.033,0,0,1-1.655-2.113c0-3.71,0-7.421,0-11.131a4.085,4.085,0,0,0-2.289-3.913A4.278,4.278,0,0,0,43.621,8.1c-.724-.024-1.451.007-2.175-.012-.291-.008-.377.088-.367.373.02.556.013,1.113,0,1.669a2.02,2.02,0,0,1-4.041-.016c-.008-.556-.012-1.113,0-1.67.006-.249-.05-.357-.331-.356q-4.275.014-8.551,0c-.27,0-.347.086-.34.347.016.573.014,1.147,0,1.72a2.02,2.02,0,0,1-4.04-.018c-.01-.556-.014-1.113,0-1.669.008-.273-.056-.382-.358-.381q-4.2.016-8.4,0c-.293,0-.375.092-.365.374.019.556.013,1.113,0,1.669a2.02,2.02,0,0,1-4.041-.019c-.008-.556,0-1.113,0-1.67,0-.159.051-.356-.226-.348a14.548,14.548,0,0,0-3.274.149A4.046,4.046,0,0,0,4.047,12.4q-.01,5.515,0,11.03,0,9.993,0,19.986a4.077,4.077,0,0,0,2.286,3.915,4.509,4.509,0,0,0,2.106.432q7.539,0,15.078,0a2.017,2.017,0,0,1,1.947,1.268,2.084,2.084,0,0,1-.456,2.2,4.841,4.841,0,0,1-.923.579h-17c-.173-.183-.414-.1-.62-.152A8.1,8.1,0,0,1,0,43.584Q0,27.923,0,12.262A10.182,10.182,0,0,1,.093,10.9a8.122,8.122,0,0,1,7.685-6.85q1.239-.021,2.479,0c.281.005.386-.071.375-.365-.021-.556-.013-1.113,0-1.67a2.02,2.02,0,0,1,4.041,0c.008.54.014,1.08,0,1.619-.009.284.037.417.376.415q4.2-.021,8.4,0c.261,0,.355-.071.346-.341-.018-.573-.014-1.147,0-1.72A2.02,2.02,0,0,1,27.825,2q.016.86,0,1.72c0,.222.039.335.3.334q4.3-.011,8.6,0c.241,0,.323-.075.318-.317q-.02-.885,0-1.771a2.019,2.019,0,0,1,4.038.011,15.338,15.338,0,0,1-.007,1.568c-.035.442.131.533.537.515.741-.033,1.485-.032,2.226,0a8,8,0,0,1,7.145,4.508,12.066,12.066,0,0,1,.831,2.569Z" transform="translate(0 0)" fill="#6e0d88"/>
      <path id="Path_99859" data-name="Path 99859" d="M106.821,193.672a2.021,2.021,0,1,1,2.034-2,2.005,2.005,0,0,1-2.034,2" transform="translate(-94.185 -170.401)" fill="#6e0d88"/>
      <path id="Path_99860" data-name="Path 99860" d="M195.683,191.665a2.021,2.021,0,1,1-1.994-2.036,2.005,2.005,0,0,1,1.994,2.036" transform="translate(-172.208 -170.401)" fill="#6e0d88"/>
      <path id="Path_99861" data-name="Path 99861" d="M280.469,189.629a2.021,2.021,0,1,1-2,2.034,2.006,2.006,0,0,1,2-2.034" transform="translate(-250.236 -170.401)" fill="#6e0d88"/>
      <path id="Path_99862" data-name="Path 99862" d="M367.309,189.63a2.021,2.021,0,1,1-2.006,2.024,2,2,0,0,1,2.006-2.024" transform="translate(-328.262 -170.402)" fill="#6e0d88"/>
      <path id="Path_99863" data-name="Path 99863" d="M108.854,278.457a2.021,2.021,0,1,1-2.034-2,2.006,2.006,0,0,1,2.034,2" transform="translate(-94.184 -248.428)" fill="#6e0d88"/>
      <path id="Path_99864" data-name="Path 99864" d="M195.684,278.475a2.021,2.021,0,1,1-2.016-2.014,2.006,2.006,0,0,1,2.016,2.014" transform="translate(-172.21 -248.428)" fill="#6e0d88"/>
      <path id="Path_99865" data-name="Path 99865" d="M108.855,365.315a2.021,2.021,0,1,1-2.006-2.024,2.005,2.005,0,0,1,2.006,2.024" transform="translate(-94.184 -326.455)" fill="#6e0d88"/>
      <path id="Path_99866" data-name="Path 99866" d="M195.685,365.287a2.021,2.021,0,1,1-2.034-2,2.006,2.006,0,0,1,2.034,2" transform="translate(-172.211 -326.454)" fill="#6e0d88"/>
      <path id="Icon_ionic-md-close" data-name="Icon ionic-md-close" d="M27.808,9.552,25.78,7.523l-8.114,8.114L9.552,7.523,7.523,9.552l8.114,8.114L7.523,25.78l2.028,2.028,8.114-8.114,8.114,8.114,2.028-2.028-8.114-8.114Z" transform="translate(23.69 23.486)" fill="#e1003e" stroke="#e1003e" stroke-width="1"/>
    </g>
  </g>
</svg>
