<svg xmlns="http://www.w3.org/2000/svg" width="75.776" height="58.035" viewBox="0 0 75.776 58.035">
  <g id="tile-icon2" transform="translate(-1109.656 -1181.901)" opacity="0.1">
    <g id="Group_19985" data-name="Group 19985" transform="translate(1109.806 1182)">
      <g id="Group_19986" data-name="Group 19986" transform="translate(0 0)">
        <path id="Path_99851" data-name="Path 99851" d="M0,166.132c.086.2.008.426.1.651.012-.145.031-.267.032-.389a10.246,10.246,0,0,1,.743-3.525A14.074,14.074,0,0,1,8.163,154.9c.066-.032.135-.059.2-.1s.188-.031.191-.114-.111-.1-.174-.148a9.9,9.9,0,0,1,2.634-17.43,9.52,9.52,0,0,1,6.34.013,9.734,9.734,0,0,1,5.936,5.519,9.21,9.21,0,0,1,.77,4.6,9.829,9.829,0,0,1-2.265,5.6,10.747,10.747,0,0,1-1.949,1.79l-.086.063c.374.185.748.333,1.1.529a14.205,14.205,0,0,1,6.419,7.185,13.376,13.376,0,0,1,.992,4.316c.1,1.662.026,3.326.046,4.989,0,.374.012.749-.011,1.122a1.42,1.42,0,0,1-1.267,1.321,3.937,3.937,0,0,1-.459.027q-12.059,0-24.118,0a5.579,5.579,0,0,1-1.321-.061,1.382,1.382,0,0,1-1.062-1.037c-.011-.041.01-.118-.078-.065Zm14.153,5.084h5.508q2.754,0,5.508.005c.152,0,.194-.033.193-.191q-.013-1.869-.006-3.738a9.285,9.285,0,0,0-.086-1.229,10.846,10.846,0,0,0-1.937-4.835,11.1,11.1,0,0,0-4.611-3.78,11.346,11.346,0,0,0-6.261-.841,10.3,10.3,0,0,0-2.918.859,11.157,11.157,0,0,0-6.594,10.068c-.007,1.1,0,2.2,0,3.3,0,.387,0,.386.391.386H14.153m6.995-24.689a6.99,6.99,0,1,0-7.133,6.962,6.981,6.981,0,0,0,7.133-6.962" transform="translate(0 -116.405)" fill="#6e0d88" stroke="#6e0d88" stroke-width="0.3"/>
        <path id="Path_99852" data-name="Path 99852" d="M338.983,154.768a10.043,10.043,0,0,1,1.449.731,14.264,14.264,0,0,1,7.123,12.41c-.007,1.59,0,3.18,0,4.769a1.5,1.5,0,0,1-1.052,1.483,2.737,2.737,0,0,1-.839.083q-9,0-18,0-3.427,0-6.853-.014a1.454,1.454,0,0,1-1.456-.894,1.7,1.7,0,0,1-.119-.7c.012-1.829-.022-3.657.016-5.486a13.009,13.009,0,0,1,.719-3.854,14.094,14.094,0,0,1,3.378-5.479,14.266,14.266,0,0,1,4.356-3c.034-.015.07-.023.09-.059a9.821,9.821,0,0,1-4.309-8.513,9.457,9.457,0,0,1,3.183-6.952,9.916,9.916,0,1,1,12.318,15.476m-5.589,16.509v0q5.518,0,11.036,0c.154,0,.179-.048.178-.186-.005-.921-.009-1.841,0-2.762a17.7,17.7,0,0,0-.094-2.076,10.307,10.307,0,0,0-1.073-3.5,11.143,11.143,0,0,0-10.663-6.19,10.78,10.78,0,0,0-4.465,1.176,11.066,11.066,0,0,0-4.855,4.8,10.206,10.206,0,0,0-1.253,4.587c-.035,1.331-.012,2.664-.019,4,0,.121.033.154.155.154q5.527,0,11.054,0m.005-17.732a6.982,6.982,0,1,0-7-6.949,7.025,7.025,0,0,0,7,6.949" transform="translate(-272.078 -116.463)" fill="#6e0d88" stroke="#6e0d88" stroke-width="0.3"/>
        <path id="Path_99853" data-name="Path 99853" d="M171.835,0c3.194,0,6.388-.01,9.582,0a4.711,4.711,0,0,1,4.463,3.266,4.871,4.871,0,0,1,.256,1.591q0,7.136,0,14.272a4.82,4.82,0,0,1-4.161,4.742,6.733,6.733,0,0,1-.844.055h-8.845a.321.321,0,0,1-.074,0,.919.919,0,0,0-.92.375c-1.614,1.634-3.242,3.254-4.865,4.877a1.768,1.768,0,0,1-.861.541,1.487,1.487,0,0,1-1.726-1.15,3.232,3.232,0,0,1-.047-.623c0-1.277,0-2.554,0-3.83,0-.142-.03-.192-.182-.19-.5.007-1,.014-1.492-.011a4.737,4.737,0,0,1-3.312-1.554,4.889,4.889,0,0,1-1.3-3.5c0-4.671-.006-9.342,0-14.013A4.831,4.831,0,0,1,161.143.145,4.356,4.356,0,0,1,162.217,0q4.809,0,9.618,0m-5.051,24.734c.046-.057.081-.109.124-.152,1-1.01,2.017-2.012,3.011-3.031a1.8,1.8,0,0,1,1.361-.573c3.328.008,6.657,0,9.985.012a1.817,1.817,0,0,0,1.923-1.892q0-3.195,0-6.389c0-2.651.005-5.3,0-7.954a1.763,1.763,0,0,0-.853-1.56,2.239,2.239,0,0,0-1.256-.285c-4.341.018-8.683-.025-13.025.025-1.725.02-3.451,0-5.177,0-.246,0-.492,0-.737.011a1.777,1.777,0,0,0-1.658,1.552,7.621,7.621,0,0,0-.018,1.011q0,5.846,0,11.692c0,.632-.01,1.264-.007,1.9a1.827,1.827,0,0,0,.241.951,1.8,1.8,0,0,0,1.588.938c.976.014,1.953.006,2.929.007a1.438,1.438,0,0,1,1.506,1.377c.051.71.02,1.423.018,2.135,0,.064-.035.134.049.226" transform="translate(-134.248 -0.001)" fill="#e1003e" stroke="#e1003e" stroke-width="0.2"/>
        <path id="Path_99854" data-name="Path 99854" d="M246.987,254.019a1.461,1.461,0,1,1,1.484-1.459,1.477,1.477,0,0,1-1.484,1.459" transform="translate(-209.26 -214.011)" fill="#6e0d88" stroke="#6e0d88" stroke-width="0.3"/>
        <path id="Path_99855" data-name="Path 99855" d="M196.007,251.1a1.459,1.459,0,1,1-1.476,1.432,1.464,1.464,0,0,1,1.476-1.432" transform="translate(-165.799 -214.014)" fill="#6e0d88" stroke="#6e0d88" stroke-width="0.3"/>
        <path id="Path_99856" data-name="Path 99856" d="M298.184,251.1a1.476,1.476,0,0,1,1.454,1.476,1.457,1.457,0,0,1-2.914-.009,1.47,1.47,0,0,1,1.46-1.467" transform="translate(-252.898 -214.013)" fill="#6e0d88" stroke="#6e0d88" stroke-width="0.3"/>
      </g>
    </g>
  </g>
</svg>
