<svg xmlns="http://www.w3.org/2000/svg" xmlns:xlink="http://www.w3.org/1999/xlink" width="53.395" height="58.97" viewBox="0 0 53.395 58.97">
  <defs>
    <clipPath id="clip-path">
      <rect id="Rectangle_8295" data-name="Rectangle 8295" width="53.395" height="58.97" fill="#6e0d88"/>
    </clipPath>
  </defs>
  <g id="tile-icon1" opacity="0.1">
    <g id="Group_19929" data-name="Group 19929" clip-path="url(#clip-path)">
      <path id="Path_99831" data-name="Path 99831" d="M53.4,17.71V45.557c-.214.958-.408,1.921-.645,2.873a12.814,12.814,0,0,1-6.6,8.641,18.066,18.066,0,0,1-8.686,1.9c-7.225-.022-14.449.019-21.674-.027a24.319,24.319,0,0,1-4.664-.453A13.04,13.04,0,0,1,3.194,53.8a14.392,14.392,0,0,1-3.133-8.9C-.052,36.272.029,27.634.022,19a16.748,16.748,0,0,1,.86-5.286A12.894,12.894,0,0,1,5.116,7.4a13.621,13.621,0,0,1,6.343-2.791c.726-.119,1.447-.271,2.163-.407,0-.461.028-.847,0-1.229A2.6,2.6,0,0,1,15.418,0H15.8a1.252,1.252,0,0,0,.255.119,1.945,1.945,0,0,1,1.681,2.074,19.3,19.3,0,0,0-.012,1.946H35.561V3.656c0-.47,0-.94,0-1.41A2.27,2.27,0,0,1,37.486,0h.257c.041.041.075.108.122.118a2.019,2.019,0,0,1,1.8,2.229c0,.513-.029,1.029.016,1.538a.622.622,0,0,0,.345.46c.814.167,1.646.245,2.461.409a13.076,13.076,0,0,1,6.044,2.911A13.251,13.251,0,0,1,52.9,15.372c.155.781.332,1.558.5,2.337M4.158,19.376l.1.1c.17.008.34.022.511.022q21.941,0,43.882,0c.17,0,.34-.015.51-.023l.1-.1c-.117-1-.19-2-.359-2.986a8.683,8.683,0,0,0-5.811-7.214,31.535,31.535,0,0,0-3.418-.839c0,.849.044,1.513-.01,2.168a2.029,2.029,0,0,1-2.075,1.931,2.117,2.117,0,0,1-2.021-1.919c-.016-.719,0-1.439,0-2.152H17.727c0,.719-.041,1.4.01,2.08a2.081,2.081,0,0,1-1.82,1.99,2.052,2.052,0,0,1-2.15-1.544c-.129-.785-.146-1.588-.219-2.464-.6.1-1.219.171-1.822.3a9.018,9.018,0,0,0-4.417,2.146c-2.434,2.311-3.168,5.269-3.151,8.5m-.03,4.25c0,2.922-.016,5.786,0,8.649.031,4.481.017,8.965.177,13.442a10.616,10.616,0,0,0,1,3.74c1.591,3.635,4.762,5.19,8.424,5.279,8.185.2,16.378.064,24.568.075a14.111,14.111,0,0,0,4.26-.653,8.768,8.768,0,0,0,5.522-4.739,15.071,15.071,0,0,0,1.178-6.554c.074-6.223.026-12.448.024-18.672,0-.185-.018-.369-.028-.566Z" transform="translate(0)" fill="#6e0d88"/>
      <path id="Path_99832" data-name="Path 99832" d="M32.328,150.661l.1.1-.1-.1" transform="translate(-28.17 -131.285)" fill="#6e0d88"/>
      <path id="Path_99833" data-name="Path 99833" d="M382.238,150.764l.1-.1-.1.1" transform="translate(-333.079 -131.289)" fill="#6e0d88"/>
      <path id="Path_99834" data-name="Path 99834" d="M188.678,320.52a2.644,2.644,0,0,1-2.689-2.756,2.559,2.559,0,0,1,2.483-2.652,2.668,2.668,0,0,1,3.01,2.864,2.766,2.766,0,0,1-2.8,2.544" transform="translate(-162.069 -274.578)" fill="#e1003e"/>
      <path id="Path_99835" data-name="Path 99835" d="M263.243,245.9a2.7,2.7,0,1,1,.2-5.385,2.6,2.6,0,0,1,2.593,2.661,2.637,2.637,0,0,1-2.791,2.724" transform="translate(-227.033 -209.582)" fill="#e1003e"/>
      <path id="Path_99836" data-name="Path 99836" d="M263.227,320.683a2.733,2.733,0,0,1-2.692-2.781c.008-1.649,1.108-2.6,2.994-2.612a2.535,2.535,0,0,1,2.5,2.658,2.648,2.648,0,0,1-2.8,2.734" transform="translate(-227.028 -274.741)" fill="#e1003e"/>
      <path id="Path_99837" data-name="Path 99837" d="M111.826,242.983a2.621,2.621,0,0,1,2.811-2.676,2.72,2.72,0,1,1-.332,5.429,2.647,2.647,0,0,1-2.479-2.753" transform="translate(-97.434 -209.394)" fill="#e1003e"/>
      <path id="Path_99838" data-name="Path 99838" d="M188.662,245.8a2.644,2.644,0,0,1-2.747-2.69,2.673,2.673,0,0,1,2.8-2.709,2.717,2.717,0,0,1,2.7,2.731,2.688,2.688,0,0,1-2.754,2.668" transform="translate(-162.005 -209.48)" fill="#e1003e"/>
      <path id="Path_99839" data-name="Path 99839" d="M114.431,315.313c1.809,0,2.717,1.022,2.738,2.982a2.715,2.715,0,0,1-5.413-.4,2.542,2.542,0,0,1,2.675-2.584" transform="translate(-97.38 -274.761)" fill="#e1003e"/>
    </g>
  </g>
</svg>
