<svg xmlns="http://www.w3.org/2000/svg" width="16.546" height="16.546" viewBox="0 0 16.546 16.546">
  <path id="Path_103224" data-name="Path 103224" d="M8.014,11.634a.646.646,0,1,1,0,1.293h-.9a.646.646,0,1,1,0-1.293Zm5.3-3.458a.646.646,0,0,0-.646-.646H7.11a.646.646,0,0,0,0,1.293h5.558A.646.646,0,0,0,13.314,8.176ZM7.11,4.944h5.558a.646.646,0,1,0,0-1.293H7.11a.646.646,0,1,0,0,1.293ZM4.524,11.634H3.878a.646.646,0,1,0,0,1.293h.646a.646.646,0,1,0,0-1.293Zm0-4.1H3.878a.646.646,0,0,0,0,1.293h.646a.646.646,0,0,0,0-1.293Zm0-3.878H3.878a.646.646,0,1,0,0,1.293h.646a.646.646,0,0,0,0-1.293ZM16.357,15.442a.646.646,0,0,1-.914.914l-1.093-1.093a2.908,2.908,0,1,1,1.421-2.5c0,.593-.632.937-.485,1.606S16.357,15.442,16.357,15.442Zm-3.495-1.062a1.616,1.616,0,1,0-1.616-1.616A1.618,1.618,0,0,0,12.862,14.381ZM13.961,0H2.585A2.588,2.588,0,0,0,0,2.585V13.961a2.588,2.588,0,0,0,2.585,2.585H9.242a.646.646,0,0,0,0-1.293H2.585a1.294,1.294,0,0,1-1.293-1.293V2.585A1.294,1.294,0,0,1,2.585,1.293H13.961a1.294,1.294,0,0,1,1.293,1.293v6.4a.646.646,0,0,0,1.293,0v-6.4A2.588,2.588,0,0,0,13.961,0Zm0,0"/>
</svg>
