<svg id="Group_22006" data-name="Group 22006" xmlns="http://www.w3.org/2000/svg" width="15.994" height="19.17" viewBox="0 0 15.994 19.17">
  <path id="Path_103245" data-name="Path 103245" d="M91.649,9.234a4.468,4.468,0,0,0,3.265-1.353,4.468,4.468,0,0,0,1.353-3.265,4.468,4.468,0,0,0-1.353-3.265,4.616,4.616,0,0,0-6.529,0,4.468,4.468,0,0,0-1.353,3.264,4.468,4.468,0,0,0,1.353,3.265A4.469,4.469,0,0,0,91.649,9.234Zm-2.47-7.087a3.493,3.493,0,0,1,4.94,0,3.338,3.338,0,0,1,1.024,2.47,3.338,3.338,0,0,1-1.024,2.47,3.492,3.492,0,0,1-4.94,0,3.337,3.337,0,0,1-1.024-2.47A3.338,3.338,0,0,1,89.178,2.147Zm0,0" transform="translate(-83.773)"/>
  <path id="Path_103246" data-name="Path 103246" d="M15.955,252.8a11.4,11.4,0,0,0-.155-1.211,9.543,9.543,0,0,0-.3-1.218,6.015,6.015,0,0,0-.5-1.136,4.282,4.282,0,0,0-.755-.984,3.329,3.329,0,0,0-1.084-.681,3.748,3.748,0,0,0-1.384-.251,1.405,1.405,0,0,0-.75.318c-.225.147-.488.316-.782.5a4.478,4.478,0,0,1-1.011.446,3.928,3.928,0,0,1-2.474,0,4.465,4.465,0,0,1-1.011-.445c-.291-.186-.554-.356-.782-.5a1.4,1.4,0,0,0-.75-.318,3.743,3.743,0,0,0-1.384.251,3.326,3.326,0,0,0-1.085.681,4.282,4.282,0,0,0-.755.984,6.026,6.026,0,0,0-.5,1.136,9.566,9.566,0,0,0-.3,1.218A11.326,11.326,0,0,0,.038,252.8c-.025.366-.038.747-.038,1.132a3.183,3.183,0,0,0,.945,2.408,3.4,3.4,0,0,0,2.436.888h9.23a3.4,3.4,0,0,0,2.436-.888,3.182,3.182,0,0,0,.946-2.408C15.993,253.543,15.98,253.162,15.955,252.8Zm-1.681,2.727a2.291,2.291,0,0,1-1.662.579H3.382a2.291,2.291,0,0,1-1.662-.579,2.079,2.079,0,0,1-.6-1.594c0-.359.012-.714.036-1.054a10.217,10.217,0,0,1,.14-1.091,8.437,8.437,0,0,1,.262-1.074,4.907,4.907,0,0,1,.407-.924,3.174,3.174,0,0,1,.555-.727,2.208,2.208,0,0,1,.721-.449,2.585,2.585,0,0,1,.885-.171c.039.021.109.061.223.135.231.15.5.322.791.51a5.566,5.566,0,0,0,1.27.567,5.05,5.05,0,0,0,3.165,0,5.572,5.572,0,0,0,1.27-.568c.3-.192.56-.359.791-.51.113-.074.184-.114.223-.135a2.587,2.587,0,0,1,.885.171,2.211,2.211,0,0,1,.721.449,3.165,3.165,0,0,1,.555.727,4.89,4.89,0,0,1,.408.923,8.417,8.417,0,0,1,.262,1.074,10.3,10.3,0,0,1,.14,1.091h0c.024.339.036.694.036,1.054A2.078,2.078,0,0,1,14.273,255.524Zm0,0" transform="translate(0 -238.057)"/>
</svg>
