<svg xmlns="http://www.w3.org/2000/svg" width="15.059" height="15.059" viewBox="0 0 15.059 15.059">
  <g id="Group_21835" data-name="Group 21835" transform="translate(-164.35 -58.356)">
    <g id="Group_21834" data-name="Group 21834" transform="translate(164.35 58.356)">
      <g id="ngicon">
        <path id="Path_103192" data-name="Path 103192" d="M1277.017,104.534l-1.757,1.759a4.568,4.568,0,0,0,0,6.466c.032.034.065.068.1.1a4.572,4.572,0,0,0,6.465,0l1.761-1.759a1.01,1.01,0,0,0-1.43-1.428s-.832.83-1.761,1.759a2.553,2.553,0,0,1-3.61,0l-.1-.1a2.555,2.555,0,0,1,0-3.611l1.761-1.759a1.01,1.01,0,1,0-1.43-1.428Zm6.009-.867-4.579,4.579a1.009,1.009,0,0,0,1.426,1.428l4.579-4.58a1.009,1.009,0,1,0-1.426-1.428Zm2.843,5.15,1.769-1.769a4.568,4.568,0,0,0,0-6.466c-.032-.034-.065-.068-.1-.1a4.572,4.572,0,0,0-6.465,0c-.929.928-1.757,1.758-1.757,1.758a1.009,1.009,0,0,0,1.426,1.428s.832-.83,1.761-1.759a2.553,2.553,0,0,1,3.61,0l.1.1a2.555,2.555,0,0,1,0,3.611l-1.769,1.768a1.009,1.009,0,0,0,1.426,1.428Z" transform="translate(-1273.92 -99.141)" fill="#e1003e" fill-rule="evenodd"/>
      </g>
    </g>
  </g>
</svg>
