<svg id="Group_21411" data-name="Group 21411" xmlns="http://www.w3.org/2000/svg" width="17.504" height="17.462" viewBox="0 0 17.504 17.462">
  <path id="Path_102855" data-name="Path 102855" d="M16.885,10.189a8.316,8.316,0,0,0,.138-1.5A8.259,8.259,0,0,0,8.757.425,8.32,8.32,0,0,0,7.192.573h0A4.89,4.89,0,0,0,.616,7.266,8.329,8.329,0,0,0,.491,8.69a8.262,8.262,0,0,0,8.266,8.266,8.312,8.312,0,0,0,1.448-.129,4.891,4.891,0,0,0,6.68-6.639Zm0,0" fill="#00aff0"/>
  <path id="Path_102856" data-name="Path 102856" d="M137.039,106.693c-2.936,0-4.25-1.444-4.25-2.526a.923.923,0,0,1,.974-.944c1.257,0,.931,1.8,3.276,1.8,1.2,0,1.863-.652,1.863-1.319,0-.4-.2-.846-.988-1.041l-2.612-.652c-2.1-.528-2.485-1.665-2.485-2.734,0-2.219,2.09-3.053,4.052-3.053,1.808,0,3.939,1,3.939,2.331a.955.955,0,0,1-1.059.9c-1.072,0-.875-1.484-3.035-1.484-1.072,0-1.666.485-1.666,1.18s.847.915,1.582,1.082l1.933.429c2.118.472,2.655,1.708,2.655,2.873C141.218,105.346,139.833,106.693,137.039,106.693Zm0,0" transform="translate(-128.249 -92.941)" fill="#fff"/>
</svg>
