<svg id="Group_21346" data-name="Group 21346" xmlns="http://www.w3.org/2000/svg" width="19.063" height="19.063" viewBox="0 0 19.063 19.063">
  <g id="Group_21347" data-name="Group 21347" transform="translate(2.83 3.947)">
    <g id="Group_21346-2" data-name="Group 21346">
      <path id="Path_102870" data-name="Path 102870" d="M80.455,112.034l-1.117-5.585A.558.558,0,0,0,78.79,106H77.673a.558.558,0,0,0-.548.449l-1.117,5.585a.558.558,0,1,0,1.1.219l.357-1.785H79l.357,1.785a.558.558,0,0,0,1.1-.219Zm-2.77-2.683.447-2.234h.2l.447,2.234Z" transform="translate(-75.998 -106)"/>
    </g>
  </g>
  <g id="Group_21349" data-name="Group 21349" transform="translate(11.207 7.297)">
    <g id="Group_21348" data-name="Group 21348">
      <path id="Path_102871" data-name="Path 102871" d="M306.026,197.117h-1.675v-.558a.558.558,0,0,0-1.117,0v.558h-1.675a.558.558,0,0,0,0,1.117h.135a6.987,6.987,0,0,0,1.324,2.449c-.429.392-.863.714-1.25,1.024a.558.558,0,1,0,.7.872c.389-.311.855-.657,1.327-1.09.472.433.939.779,1.327,1.09a.558.558,0,1,0,.7-.872c-.386-.309-.82-.631-1.25-1.024a6.987,6.987,0,0,0,1.324-2.449h.135a.558.558,0,0,0,0-1.117Zm-2.234,2.746a5.882,5.882,0,0,1-.919-1.632h1.838A5.883,5.883,0,0,1,303.792,199.863Z" transform="translate(-301 -196)"/>
    </g>
  </g>
  <g id="Group_21351" data-name="Group 21351">
    <g id="Group_21350" data-name="Group 21350">
      <path id="Path_102872" data-name="Path 102872" d="M17.387,3.388H9.33l-.239-1.92A1.678,1.678,0,0,0,7.428,0H1.675A1.677,1.677,0,0,0,0,1.675V14a1.677,1.677,0,0,0,1.675,1.675H6.385l.236,1.92a1.679,1.679,0,0,0,1.662,1.468h9.1a1.677,1.677,0,0,0,1.675-1.675V5.063A1.677,1.677,0,0,0,17.387,3.388ZM1.675,14.557A.559.559,0,0,1,1.117,14V1.675a.559.559,0,0,1,.558-.558H7.428a.559.559,0,0,1,.554.489L9.6,14.557ZM7.7,17.192,7.51,15.674h1.5Zm10.249.2a.559.559,0,0,1-.558.558H8.521l2.126-2.459a.558.558,0,0,0,.135-.448L9.469,4.505h7.918a.559.559,0,0,1,.558.558Z"/>
    </g>
  </g>
</svg>
