<svg id="Group_21413" data-name="Group 21413" xmlns="http://www.w3.org/2000/svg" xmlns:xlink="http://www.w3.org/1999/xlink" width="13.504" height="18" viewBox="0 0 13.504 18">
  <defs>
    <clipPath id="clip-path">
      <rect id="Rectangle_6056" data-name="Rectangle 6056" width="13.504" height="18" fill="#e1003e"/>
    </clipPath>
  </defs>
  <g id="Group_15514" data-name="Group 15514" clip-path="url(#clip-path)">
    <path id="Path_79158" data-name="Path 79158" d="M6.615,18c-.287-.245-.591-.474-.86-.739a24.755,24.755,0,0,1-4.024-5.054A13.062,13.062,0,0,1,.166,8.361,6.859,6.859,0,0,1,4.1.555a6.771,6.771,0,0,1,9.4,6.694,9.778,9.778,0,0,1-.992,3.594A20.656,20.656,0,0,1,9.13,15.806c-.58.651-1.2,1.262-1.816,1.883A3.278,3.278,0,0,1,6.9,18ZM10.5,6.749A3.744,3.744,0,1,0,6.765,10.5,3.746,3.746,0,0,0,10.5,6.749" transform="translate(0 0)" fill="#e1003e"/>
  </g>
</svg>
