<svg id="Group_21900" data-name="Group 21900" xmlns="http://www.w3.org/2000/svg" width="20" height="20" viewBox="0 0 20 20">
  <g id="Group_21506" data-name="Group 21506" transform="translate(9.225 4.64)">
    <g id="Group_21505" data-name="Group 21505">
      <path id="Path_102909" data-name="Path 102909" d="M240.507,125.905l-2.789-2.091v-4.26a.775.775,0,0,0-1.549,0V124.2a.773.773,0,0,0,.31.62l3.1,2.324a.775.775,0,0,0,.93-1.239Z" transform="translate(-236.169 -118.779)"/>
    </g>
  </g>
  <g id="Group_21508" data-name="Group 21508">
    <g id="Group_21507" data-name="Group 21507">
      <path id="Path_102910" data-name="Path 102910" d="M10,0A10,10,0,1,0,20,10,10.011,10.011,0,0,0,10,0Zm0,18.451A8.451,8.451,0,1,1,18.451,10,8.461,8.461,0,0,1,10,18.451Z"/>
    </g>
  </g>
</svg>
